<svg xmlns="http://www.w3.org/2000/svg" viewBox="0 0 4419.83 2031.22"><defs><style>.cls-1{fill:#31e8b9;}.cls-2{fill:#ef5350;}</style></defs><g id="Layer_2" data-name="Layer 2"><g id="Content"><rect class="cls-1" x="4261.83" y="294.36" width="56.06" height="44.21" transform="translate(8579.71 632.94) rotate(180)"/><rect class="cls-1" x="4286.07" y="245.21" width="7.58" height="525.65" transform="translate(8579.71 1016.06) rotate(180)"/><rect class="cls-1" x="4057.93" y="253.66" width="56.06" height="291.69" transform="translate(8171.91 799.01) rotate(180)"/><rect class="cls-1" x="4082.17" y="266.39" width="7.58" height="566.23" transform="translate(8171.91 1099) rotate(180)"/><rect class="cls-2" x="3955.98" y="606.59" width="56.06" height="249.95" transform="translate(7968.02 1463.13) rotate(180)"/><rect class="cls-2" x="3980.22" y="509.49" width="7.58" height="566.23" transform="translate(7968.02 1585.22) rotate(180)"/><rect class="cls-1" x="3650.13" y="680.53" width="56.06" height="226.79" transform="translate(7356.32 1587.85) rotate(180)"/><rect class="cls-1" x="3674.37" y="480.85" width="7.58" height="604.3" transform="translate(7356.32 1565.99) rotate(180)"/><rect class="cls-2" x="3446.23" y="887.47" width="56.06" height="11.56" transform="translate(6948.52 1786.51) rotate(180)"/><rect class="cls-2" x="3470.47" y="727.29" width="7.58" height="348.43" transform="translate(6948.52 1803.01) rotate(180)"/><rect class="cls-2" x="3242.33" y="953.7" width="56.06" height="262.9" transform="translate(6540.72 2170.29) rotate(180)"/><rect class="cls-2" x="3266.57" y="891.94" width="7.58" height="475.53" transform="translate(6540.72 2259.41) rotate(180)"/><rect class="cls-2" x="2936.49" y="1037.84" width="56.06" height="122.23" transform="translate(5929.03 2197.91) rotate(180)"/><rect class="cls-2" x="2960.73" y="918.02" width="7.58" height="348.05" transform="translate(5929.03 2184.09) rotate(180)"/><rect class="cls-2" x="2834.54" y="900.08" width="56.06" height="197.53" transform="translate(5725.13 1997.68) rotate(180)"/><rect class="cls-2" x="2858.78" y="799.94" width="7.58" height="351.02" transform="translate(5725.13 1950.9) rotate(180)"/><rect class="cls-2" x="2732.59" y="684.83" width="56.06" height="283.29" transform="translate(5521.23 1652.95) rotate(180)"/><rect class="cls-2" x="2756.83" y="721.89" width="7.58" height="566.23" transform="translate(5521.23 2010.01) rotate(180)"/><rect class="cls-2" x="2528.69" y="654.4" width="56.06" height="187.43" transform="translate(5113.43 1496.23) rotate(180)"/><rect class="cls-2" x="2552.93" y="538.87" width="7.58" height="413.46" transform="translate(5113.43 1491.2) rotate(180)"/><rect class="cls-2" x="2324.79" y="482.44" width="56.06" height="194.44" transform="translate(4705.63 1159.32) rotate(180)"/><rect class="cls-2" x="2349.03" y="449.72" width="7.58" height="344.33" transform="translate(4705.63 1243.77) rotate(180)"/><rect class="cls-2" x="2018.94" y="509.54" width="56.06" height="140.23" transform="translate(4093.94 1159.32) rotate(180)"/><rect class="cls-2" x="2043.18" y="311.79" width="7.58" height="439.71" transform="translate(4093.94 1063.29) rotate(180)"/><rect class="cls-1" x="1916.99" y="329.45" width="56.06" height="180.09" transform="translate(3890.04 838.99) rotate(180)"/><rect class="cls-1" x="1941.23" y="284.96" width="7.58" height="412.58" transform="translate(3890.04 982.5) rotate(180)"/><rect class="cls-1" x="1815.04" y="538.01" width="56.06" height="294.23" transform="translate(3686.14 1370.26) rotate(180)"/><rect class="cls-1" x="1839.28" y="462.49" width="7.58" height="566.23" transform="translate(3686.14 1491.2) rotate(180)"/><rect class="cls-1" x="101.95" y="1313.43" width="56.06" height="11.56"/><rect class="cls-1" x="126.19" y="1168.26" width="7.58" height="566.23"/><rect class="cls-1" x="305.85" y="1380.96" width="56.06" height="262.9"/><rect class="cls-1" x="330.09" y="1319.21" width="7.58" height="475.53"/><rect class="cls-1" x="611.7" y="1465.11" width="56.06" height="122.23"/><rect class="cls-1" x="635.94" y="1345.29" width="7.58" height="348.05"/><rect class="cls-1" x="713.65" y="1327.34" width="56.06" height="197.53"/><rect class="cls-1" x="737.89" y="1227.21" width="7.58" height="351.02"/><rect class="cls-1" x="815.6" y="1112.1" width="56.06" height="283.29"/><rect class="cls-1" x="839.84" y="1149.16" width="7.58" height="566.23"/><rect class="cls-1" x="1019.49" y="1209.4" width="56.06" height="187.43"/><rect class="cls-1" x="1043.73" y="1093.88" width="7.58" height="413.46"/><rect class="cls-1" x="1223.39" y="909.7" width="56.06" height="194.44"/><rect class="cls-1" x="1247.63" y="876.99" width="7.58" height="483.16"/><rect class="cls-2" x="1529.24" y="936.81" width="56.06" height="140.23"/><rect class="cls-2" x="1553.48" y="739.06" width="7.58" height="439.71"/><rect class="cls-1" x="1631.19" y="756.72" width="56.06" height="180.09"/><rect class="cls-1" x="1655.43" y="712.23" width="7.58" height="412.58"/><rect class="cls-1" x="4363.78" y="47.09" width="56.06" height="396.24" transform="translate(8783.61 490.41) rotate(180)"/><rect class="cls-1" x="4388.02" width="7.58" height="595.03" transform="translate(8783.61 595.03) rotate(180)"/><rect class="cls-2" x="4159.88" y="716.72" width="56.06" height="153.48" transform="translate(8375.81 1586.93) rotate(180)"/><rect class="cls-2" x="4184.12" y="690.03" width="7.58" height="366.33" transform="translate(8375.81 1746.4) rotate(180)"/><rect class="cls-1" x="3854.03" y="409.23" width="56.06" height="525.8" transform="translate(7764.12 1344.25) rotate(180)"/><rect class="cls-1" x="3878.27" y="409.23" width="7.58" height="598.95" transform="translate(7764.12 1417.4) rotate(180)"/><rect class="cls-2" x="3752.08" y="1006.65" width="56.06" height="79.5" transform="translate(7560.22 2092.8) rotate(180)"/><rect class="cls-2" x="3776.32" y="745.75" width="7.58" height="374.46" transform="translate(7560.22 1865.96) rotate(180)"/><rect class="cls-2" x="3548.18" y="897.39" width="56.06" height="156.11" transform="translate(7152.42 1950.9) rotate(180)"/><rect class="cls-2" x="3572.42" y="668.36" width="7.58" height="566.23" transform="translate(7152.42 1902.94) rotate(180)"/><rect class="cls-1" x="3344.28" y="832.62" width="56.06" height="204.68" transform="translate(6744.62 1869.91) rotate(180)"/><rect class="cls-1" x="3368.52" y="579.08" width="7.58" height="507.07" transform="translate(6744.62 1665.23) rotate(180)"/><rect class="cls-1" x="3140.38" y="884.17" width="56.06" height="77.89" transform="translate(6336.82 1846.24) rotate(180)"/><rect class="cls-1" x="3164.62" y="613.55" width="7.58" height="347.9" transform="translate(6336.82 1575) rotate(180)"/><rect class="cls-1" x="3038.43" y="983.67" width="56.06" height="70.06" transform="translate(6132.93 2037.41) rotate(180)"/><rect class="cls-1" x="3062.68" y="943.54" width="7.58" height="297.02" transform="translate(6132.93 2184.09) rotate(180)"/><rect class="cls-1" x="2630.64" y="598.67" width="56.06" height="111.95" transform="translate(5317.33 1309.29) rotate(180)"/><rect class="cls-1" x="2654.88" y="462.86" width="7.58" height="298.94" transform="translate(5317.33 1224.67) rotate(180)"/><rect class="cls-1" x="2426.74" y="448.46" width="56.06" height="43.82" transform="translate(4909.53 940.74) rotate(180)"/><rect class="cls-1" x="2450.98" y="396.91" width="7.58" height="269.47" transform="translate(4909.53 1063.29) rotate(180)"/><rect class="cls-2" x="2222.84" y="509.54" width="56.06" height="163.25" transform="translate(4501.74 1182.34) rotate(180)"/><rect class="cls-2" x="2247.08" y="366.66" width="7.58" height="566.23" transform="translate(4501.74 1299.54) rotate(180)"/><rect class="cls-1" x="2120.89" y="459.63" width="56.06" height="49.92" transform="translate(4297.84 969.17) rotate(180)"/><rect class="cls-1" x="2145.13" y="413.48" width="7.58" height="204.01" transform="translate(4297.84 1030.98) rotate(180)"/><rect class="cls-2" y="1602.98" width="56.06" height="156.11"/><rect class="cls-2" x="24.24" y="1464.99" width="7.58" height="566.23"/><rect class="cls-2" x="203.9" y="1491.38" width="56.06" height="204.68"/><rect class="cls-2" x="228.14" y="1237.84" width="7.58" height="507.07"/><rect class="cls-2" x="407.8" y="1693.34" width="56.06" height="77.89"/><rect class="cls-2" x="432.04" y="1422.72" width="7.58" height="347.9"/><rect class="cls-2" x="509.75" y="1623.28" width="56.06" height="70.06"/><rect class="cls-2" x="533.99" y="1508.84" width="7.58" height="297.02"/><rect class="cls-2" x="917.54" y="1395.39" width="56.06" height="111.95"/><rect class="cls-2" x="941.79" y="1259.58" width="7.58" height="298.94"/><rect class="cls-2" x="1121.44" y="1286.95" width="56.06" height="65.92"/><rect class="cls-2" x="1145.68" y="1209.41" width="7.58" height="405.35"/><rect class="cls-2" x="1325.34" y="999.69" width="56.06" height="163.25"/><rect class="cls-2" x="1349.58" y="793.93" width="7.58" height="411.53"/><rect class="cls-1" x="1427.29" y="886.9" width="56.06" height="49.92"/><rect class="cls-1" x="1451.53" y="840.75" width="7.58" height="204.01"/><rect class="cls-2" x="1733.14" y="783.53" width="56.06" height="178.54"/><rect class="cls-2" x="1757.38" y="737.7" width="7.58" height="343.58"/></g></g></svg>