<?xml version="1.0" standalone="no"?>
<!DOCTYPE svg PUBLIC "-//W3C//DTD SVG 1.1//EN" "http://www.w3.org/Graphics/SVG/1.1/DTD/svg11.dtd" >
<svg xmlns="http://www.w3.org/2000/svg" xmlns:xlink="http://www.w3.org/1999/xlink" version="1.1">
<metadata>
Created by FontForge 20201107 at Wed Aug 17 21:45:41 2022
 By Unknown
Typeface (c) (Kong Font).  2022. All Rights Reserved (fontkong@gmail.com)
</metadata>
<defs>
<font id="Astraneo" horiz-adv-x="1126" >
  <font-face 
    font-family="Astraneo"
    font-weight="400"
    font-stretch="normal"
    units-per-em="2048"
    panose-1="2 0 6 0 0 0 0 0 0 0"
    ascent="1638"
    descent="-410"
    x-height="908"
    cap-height="1434"
    bbox="-724 -455 2764 2038.5"
    underline-thickness="150"
    underline-position="-292"
    unicode-range="U+000D-FB01"
  />
<missing-glyph horiz-adv-x="1024" 
d="M100 1434h824v-1434h-824v1434zM874 50v1334h-724v-1334h724zM325 1148q37 33 78 53t92 20q41 0 78 -10.5t65 -32.5t44.5 -54.5t16.5 -77.5q0 -33 -10 -63.5t-25.5 -59t-35 -55t-39.5 -50.5q-63 -79 -99 -132q-36 -52 -36 -99q0 -38 24 -133h-32q-35 99 -35 148
q0 76 82 218q81 143 81 217q0 58 -33 90.5t-91 32.5q-38 0 -67.5 -16.5t-57.5 -40.5v45zM446 392q10 10 20 10q9 0 22 -11l56 -60q9 -10 9 -20q0 -12 -10 -22l-56 -62q-14 -14 -21 -14q-11 0 -20 10l-61 71q-7 8 -7 18q0 9 11 22z" />
    <glyph glyph-name="fi" unicode="fi" horiz-adv-x="882" 
d="M615 1399h136q13 0 22 -9t9 -22v-211q0 -13 -9 -22t-22 -9h-136q-11 0 -22 9q-9 9 -9 22v211q0 13 9 22q11 9 22 9zM0 637q0 57 21.5 107.5t59 88t87.5 59t107 21.5h476q6 0 11.5 -0.5t10.5 -0.5q9 0 9 -2v-164q0 -13 -9 -22t-22 -9h-476q-33 0 -55 -23t-22 -55v-53
q0 -12 7.5 -21.5t20.5 -9.5h327q13 0 22 9t9 22v43q0 13 9 22q11 9 22 9h136q13 0 22 -9t9 -22v-596q0 -13 -9 -22t-22 -9h-136q-11 0 -22 9q-9 9 -9 22v293q0 13 -9 22t-22 9h-327q-13 0 -20.5 -9.5t-7.5 -21.5v-748q0 -13 -9 -22q-10 -9 -22 -9h-136q-13 0 -22 9t-9 22
v1061z" />
    <glyph glyph-name="uniE000" unicode="ff" horiz-adv-x="1542" 
d="M936 913h475q13 0 22 -9q9 -10 9 -22v-136q0 -13 -9 -22t-22 -9h-475q-32 0 -55 -23t-23 -55v-53q0 -12 8 -22q9 -9 20 -9h348q13 0 22 -9t9 -22v-136q0 -13 -9 -22t-22 -9h-348q-11 0 -20 -9q-8 -10 -8 -22v-748q0 -13 -9 -22t-22 -9h-136q-13 0 -22 9t-9 22v748
q0 12 -8 22q-9 9 -20 9h-404q-11 0 -22 -9q-9 -9 -9 -22v-748q0 -13 -9 -22t-22 -9h-135q-13 0 -22 9t-9 22v1061q0 57 21.5 107.5t59 88t87.5 59t107 21.5h444q27 0 6 -19q-73 -61 -104 -149q-5 -14 -16 -21q-10 -9 -24 -9h-306q-32 0 -55 -23t-23 -55v-53q0 -13 9 -22
q11 -9 22 -9h404q11 0 20 9q8 10 8 22v53q0 57 22 107.5t59.5 88t87.5 59t107 21.5z" />
    <glyph glyph-name="uniE001" unicode="ffi" horiz-adv-x="1543" 
d="M1276 1399h136q13 0 22 -9t9 -22v-211q0 -13 -9 -22t-22 -9h-136q-13 0 -22 9t-9 22v211q0 13 9 22t22 9zM936 913h476q6 0 11.5 -0.5t10.5 -0.5q9 0 9 -2v-164q0 -13 -9 -22t-22 -9h-476q-33 0 -55 -23t-22 -55v-53q0 -14 8 -22q8 -9 20 -9h327q13 0 22 9t9 22v43
q0 13 9 22t22 9h136q13 0 22 -9t9 -22v-596q0 -13 -9 -22t-22 -9h-136q-13 0 -22 9t-9 22v293q0 13 -9 22t-22 9h-327q-12 0 -20 -9q-8 -8 -8 -22v-748q0 -13 -9.5 -22t-22.5 -9h-135q-13 0 -22 9t-9 22v748q0 12 -8 22q-9 9 -21 9h-403q-13 0 -22 -9t-9 -22v-748
q0 -13 -9 -22t-22 -9h-136q-11 0 -22 9q-9 9 -9 22v1061q0 57 22 107.5t59.5 88t87.5 59t107 21.5h443q27 0 6 -19q-72 -60 -103 -149q-5 -14 -16 -21q-10 -9 -24 -9h-306q-32 0 -55 -23t-23 -55v-53q0 -13 9 -22t22 -9h403q12 0 21 9q8 10 8 22v53q0 57 21.5 107.5t59 88
t87.5 59t107 21.5z" />
    <glyph glyph-name="uniE002" unicode="ll" horiz-adv-x="598" 
d="M331 0q-13 0 -22 9t-9 22v1475q0 13 9 23q9 9 22 9h136q13 0 22 -9q9 -10 9 -23v-1475q0 -13 -9 -22t-22 -9h-136zM31 1399h136q13 0 22 -9t9 -22v-1337q0 -13 -9 -22t-22 -9h-136q-13 0 -22 9t-9 22v1337q0 13 9 22t22 9z" />
    <glyph glyph-name="uniE003" unicode="rr" horiz-adv-x="1222" 
d="M383 719h-108q-32 0 -55 -23t-23 -55v-610q0 -13 -9 -22t-22 -9h-135q-13 0 -22 9t-9 22v610q0 57 21.5 107.5t59 88t87.5 59t107 21.5h245q28 0 7 -19q-73 -61 -104 -149q-5 -14 -16 -21q-10 -9 -24 -9zM737 917h354q13 0 22 -9.5t9 -22.5v-135q0 -13 -9 -22t-22 -9
h-354q-33 0 -55 -23t-22 -55v-610q0 -13 -9 -22q-10 -9 -22 -9h-136q-13 0 -22 9t-9 22v610q0 57 22 107t59.5 87.5t87.5 59.5t106 22z" />
    <glyph glyph-name="uniE004" unicode="st" horiz-adv-x="1729" 
d="M1247 1407q13 0 22 -9q10 -9 10 -22v-428q0 -13 9 -22t22 -9h288q13 0 22 -9.5t9 -22.5v-135q0 -13 -9 -22t-22 -9h-288q-13 0 -22 -9t-9 -22v-412q0 -30 19.5 -54t51.5 -24h237q13 0 23 -9q9 -9 9 -22v-136q0 -13 -9 -22q-10 -9 -23 -9h-237q-57 0 -106.5 22t-85.5 60
t-56.5 88t-20.5 106v412q0 11 -7.5 21t-19.5 10h-779q-15 0 -28.5 -5t-24.5 -14.5t-17.5 -22.5t-6.5 -28t6.5 -28t17.5 -22.5t24.5 -14.5t28.5 -5h476q57 0 107.5 -21.5t87.5 -59t58.5 -87.5t21.5 -107v-28q0 -57 -21.5 -107.5t-59 -88t-87.5 -59t-107 -21.5h-720
q-13 0 -22 9t-9 22v136q0 13 9 22t22 9h720q32 0 55 23t23 55v28q0 32 -23 54.5t-55 22.5h-476q-56 0 -106 21t-87.5 57t-59.5 85t-22 105q0 57 22.5 106t60 85t87.5 56.5t105 20.5h779q12 0 19.5 10t7.5 21v428q0 13 9 22t22 9h135z" />
    <glyph glyph-name="uniE005" unicode="tt" horiz-adv-x="1503" 
d="M1022 1407q12 0 22 -9q9 -9 9 -22v-428q0 -13 9 -22t22 -9h288q13 0 22 -9.5t9 -22.5v-135q0 -13 -9 -22t-22 -9h-288q-13 0 -22 -9t-9 -22v-949q0 -13 -9 -22q-10 -9 -22 -9h-136q-13 0 -22 9t-9 22v949q0 11 -7.5 21t-19.5 10h-347q-13 0 -22 -9t-9 -22v-412
q0 -38 15 -58t22 -20h203q13 0 22 -9t9 -22v-136q0 -13 -9 -22t-22 -9h-203q-55 0 -98.5 24.5t-74 63.5t-46.5 88.5t-16 99.5v412q0 13 -9 22t-22 9h-190q-13 0 -22 9t-9 22v135q0 13 9 22.5t22 9.5h190q13 0 22 9t9 22v428q0 13 9 22q11 9 22 9h136q13 0 22 -9t9 -22v-428
q0 -13 9 -22t22 -9h347q12 0 19.5 10t7.5 21v428q0 13 9 22t22 9h136z" />
    <glyph glyph-name=".notdef" horiz-adv-x="1024" 
d="M100 1434h824v-1434h-824v1434zM874 50v1334h-724v-1334h724zM325 1148q37 33 78 53t92 20q41 0 78 -10.5t65 -32.5t44.5 -54.5t16.5 -77.5q0 -33 -10 -63.5t-25.5 -59t-35 -55t-39.5 -50.5q-63 -79 -99 -132q-36 -52 -36 -99q0 -38 24 -133h-32q-35 99 -35 148
q0 76 82 218q81 143 81 217q0 58 -33 90.5t-91 32.5q-38 0 -67.5 -16.5t-57.5 -40.5v45zM446 392q10 10 20 10q9 0 22 -11l56 -60q9 -10 9 -20q0 -12 -10 -22l-56 -62q-14 -14 -21 -14q-11 0 -20 10l-61 71q-7 8 -7 18q0 9 11 22z" />
    <glyph glyph-name=".null" horiz-adv-x="0" 
 />
    <glyph glyph-name="uni000D" unicode="&#xd;" horiz-adv-x="512" 
 />
    <glyph glyph-name="space" unicode=" " horiz-adv-x="508" 
 />
    <glyph glyph-name="space" unicode="&#xa0;" horiz-adv-x="508" 
 />
    <glyph glyph-name="exclam" unicode="!" horiz-adv-x="386" 
d="M253 379q-2 -24 -19 -41t-41 -17h-100q-24 0 -41 17t-19 41l-33 999q0 25 16 41.5t41 16.5h173q25 0 40.5 -17t15.5 -41zM251 159v-101q0 -24 -17 -41t-41 -17h-100q-24 0 -41 17t-17 41v101q0 24 17 41t41 17h100q25 0 41 -17q17 -16 17 -41z" />
    <glyph glyph-name="quotedbl" unicode="&#x22;" horiz-adv-x="541" 
d="M216 1387v-101q0 -24 -11 -53.5t-27 -48.5l-21 -25q-13 -15 -21 -15q-9 0 -4 28q2 10 4 15q1 4 1.5 7t0.5 6q3 11 1 20q-2 8 -7 8h-74q-22 0 -41 17q-17 19 -17 41v101q0 24 17 41t41 17h100q24 0 41 -17t17 -41zM383 1445q24 0 41 -17t17 -41v-101q0 -24 -11 -53.5
t-27 -48.5l-21 -25q-15 -15 -21 -15q-9 0 -4 28q0 3 2 9q1 5 2 9.5t2 9.5q3 11 1 20q-2 8 -7 8h-74q-24 0 -41 17t-17 41v101q0 25 17 41q16 17 41 17h100z" />
    <glyph glyph-name="numbersign" unicode="#" horiz-adv-x="884" 
d="M739 703q-1 -4 -5 -8q-6 -4 -9 -4h-56q-13 0 -23 -7q-12 -7 -13 -17q-3 -10 5 -18q7 -7 20 -7h56q4 0 7 -3q2 -3 2 -9l-44 -197q-1 -5 -6 -8q-3 -4 -9 -4h-55q-13 0 -24 -8q-11 -10 -14 -22l-13 -59l-2 -4t-3 -4q-4 -3 -9 -3h-193q-5 0 -7 3q-3 5 -2 8l13 59q3 12 -2 22
q-6 8 -16 8q-9 0 -19 -8q-8 -9 -12 -22l-13 -59q0 -3 -5 -8q-4 -3 -9 -3h-193q-4 0 -7 3q-2 3 -2 8l13 59q3 14 -4 22q-8 8 -20 8h-56q-4 0 -7 4q-2 2 -2 8l45 197q0 4 5 9q5 3 9 3h55q13 0 23 6t14 19q2 11 -6 17q-6 7 -20 7h-55q-4 0 -8 4q-2 4 -1 8l44 198q3 11 14 11h55
q13 0 24 8.5t14 21.5l13 59q2 5 6 8q3 3 9 3h192q5 0 8 -3t1 -8l-13 -59q-2 -14 3 -21q5 -9 15 -9q11 0 20 9.5t11 20.5l13 59q2 5 5 8q5 3 9 3h193q6 0 7 -3q4 -3 2 -8l-13 -59q-3 -12 5 -21q6 -9 19 -9h56q6 0 7 -3q4 -3 2 -8zM387 642q11 0 18 7q10 8 11 18q3 11 -3 17
q-4 7 -15 7t-19 -7q-8 -5 -11 -17q-1 -10 3 -18q6 -7 16 -7z" />
    <glyph glyph-name="dollar" unicode="$" 
d="M1026 443q0 -57 -21.5 -107.5t-59 -87.5t-87.5 -58.5t-107 -21.5h-108q-13 0 -22 -9t-9 -22v-66q0 -13 -9 -22t-22 -9h-136q-13 0 -22 9t-9 22v66q0 13 -9 22t-22 9h-352q-13 0 -22 9t-9 22v136q0 12 9 22q9 9 22 9h352q13 0 22 9t9 22v190q0 13 -9 22t-22 9h-108
q-57 0 -107.5 21.5t-87.5 59t-58.5 87.5t-21.5 107v97q0 57 21.5 107.5t59 87.5t87.5 58.5t107 21.5h108q13 0 22 9t9 22v76q0 13 9 22q9 10 22 10h136q13 0 22 -10q9 -9 9 -22v-76q0 -13 9 -22t22 -9h352q13 0 22 -9t9 -22v-135q0 -13 -9 -22q-9 -10 -22 -10h-352
q-13 0 -22 -9t-9 -22v-190q0 -11 9 -22q9 -9 22 -9h108q57 0 107.5 -21.5t87.5 -59t58.5 -87.5t21.5 -107v-97zM197 893q0 -32 23 -55t55 -23h108q13 0 22 9q9 11 9 22v190q0 13 -9 22t-22 9h-108q-32 0 -55 -22.5t-23 -54.5v-97zM643 618q-13 0 -22 -9t-9 -22v-190
q0 -13 9 -22t22 -9h108q32 0 55 22.5t23 54.5v97q0 32 -23 55t-55 23h-108z" />
    <glyph glyph-name="percent" unicode="%" horiz-adv-x="1169" 
d="M522 1065q0 -55 -20 -105t-55 -87.5t-82.5 -60t-103.5 -22.5q-57 0 -104.5 22.5t-82.5 60.5t-54.5 88t-19.5 104v149q0 55 20 105t55 87.5t82.5 60t103.5 22.5q57 0 104.5 -22.5t82.5 -60.5t54.5 -88t19.5 -104v-149zM312 -46l-126 48q-11 4 -18 16q-5 13 -1 24l501 1337
q5 13 16 17q10 6 24 1l126 -47q12 -5 18 -17q5 -12 1 -23l-501 -1337q-4 -12 -16 -18q-10 -4 -24 -1zM324 1214q0 13 -4 27t-12.5 25t-20 18.5t-26.5 7.5t-26.5 -7.5t-20 -18.5t-12.5 -25t-4 -27v-149q0 -32 19 -54q17 -23 44 -23t44 23q19 22 19 54v149zM808 666
q57 0 104.5 -22.5t82.5 -60.5t54.5 -88t19.5 -104v-149q0 -55 -20 -104.5t-55 -87.5t-82.5 -60.5t-103.5 -22.5q-57 0 -104.5 22.5t-82.5 60.5t-54.5 88t-19.5 104v149q0 55 19.5 105t54.5 87.5t83 60t104 22.5zM871 391q0 13 -4 27t-12.5 25t-20 18.5t-26.5 7.5
q-25 0 -45 -23q-18 -24 -18 -55v-149q0 -13 4 -27t12.5 -25t20 -18t26.5 -7q27 0 44 23q19 22 19 54v149z" />
    <glyph glyph-name="ampersand" unicode="&#x26;" horiz-adv-x="1114" 
d="M856 891q37 -18 64 -46.5t45 -63t28 -73.5t13 -78q8 -87 -10 -167q-34 -149 -133 -220q-10 -8 -16 -21q-5 -14 -1 -26l72 -245q3 -15 -2 -24q-6 -10 -19 -15l-130 -38q-14 -3 -23 2q-12 6 -15 19l-80 269q-5 13 -15.5 21.5t-24.5 8.5h-333q-58 0 -108 22t-87.5 59.5
t-59 87.5t-21.5 107v155q0 93 56 166q8 11 8 24q2 14 -5 25q-38 64 -38 138v49q0 57 22 107.5t59.5 87.5t87.5 58.5t107 21.5h154q57 0 107.5 -21.5t88 -59t59 -87.5t21.5 -107v-49q0 -98 -64 -176q-9 -10 -9 -23t7 -24q32 -44 48 -94l58 -197q3 -12 11 -14q6 0 12 12
q5 13 8 24t5 20q8 42 8.5 76.5t-6.5 63.5q-15 57 -33 66l-62 29q-12 7 -16 18q-3 12 1 24l58 122q6 11 17 16q13 5 24 -1zM219 978q0 -34 22.5 -54.5t54.5 -22.5h155q16 0 30 6t24.5 16.5t17 24.5t6.5 30v49q0 33 -23 55t-55 22h-154q-32 0 -55 -22t-23 -55v-49zM198 470
q0 -32 23 -55t55 -23h275q13 0 19 8q6 9 3 22l-54 183q-7 20 -20.5 37.5t-31 30.5t-38 21t-41.5 9h-112q-32 0 -55 -23t-23 -55v-155z" />
    <glyph glyph-name="quotesingle" unicode="'" horiz-adv-x="316" 
d="M158 1445q25 0 41 -17q17 -16 17 -41v-101q0 -12 -2.5 -25.5t-8.5 -27.5q-10 -29 -27 -49l-21 -25q-13 -15 -21 -15q-9 0 -4 28q2 8 3.5 14.5t3.5 13.5q1 6 1.5 11t-1.5 9q-2 8 -7 8h-74q-22 0 -41 17q-17 19 -17 41v101q0 24 17 41t41 17h100z" />
    <glyph glyph-name="parenleft" unicode="(" horiz-adv-x="618" 
d="M419 -221q-68 0 -122.5 34.5t-97 90.5t-74 127.5t-53.5 146t-35 146t-20 127.5q-9 69 -13 138.5t-4 141.5q0 64 4.5 143t16.5 164.5t31.5 172.5t49.5 165.5t71.5 144t96.5 108.5q65 53 149 53h68q13 0 22 -9t9 -22v-135q0 -13 -9 -22t-22 -9h-68q-15 0 -31.5 -15
t-29.5 -32.5t-21 -29.5q-14 -20 -26.5 -47.5t-25.5 -61.5q-88 -243 -88 -568q0 -326 88 -569q8 -20 18 -43t22.5 -46t27.5 -43.5t31 -34.5q23 -18 35 -18h68q13 0 22 -9.5t9 -22.5v-135q0 -13 -9 -22t-22 -9h-68z" />
    <glyph glyph-name="parenright" unicode=")" horiz-adv-x="618" 
d="M99 1682q68 0 122.5 -34t97 -90t74 -127.5t53 -146t35 -146t20.5 -127.5q9 -69 13 -139t4 -141q0 -88 -7.5 -187t-25 -198.5t-47 -193.5t-73.5 -174q-21 -38 -47.5 -74t-59.5 -64t-72.5 -44.5t-86.5 -16.5h-68q-13 0 -22 9t-9 22v135q0 13 9 22.5t22 9.5h68q14 0 28 10.5
t27.5 27.5t26 38t23 41.5t18 38.5t11.5 29q88 243 88 569q0 325 -88 568q-7 20 -17.5 43.5t-23 46.5t-27 43.5t-31.5 34.5q-22 18 -35 18h-68q-13 0 -22 9t-9 22v135q0 13 9 22t22 9h68z" />
    <glyph glyph-name="asterisk" unicode="*" horiz-adv-x="538" 
d="M346 1451q13 7 25 7q9 0 16 -3q21 -10 28 -32l16 -51q7 -23 -4 -42q-12 -18 -36 -22l-44 -6q-12 -3 -15 -10q-3 -8 7 -17l30 -30q17 -18 15 -39q-1 -22 -20 -37l-42 -31q-21 -13 -41 -9q-21 5 -31 27l-21 42q-6 12 -13 12q-6 0 -14 -12l-19 -39q-10 -22 -31 -27
q-20 -6 -41 9l-42 31q-18 14 -21 36q-1 21 16 40l32 32q10 9 7 17t-15 9l-41 7q-23 3 -36 22q-11 19 -4 41l16 52q5 15 16.5 24.5t27.5 9.5q12 0 25 -6l40 -22q10 -6 18 -1q6 4 4 17l-7 44q-4 23 10 41q13 16 38 16h51q25 0 38 -16q14 -17 11 -41l-8 -47q-3 -12 4 -17
q6 -5 18 1zM216 1333v-1q1 -1 1 -2h1h1l1 1v3h-3q0 -1 -1 -1z" />
    <glyph glyph-name="plus" unicode="+" horiz-adv-x="762" 
d="M263 222q-11 0 -22 9q-9 9 -9 22v174q0 13 -9 22t-22 9h-170q-13 0 -22 10q-9 9 -9 22v135q0 13 9 22t22 9h170q13 0 22 9t9 22v175q0 13 9 22q11 9 22 9h136q13 0 22 -9t9 -22v-175q0 -13 9 -22t22 -9h170q13 0 22 -9t9 -22v-135q0 -13 -9 -22q-9 -10 -22 -10h-170
q-13 0 -22 -9t-9 -22v-174q0 -13 -9 -22t-22 -9h-136z" />
    <glyph glyph-name="comma" unicode="," horiz-adv-x="317" 
d="M158 217q25 0 41 -17q18 -16 18 -41v-101q0 -26 -11 -54t-27 -48l-22 -25q-13 -15 -20 -15q-10 0 -5 28q2 8 3.5 14.5t3.5 13.5q3 10 1 20q-3 8 -8 8h-73q-24 0 -41.5 17t-17.5 41v101q0 25 18 41q16 17 41 17h99z" />
    <glyph glyph-name="hyphen" unicode="-" horiz-adv-x="762" 
d="M31 458q-13 0 -22 10q-9 9 -9 22v135q0 13 9 22t22 9h600q13 0 22 -9t9 -22v-135q0 -13 -9 -22q-9 -10 -22 -10h-600z" />
    <glyph glyph-name="hyphen" unicode="&#xad;" horiz-adv-x="762" 
d="M31 458q-13 0 -22 10q-9 9 -9 22v135q0 13 9 22t22 9h600q13 0 22 -9t9 -22v-135q0 -13 -9 -22q-9 -10 -22 -10h-600z" />
    <glyph glyph-name="period" unicode="." horiz-adv-x="316" 
d="M158 217q24 0 41 -17t17 -41v-101q0 -24 -17 -41t-41 -17h-100q-24 0 -41 17t-17 41v101q0 24 17 41t41 17h100z" />
    <glyph glyph-name="slash" unicode="/" horiz-adv-x="1045" 
d="M22 -333q-12 5 -17 16q-6 11 -1 24l751 2007q5 12 16 17q11 6 24 1l127 -47q13 -7 17 -17q6 -10 1 -23l-751 -2007q-4 -11 -16 -18q-11 -4 -24 -1z" />
    <glyph glyph-name="zero" unicode="0" horiz-adv-x="1053" 
d="M276 0q-57 0 -107.5 21.5t-88 59t-59 87.5t-21.5 107v878q0 58 22 108t59.5 87t87.5 58.5t107 21.5h402q57 0 107.5 -21.5t87.5 -59t58.5 -87.5t21.5 -107v-878q0 -57 -21.5 -107.5t-59 -87.5t-87.5 -58.5t-107 -21.5h-402zM198 275q0 -32 23 -55t55 -23h402q32 0 55 23
t23 55v878q0 32 -23 54.5t-55 22.5h-402q-33 0 -55.5 -22t-22.5 -55v-878z" />
    <glyph glyph-name="one" unicode="1" horiz-adv-x="567" 
d="M84 1322q17 24 39.5 44t49 33.5t56 21t58.5 7.5q81 0 130 -77q50 -75 50 -198v-1122q0 -13 -9 -22t-22 -9h-135q-13 0 -22 9t-9 22v1122q0 11 -1.5 30t-7.5 29q-4 7 -7 6q-1 -1 -3 -3.5t-6 -6.5l-6 -10t-7 -10l-59 -92q-7 -10 -20 -13q-11 -3 -23 4l-114 74q-12 8 -13 19
q-3 13 4 24z" />
    <glyph glyph-name="two" unicode="2" horiz-adv-x="998" 
d="M31 1232q-13 0 -22 9.5t-9 22.5v135q0 13 9 22t22 9h592q57 0 107.5 -21.5t87.5 -59t58.5 -87.5t21.5 -107v-47q0 -51 -15 -102.5t-41.5 -98t-63 -86t-79.5 -66.5l-398 -241q-20 -13 -39 -34t-33.5 -46t-23 -52t-8.5 -51v-105q0 -13 10 -22q9 -9 22 -9h638q13 0 22 -9
t9 -22v-135q0 -13 -9 -22t-22 -9h-836q-13 0 -22 9t-9 22v302q0 51 15 102t41.5 98t63 86t79.5 66l398 241q20 14 39 35t33 46t22.5 51.5t8.5 51.5v47q0 32 -22 55q-23 22 -55 22h-592z" />
    <glyph glyph-name="three" unicode="3" horiz-adv-x="999" 
d="M898 275q0 -57 -21.5 -107.5t-59 -87.5t-87.5 -58.5t-107 -21.5h-592q-13 0 -22 9t-9 22v135q0 13 9 23q9 9 22 9h592q32 0 55 22q22 23 22 55v334q0 33 -22 55.5t-55 22.5h-610q-4 0 -6.5 4t-4 9t-2 10t-0.5 8v136q0 13 9 22t22 9h566q32 2 54 23t22 54v191q0 32 -22 55
t-55 23h-538q-13 0 -22 9t-9 22v135q0 13 9 22t22 9h538q57 0 107.5 -21.5t87.5 -59t58.5 -87.5t21.5 -107v-191q0 -72 -35 -134q-6 -13 -5 -25q2 -13 9 -24q58 -74 58 -170v-334z" />
    <glyph glyph-name="four" unicode="4" horiz-adv-x="1035" 
d="M935 31q0 -13 -9 -22q-10 -9 -22 -9h-136q-13 0 -22 9t-9 22v346q0 13 -9 22t-22 9h-431q-58 0 -108 22t-87 59.5t-58.5 87.5t-21.5 107v714q0 13 9 22q9 10 22 10h135q14 0 23 -9t9 -23v-714q0 -33 22 -55.5t55 -22.5h431q13 0 22 9t9 22v761q0 13 9 22q9 10 22 10h136
q13 0 22 -9.5t9 -22.5v-1367z" />
    <glyph glyph-name="five" unicode="5" horiz-adv-x="998" 
d="M898 1262q0 -12 -9.5 -21.5t-21.5 -9.5h-638q-13 0 -22 -8.5t-9 -21.5v-264q0 -13 9 -22t22 -9h394q57 0 107.5 -21.5t87.5 -59t58.5 -87t21.5 -106.5v-358q0 -57 -21.5 -107t-59 -87t-87.5 -58.5t-107 -21.5h-592q-13 0 -22 9t-9 22v135q0 12 9 21q9 10 22 10h592
q33 0 55 22t22 55v358q0 32 -22 55t-55 23h-592q-13 0 -22 9t-9 22v656q0 13 9 22t22 9h836q13 0 22 -9t9 -22v-135z" />
    <glyph glyph-name="six" unicode="6" horiz-adv-x="998" 
d="M0 1154q0 57 21.5 107t59 87t87.5 58.5t107 21.5h592q13 0 22 -9t9 -22v-135q0 -12 -9.5 -21.5t-21.5 -9.5h-592q-33 0 -55 -22t-22 -55v-186q0 -13 9 -22t22 -9h394q57 0 107.5 -21.5t87.5 -59t58.5 -87t21.5 -106.5v-389q0 -57 -21.5 -107t-59 -87t-87.5 -58.5
t-107 -21.5h-348q-57 0 -107.5 21.5t-87.5 59t-58.5 87t-21.5 106.5v880zM701 663q0 32 -23 55t-55 23h-394q-13 0 -22 -9t-9 -22v-436q0 -33 22 -55t55 -22h348q32 0 55 22t23 55v389z" />
    <glyph glyph-name="seven" unicode="7" horiz-adv-x="998" 
d="M597 801q20 14 38.5 34.5t33 45.5t23 51.5t8.5 50.5v218q0 13 -9 22t-22 9h-638q-13 0 -22 9.5t-9 22.5v135q0 13 9 22t22 9h836q13 0 22 -9t9 -22v-416q0 -51 -15 -102t-42 -98t-63.5 -86t-79.5 -66l-116 -69q-20 -12 -39 -33t-33.5 -46t-23 -51.5t-8.5 -50.5v-350
q0 -13 -9 -22t-22 -9h-135q-13 0 -22 9t-9 22v350q0 51 15 102.5t42 97.5t63.5 85t79.5 66z" />
    <glyph glyph-name="eight" unicode="8" horiz-adv-x="998" 
d="M898 276q0 -58 -21.5 -108t-59 -87.5t-87.5 -59t-107 -21.5h-347q-57 0 -107.5 22t-88 59.5t-59 87.5t-21.5 107v336q0 94 59 170q8 11 9 24q0 7 -1 13.5t-5 11.5q-35 62 -35 135v185q0 58 22 108t59.5 87.5t87.5 59t107 21.5h293q58 0 108 -21.5t87 -59t58.5 -88
t21.5 -107.5v-185q0 -75 -35 -135q-7 -11 -5 -25q2 -13 9 -24q58 -74 58 -170v-336zM225 966q0 -33 22.5 -54.5t54.5 -23.5h295q32 2 54.5 23.5t22.5 54.5v185q0 32 -23 55t-55 23h-293q-32 0 -55 -23t-23 -55v-185zM198 276q0 -32 23 -55t55 -23h347q32 0 55 23t23 55v336
q0 32 -23 55t-55 23h-347q-32 0 -55 -23t-23 -55v-336z" />
    <glyph glyph-name="nine" unicode="9" horiz-adv-x="998" 
d="M623 1428q57 0 107.5 -21.5t87.5 -59t58.5 -87t21.5 -106.5v-880q0 -57 -21.5 -107t-59 -87t-87.5 -58.5t-107 -21.5h-592q-13 0 -22 9t-9 22v134q0 13 9 22t22 9h592q32 0 55 23t23 55v205q0 13 -9.5 22t-22.5 9h-394q-57 0 -107.5 21.5t-87.5 59t-58.5 87t-21.5 106.5
v370q0 57 21.5 107t59 87t87.5 58.5t107 21.5h348zM669 707q12 0 22 9t10 21v417q0 32 -23 55t-55 23h-348q-33 0 -55 -23t-22 -55v-370q0 -33 22 -55t55 -22h394z" />
    <glyph glyph-name="colon" unicode=":" horiz-adv-x="316" 
d="M158 866q25 0 41.5 -17t16.5 -42v-101q0 -24 -17 -41t-41 -17h-99q-23 0 -42 17q-17 19 -17 41v101q0 23 17 42q19 17 42 17h99zM216 421v-101q0 -24 -17 -41t-41 -17h-99q-24 0 -41.5 16.5t-17.5 41.5v101q0 25 17.5 41.5t41.5 16.5h99q24 0 41 -17t17 -41z" />
    <glyph glyph-name="semicolon" unicode=";" horiz-adv-x="316" 
d="M158 866q25 0 41.5 -17t16.5 -42v-101q0 -24 -17 -41t-41 -17h-100q-22 0 -41 17q-17 19 -17 41v101q0 23 17 42q19 17 41 17h100zM216 320q0 -12 -2.5 -25.5t-8.5 -27.5q-10 -29 -27 -49l-21 -25q-13 -15 -21 -15t-4 27q2 6 2.5 11t2.5 10q0 2 2 8q1 6 1.5 10.5
t-1.5 9.5q-2 8 -7 8h-74q-24 0 -41 17t-17 41v101q0 24 17 41t41 17h100q24 0 41 -17t17 -41v-101z" />
    <glyph glyph-name="less" unicode="&#x3c;" horiz-adv-x="679" 
d="M568 778q7 -10 5 -23q-3 -12 -14 -20l-257 -165q-10 -7 -10 -16q0 -10 11 -17l260 -165q12 -8 13 -20q3 -13 -4 -23l-72 -115q-8 -12 -20 -13q-13 -3 -23 4l-408 258q-47 33 -49 90q2 58 49 89l403 259q11 7 24 5q11 -3 19 -14z" />
    <glyph glyph-name="equal" unicode="=" horiz-adv-x="762" 
d="M31 652q-13 0 -22 9t-9 22v135q0 13 9 22t22 9h600q13 0 22 -9t9 -22v-135q0 -13 -9 -22t-22 -9h-600zM631 554q13 0 22 -9t9 -22v-135q0 -13 -9 -22t-22 -9h-600q-13 0 -22 9t-9 22v135q0 13 9 22t22 9h600z" />
    <glyph glyph-name="greater" unicode="&#x3e;" horiz-adv-x="679" 
d="M530 643q47 -33 49 -90q-2 -58 -49 -89l-403 -259q-11 -7 -24 -5q-11 3 -19 14l-74 114q-5 11 -4 23q3 12 14 20l257 165q10 7 10 17q0 9 -11 16l-260 165q-12 8 -13 20q-3 13 4 23l72 115q8 12 20 13q13 3 23 -4z" />
    <glyph glyph-name="question" unicode="?" horiz-adv-x="766" 
d="M666 1131q0 -54 -18.5 -105t-50.5 -94t-76 -75t-95 -48l-89 -27q-19 -6 -37 -20t-32 -32t-22 -39t-8 -42v-263q0 -13 -9 -22.5t-22 -9.5h-135q-13 0 -22 9.5t-9 22.5v263q0 54 18 105t50.5 93.5t76 74.5t94.5 49l89 27q20 7 38 20.5t31.5 31.5t21.5 39t8 42v21
q0 33 -23 55t-55 22h-318q-13 0 -22 10q-9 9 -9 22v135q0 13 9 22t22 9h318q57 0 107.5 -21.5t88 -59t59 -87.5t21.5 -107v-21zM194 254q23 0 42 -17q17 -19 17 -41v-138q0 -25 -17.5 -41.5t-41.5 -16.5h-136q-24 0 -41 17t-17 41v138q0 22 17 41q19 17 41 17h136z" />
    <glyph glyph-name="at" unicode="@" horiz-adv-x="1209" 
d="M834 1346q58 0 108 -21.5t87 -59t58.5 -88t21.5 -107.5v-402q0 -58 -21.5 -108t-59 -87t-87.5 -58.5t-107 -21.5h-383q-69 0 -131.5 25t-105.5 82q-16 19 -16 -5v-73q0 -32 22.5 -55t54.5 -23h539q13 0 22 -9t9 -22v-135q0 -13 -9 -22t-22 -9h-539q-57 0 -107.5 21.5
t-87.5 59t-58.5 87.5t-21.5 107v648q0 57 21.5 107.5t59 88t87.5 59t107 21.5h559zM912 668v402q0 32 -23 55t-55 23h-559q-33 0 -55 -22.5t-22 -55.5v-334q0 -24 16 -4q43 55 105.5 81t131.5 26h220l9 2v2q0 32 -23 55t-55 23h-252q-13 0 -22 9t-9 22v135q0 13 9 22t22 9
h252q57 0 107.5 -21.5t87.5 -59t58.5 -87.5t21.5 -107v-221q0 -7 7 -7t12 6.5t8.5 15t5.5 17.5t2 14zM389 616q0 -9 7.5 -14t17.5 -8t20.5 -3.5t16.5 -0.5h198q11 0 21 7t10 19q0 11 -9 17q-10 8 -22 8h-198q-6 0 -16 -1t-20.5 -3.5t-18 -7.5t-7.5 -13z" />
    <glyph glyph-name="A" unicode="A" horiz-adv-x="1494" 
d="M494 236q-13 0 -28 -6q-15 -7 -23 -17l-166 -189q-8 -10 -22.5 -17t-28.5 -7h-207q-12 0 -16 7q-3 6 5 17l1200 1373q36 37 80 37q19 0 38 -6q32 -12 50 -39t18 -61v-1297q0 -13 -9 -22t-22 -9h-141q-13 0 -22 9t-9 22v174q0 13 -9 22q-10 9 -22 9h-666zM1191 1040
q0 15 -7 15q-4 0 -14 -8l-515 -591q-9 -9 -6 -16t16 -7h495q12 0 22 9q9 9 9 22v576z" />
    <glyph glyph-name="B" unicode="B" horiz-adv-x="1254" 
d="M1154 283q0 -58 -22.5 -110t-61 -90t-90 -60.5t-109.5 -22.5h-840q-6 0 -11.5 0.5t-10.5 0.5q-9 2 -9 3v1399q0 13 9 22t22 9h840q59 0 111 -22.5t90 -60.5t60 -89.5t22 -110.5v-150q0 -86 -47 -157q-8 -13 -8 -25t8 -25q47 -70 47 -156v-355zM951 1151q0 33 -23.5 56.5
t-56.5 23.5h-637q-13 0 -22 -9t-9 -22v-248q0 -13 9 -22t22 -9h637q33 0 56.5 23.5t23.5 56.5v150zM234 718q-13 0 -22 -9t-9 -22v-453q0 -13 9 -22t22 -9h637q34 0 56 24q24 23 24 56v355q0 34 -24 56q-22 24 -56 24h-637z" />
    <glyph glyph-name="C" unicode="C" horiz-adv-x="1248" 
d="M275 0q-58 0 -108 22t-87 59.5t-58.5 87.5t-21.5 107v882q0 57 21.5 107.5t59 88t87.5 59t107 21.5h830q13 0 22 -9t9 -22v-136q0 -13 -9 -22t-22 -9h-830q-32 0 -54.5 -23t-22.5 -55v-882q0 -32 22.5 -55t54.5 -23h842q13 0 22 -9t9 -22v-136q0 -13 -9 -22t-22 -9h-842z
" />
    <glyph glyph-name="D" unicode="D" horiz-adv-x="1254" 
d="M1155 281q0 -59 -22.5 -110t-61.5 -89t-90.5 -60t-109.5 -22h-840h-11.5t-10.5 1l-9 2v1396v7t1 10t2 9.5t3 4.5q3 0 4 1q2 0 2 1t9 2h850q59 0 110.5 -22t90 -60.5t61 -89.5t22.5 -109v-872zM235 1233q-13 0 -22 -9t-9 -22v-970q0 -13 9 -21.5t22 -8.5h636q34 0 56 23
q24 23 24 56v872q0 34 -24 56q-22 24 -56 24h-636z" />
    <glyph glyph-name="E" unicode="E" horiz-adv-x="1248" 
d="M275 0q-58 0 -108 22t-87 59.5t-58.5 87.5t-21.5 107v882q0 57 21.5 107.5t59 88t87.5 59t107 21.5h830q13 0 22 -9t9 -22v-136q0 -13 -9 -22t-22 -9h-830q-32 0 -54.5 -23t-22.5 -55v-208q0 -13 9 -22t22 -9h786q13 0 22 -9t9 -22v-141q0 -12 -9 -23q-9 -9 -22 -9h-786
q-13 0 -22 -9t-9 -22v-408q0 -32 22.5 -55t54.5 -23h842q13 0 22 -9t9 -22v-136q0 -13 -9 -22t-22 -9h-842z" />
    <glyph glyph-name="F" unicode="F" horiz-adv-x="1242" 
d="M234 715q-13 0 -22 -9t-9 -22v-653q0 -13 -9 -22t-22 -9h-141q-13 0 -22 9t-9 22v1120q0 59 22.5 110.5t60.5 89.5t89.5 60t109.5 22h828q13 0 22 -9t9 -22v-140q0 -13 -9 -22t-22 -9h-828q-33 0 -56 -23.5t-23 -56.5v-202q0 -13 9 -22.5t22 -9.5h679q13 0 22 -9t9 -22
v-140q0 -13 -9 -22t-22 -9h-679z" />
    <glyph glyph-name="G" unicode="G" horiz-adv-x="1254" 
d="M283 0q-59 0 -110.5 22.5t-90 61t-60.5 90t-22 109.5v869q0 59 22.5 110.5t61 89.5t90 60t109.5 22h827q13 0 22 -9t9 -22v-140q0 -13 -9 -22q-9 -10 -22 -10h-827q-34 0 -57 -22.5t-23 -56.5v-869q0 -32 23 -57q25 -23 57 -23h588q33 0 56.5 23.5t23.5 56.5v353
q0 33 -23.5 56t-56.5 23h-377q-13 0 -22 10q-10 10 -10 22v140q0 13 9.5 22t22.5 9h377q59 0 110.5 -22.5t89.5 -60.5t60.5 -89.5t22.5 -109.5v-353q0 -58 -22.5 -110t-61 -90t-90 -60.5t-109.5 -22.5h-588z" />
    <glyph glyph-name="H" unicode="H" horiz-adv-x="1241" 
d="M233 715q-13 0 -22 -9t-9 -22v-653q0 -13 -9 -22t-22 -9h-140q-13 0 -22 9t-9 22v1372q0 13 9 22t22 9h140q13 0 22 -9t9 -22v-453q0 -13 9 -22q9 -10 22 -10h675q13 0 22 9.5t9 22.5v453q0 13 9 22t22 9h140q12 0 22 -9q9 -9 9 -22v-1372q0 -13 -9 -22q-10 -9 -22 -9
h-140q-13 0 -22 9t-9 22v653q0 13 -9 22q-10 9 -22 9h-675z" />
    <glyph glyph-name="I" unicode="I" horiz-adv-x="298" 
d="M166 1434q13 0 23 -9q9 -9 9 -22v-1372q0 -13 -9 -22q-10 -9 -23 -9h-135q-13 0 -22 9t-9 22v1372q0 13 9 22t22 9h135z" />
    <glyph glyph-name="J" unicode="J" horiz-adv-x="1254" 
d="M1154 283q0 -58 -22.5 -110t-61 -90t-90 -60.5t-109.5 -22.5h-840q-13 0 -22 10q-9 9 -9 22v140q0 13 9 22t22 9h840q33 0 56.5 23.5t23.5 56.5v1119q0 13 9 22q9 10 22 10h140q13 0 22 -10q10 -9 10 -22v-1119z" />
    <glyph glyph-name="K" unicode="K" horiz-adv-x="1274" 
d="M229 713q-13 0 -22 -9t-9 -22v-651q0 -13 -9 -22t-22 -9h-135q-13 0 -22 9q-10 9 -10 22v1372q0 13 10 22q9 9 22 9h135q13 0 22 -9t9 -22v-461q0 -13 9 -22t22 -9h333q23 0 48 8.5t47.5 23t41.5 33t30 38.5l263 526q6 11 18 16q11 4 24 -2l121 -60q12 -6 15 -18
q4 -11 -1 -24l-263 -526q-28 -54 -75 -99q-8 -8 -10 -21q0 -12 9 -21q41 -46 64 -103l273 -715q3 -13 -1 -24q-6 -12 -17 -16l-127 -49q-11 -4 -24 1q-11 5 -16 17l-273 716q-8 20 -24 38t-36 32t-42.5 22.5t-44.5 8.5h-333z" />
    <glyph glyph-name="L" unicode="L" horiz-adv-x="1237" 
d="M1105 198q13 0 22 -9t9 -22v-136q0 -13 -9 -22t-22 -9h-1105v1403q0 13 9 22t22 9h135q13 0 23 -9q9 -9 9 -22v-1173q0 -12 9 -23q9 -9 22 -9h876z" />
    <glyph glyph-name="M" unicode="M" horiz-adv-x="1558" 
d="M822 186q-35 -53 -93 -53t-93 53l-424 759q-14 20 -14 -3v-913q0 -13 -10 -21t-22 -8h-135q-13 0 -22 9q-9 8 -9 20v1308q0 35 21.5 60.5t55.5 33.5q74 13 115 -50l523 -936q6 -11 14 -11t14 11l523 936q41 63 115 50q34 -8 55.5 -33.5t21.5 -60.5v-1308q0 -12 -9 -20
q-9 -9 -22 -9h-136q-13 0 -22 9q-9 8 -9 20v913q0 25 -14 3z" />
    <glyph glyph-name="N" unicode="N" horiz-adv-x="1444" 
d="M217 1133q-8 8 -13 8q-7 0 -7 -14v-1096q0 -13 -9 -22t-22 -9h-135q-13 0 -22 9t-9 22v1398q0 35 18 60.5t50 38.5q20 5 35 5q46 0 80 -40l944 -1186q8 -8 12 -8q7 0 7 15v1089q0 13 9 22t22 9h135q13 0 22.5 -9t9.5 -22v-1392q0 -21 -8 -40t-22 -33t-32.5 -22.5
t-39.5 -8.5q-46 0 -82 40z" />
    <glyph glyph-name="O" unicode="O" horiz-adv-x="1249" 
d="M275 0q-58 0 -108 22t-87 59.5t-58.5 87.5t-21.5 107v882q0 58 21.5 108t59 87.5t87.5 59t107 21.5h598q58 0 108 -21.5t87 -59t58.5 -88t21.5 -107.5v-882q0 -58 -21.5 -108t-59 -87.5t-87.5 -59t-107 -21.5h-598zM198 276q0 -32 22.5 -55t54.5 -23h598q32 0 55 23
t23 55v882q0 32 -23 55t-55 23h-598q-33 0 -55 -22.5t-22 -55.5v-882z" />
    <glyph glyph-name="P" unicode="P" horiz-adv-x="1248" 
d="M229 392q-13 0 -22 -9t-9 -22v-330q0 -13 -9 -22q-10 -9 -23 -9h-135q-13 0 -22 9t-9 22v1372v7t1 10t2 9.5t3 4.5h867q58 0 108.5 -22t87.5 -59.5t58 -88t21 -107.5v-488q0 -58 -21.5 -108.5t-59 -88t-87.5 -59t-107 -21.5h-644zM229 1236q-13 0 -22 -10q-9 -9 -9 -22
v-582q0 -13 9 -22t22 -9h644q33 0 55.5 22.5t22.5 55.5v488q0 32 -23 55.5t-55 23.5h-644z" />
    <glyph glyph-name="Q" unicode="Q" horiz-adv-x="1356" 
d="M275 0q-57 0 -107.5 22t-87.5 60t-58.5 88t-21.5 107v881q0 58 21.5 108t59 87.5t87.5 59t107 21.5h598q58 0 108 -21.5t87 -59t58.5 -88t21.5 -107.5v-881q0 -52 -16 -96q-4 -12 -3 -27q3 -13 12 -24l106 -113q9 -10 9 -22t-10 -22l-98 -93q-10 -9 -22 -9t-22 10
l-110 116q-9 9 -23 12q-14 4 -28 1q-17 -5 -34.5 -7.5t-35.5 -2.5h-598zM275 1236q-33 0 -55 -22.5t-22 -55.5v-881q0 -33 22 -56q23 -22 55 -22h498q14 0 15 6q3 7 -6 16l-64 69q-9 11 -9 22q0 12 10 22l98 93q11 9 22 9q12 0 22 -10l68 -72q8 -7 14 -7q8 0 8 15v796
q0 32 -23 55t-55 23h-598z" />
    <glyph glyph-name="R" unicode="R" horiz-adv-x="1249" 
d="M229 445q-13 0 -22 -9t-9 -22v-383q0 -13 -9 -22q-10 -9 -23 -9h-135q-13 0 -22 9t-9 22v1372q0 13 9 22t22 9h842q58 0 108 -22t87 -60t58.5 -88t21.5 -107v-436q0 -84 -45 -152q-7 -11 -7 -25t7 -25q45 -67 45 -152v-336q0 -13 -9 -22t-22 -9h-135q-13 0 -22 9t-9 22
v336q0 32 -23 55t-55 23h-644zM229 1235q-13 0 -22 -9t-9 -22v-529q0 -13 9 -22q9 -10 22 -10h644q16 1 30 7t24.5 16.5t17 24.5t6.5 30v436q0 33 -22.5 55.5t-55.5 22.5h-644z" />
    <glyph glyph-name="S" unicode="S" horiz-adv-x="1249" 
d="M1148 276q0 -58 -21.5 -108t-59 -87.5t-87.5 -59t-107 -21.5h-842q-13 0 -22 9t-9 22v136q0 13 9 22t22 9h842q32 0 55 23t23 55v351q0 32 -23 55t-55 23h-598q-58 0 -108 22t-87 59.5t-58.5 87.5t-21.5 107v177q0 58 21.5 108t59 87.5t87.5 59t107 21.5h842q13 0 22 -9
t9 -22v-136q0 -13 -9 -22t-22 -9h-842q-33 0 -55 -22.5t-22 -55.5v-177q0 -32 22 -55t55 -23h598q58 0 108 -21.5t87 -59t58.5 -88t21.5 -107.5v-351z" />
    <glyph glyph-name="T" unicode="T" horiz-adv-x="1237" 
d="M500 0q-11 0 -22 9q-9 9 -9 22v1174q0 13 -9 22t-22 9h-407q-13 0 -22 9t-9 22v136q0 13 9 22t22 9h1074q13 0 22 -9t9 -22v-136q0 -13 -9 -22t-22 -9h-407q-13 0 -22 -9t-9 -22v-1174q0 -13 -9 -22t-22 -9h-136z" />
    <glyph glyph-name="U" unicode="U" horiz-adv-x="1249" 
d="M873 198q32 0 55 23t23 55v1127q0 13 9 22t22 9h135q13 0 22 -9t9 -22v-1127q0 -58 -21.5 -108t-59 -87.5t-87.5 -59t-107 -21.5h-598q-58 0 -108 22t-87 59.5t-58.5 87.5t-21.5 107v1127q0 13 9 22t22 9h136q12 0 22 -9q9 -9 9 -22v-1127q0 -32 22.5 -55t54.5 -23h598z
" />
    <glyph glyph-name="V" unicode="V" horiz-adv-x="1389" 
d="M633 395q6 -12 11 -12q6 0 12 12l409 1010q6 13 18 20q12 9 25 9h157q13 0 19 -9q5 -9 1 -20l-542 -1337q-24 -54 -78 -66q-5 -1 -10.5 -1.5t-10.5 -0.5t-10 0.5t-10 1.5q-54 12 -78 66l-542 1337q-5 13 1 20q6 9 19 9h157q13 0 25 -9q12 -8 17 -20z" />
    <glyph glyph-name="W" unicode="W" horiz-adv-x="1749" 
d="M1120 466q5 -13 10 -13q4 0 9 13l293 939q4 11 16 21q11 8 25 8h150q13 0 20 -8q6 -9 2 -21l-415 -1329q-21 -60 -80 -74q-5 -1 -10 -1.5t-10 -0.5t-10.5 0.5t-10.5 1.5q-59 14 -80 74l-195 624q-9 24 -18 0l-195 -624q-23 -61 -81 -74q-5 -1 -10 -1.5t-10 -0.5t-10 0.5
t-10 1.5q-59 14 -80 74l-416 1329q-3 12 3 21q5 8 19 8h151q6 0 12.5 -1.5t11.5 -6.5q11 -8 16 -21l294 -939q5 -13 9 -13t9 13l287 915q9 24 18 0z" />
    <glyph glyph-name="X" unicode="X" horiz-adv-x="1504" 
d="M1380 1434q13 0 16 -7q3 -6 -5 -17l-538 -666q-8 -9 -8 -24t8 -24l543 -672q8 -11 5 -17q-4 -7 -17 -7h-199q-13 0 -28 7t-23 17l-412 510q-9 10 -20 10q-10 0 -19 -10l-413 -510q-7 -10 -22.5 -17t-27.5 -7h-200q-13 0 -16 7q-3 8 5 17l543 672q8 11 8 24t-8 24
l-538 666q-9 10 -5 17q3 7 16 7h199q14 0 28 -7q13 -5 23 -17l408 -504q10 -10 19 -10q10 0 20 10l407 504q10 11 24 17q13 7 27 7h200z" />
    <glyph glyph-name="Y" unicode="Y" horiz-adv-x="1493" 
d="M1124 1410q9 11 23 17.5t28 6.5h198q13 0 16 -7q4 -6 -4 -17l-567 -706q-10 -11 -14 -26q-6 -16 -6 -29v-647q0 -1 -9 -1q-5 -1 -10.5 -1h-11.5h-141h-12t-10 1q-9 0 -9 1v653q0 12 -6 29t-14 26l-567 700q-9 10 -5 17q3 7 16 7h200q13 0 27 -7q15 -6 23 -17l410 -505
q9 -10 19 -10q11 0 20 10z" />
    <glyph glyph-name="Z" unicode="Z" horiz-adv-x="1249" 
d="M1148 993q0 -27 -8 -53.5t-23 -49t-35.5 -40.5t-44.5 -30l-811 -362q-28 -13 -28 -44v-185q0 -13 9 -22t22 -9h888q13 0 22 -9t9 -22v-136q0 -13 -9 -22t-22 -9h-960q-33 0 -61.5 12.5t-49.5 33.5t-33.5 49.5t-12.5 61.5v294q0 57 31 103t81 70l810 362q12 6 20.5 18
t8.5 26v175q0 13 -9 22t-22 9h-889q-13 0 -22 9t-9 22v136q0 13 9 22t22 9h960q33 0 61.5 -12t50 -33.5t33.5 -50t12 -61.5v-284z" />
    <glyph glyph-name="bracketleft" unicode="[" horiz-adv-x="637" 
d="M197 54q0 -15 5.5 -28.5t15 -24.5t22.5 -17.5t28 -6.5h238q13 0 22 -9.5t9 -22.5v-135q0 -13 -9 -22t-22 -9h-238q-57 0 -106 22t-85 60t-56.5 87.5t-20.5 105.5v1353q0 56 20 105.5t55 87.5t83 60t104 22h232q13 0 22 -9t9 -22v-135q0 -13 -9 -22t-22 -9h-232
q-15 0 -27 -7t-20.5 -18.5t-13 -25t-4.5 -27.5v-1353z" />
    <glyph glyph-name="backslash" unicode="\" horiz-adv-x="1045" 
d="M4 1645q-3 13 1 23q6 12 18 17l126 47q14 5 24 -1q11 -4 16 -17l752 -2007q4 -11 -1 -24q-7 -12 -18 -16l-126 -48q-14 -3 -24 1q-12 6 -16 18z" />
    <glyph glyph-name="bracketright" unicode="]" horiz-adv-x="637" 
d="M269 1682q57 0 106 -22t85 -59.5t56.5 -87.5t20.5 -106v-1353q0 -56 -20 -105.5t-55 -87.5t-83 -60t-104 -22h-232q-13 0 -22 9t-9 22v135q0 13 9 22.5t22 9.5h232q28 0 45 23q20 23 20 54v1353q0 15 -5.5 29t-15 25t-22.5 17.5t-28 6.5h-238q-13 0 -22 9t-9 22v135
q0 13 9 22t22 9h238z" />
    <glyph glyph-name="asciicircum" unicode="^" horiz-adv-x="726" 
d="M313 862q62 0 95 -63l213 -479q5 -13 1 -24q-5 -12 -17 -17l-123 -55q-12 -5 -24 -1q-12 5 -18 16l-114 258q-5 11 -12 11t-13 -11l-115 -262q-6 -11 -17 -16q-12 -4 -24 0l-124 55q-12 5 -17 17q-4 11 1 24l213 483q28 61 95 64z" />
    <glyph glyph-name="underscore" unicode="_" horiz-adv-x="904" 
d="M31 -242q-13 0 -22 9t-9 22v135q0 13 9 22t22 9h742q13 0 22 -9t9 -22v-135q0 -13 -9 -22t-22 -9h-742z" />
    <glyph glyph-name="grave" unicode="`" horiz-adv-x="423" 
d="M5 1366q-6 14 0 24q4 11 17 17l125 51q12 6 24 0q12 -5 16 -17l131 -318q5 -12 0 -24q-5 -11 -17 -17l-125 -51q-12 -4 -24 0q-11 5 -17 17z" />
    <glyph glyph-name="a" unicode="a" horiz-adv-x="1114" 
d="M0 277q0 58 22 108t59.5 87t87.5 58.5t107 21.5h510q13 0 22 9q9 11 9 22v54q0 32 -23 55t-55 23h-475q-13 0 -22 9q-10 9 -10 22v135q0 13 10 22q9 9 22 9h475q57 0 107.5 -21.5t87.5 -59t58.5 -87.5t21.5 -107v-606q0 -13 -9 -22t-22 -9h-707q-57 0 -107.5 21.5t-88 59
t-59 87.5t-21.5 107v2zM786 197q13 0 22 9q9 11 9 22v96q0 13 -9 22t-22 9h-510q-32 0 -55 -23t-23 -55v-2q0 -32 23 -55t55 -23h510z" />
    <glyph glyph-name="b" unicode="b" 
d="M1026 275q0 -57 -21.5 -107.5t-59 -87.5t-87.5 -58.5t-107 -21.5h-720q-13 0 -22 9t-9 22v1336q0 13 9 22t22 9h135q13 0 22 -9q10 -9 10 -22v-424q0 -13 9 -22t22 -9h522q57 0 107.5 -21.5t87.5 -59t58.5 -87.5t21.5 -107v-362zM229 715q-13 0 -22 -9.5t-9 -22.5v-455
q0 -13 9 -22t22 -9h522q32 0 55 23t23 55v362q0 32 -23 55t-55 23h-522z" />
    <glyph glyph-name="c" unicode="c" 
d="M275 0q-57 0 -107.5 21.5t-87.5 59t-58.5 87.5t-21.5 107v362q0 57 21.5 107.5t59 87.5t87.5 58.5t107 21.5h708q13 0 22 -9t9 -22v-135q0 -13 -9 -22t-22 -9h-708q-32 0 -55 -23t-23 -55v-362q0 -32 23 -55t55 -23h720q13 0 22 -9t9 -22v-135q0 -13 -9 -22t-22 -9h-720z
" />
    <glyph glyph-name="d" unicode="d" 
d="M275 0q-58 0 -108 21.5t-87 59t-58.5 87.5t-21.5 107v362q0 58 21.5 108t59 87t87.5 58.5t107 21.5h522q13 0 22 9t9 22v424q0 13 9 22t22 9h136q13 0 22 -9t9 -22v-1336q0 -13 -9 -22t-22 -9h-720zM275 715q-32 0 -55 -23t-23 -55v-362q0 -32 23 -55t55 -23h522
q13 0 22 9t9 22v455q0 13 -9 22.5t-22 9.5h-522z" />
    <glyph glyph-name="e" unicode="e" horiz-adv-x="1127" 
d="M276 0q-57 0 -107.5 21.5t-88 59t-59 87.5t-21.5 107v362q0 57 22 107.5t59.5 87.5t87.5 58.5t107 21.5h463q54 0 104 -19.5t88.5 -54t61 -81.5t22.5 -103q0 -57 -23 -104.5t-61 -82t-88 -53.5t-104 -19h-510q-13 0 -22 -9t-9 -22v-89q0 -32 23 -55t55 -23h720
q12 0 22 -9q9 -9 9 -22v-135q0 -13 -9 -22q-10 -9 -22 -9h-720zM276 715q-32 0 -55 -23t-23 -55v-22q0 -11 10.5 -17t20.5 -6h510q13 0 26.5 4t25 12t19 19.5t7.5 26.5q0 14 -7.5 25.5t-19 19.5t-25.5 12t-26 4h-463z" />
    <glyph glyph-name="f" unicode="f" horiz-adv-x="882" 
d="M229 355q-13 0 -22 -9t-9 -22v-748q0 -13 -9 -22t-22 -9h-136q-13 0 -22 9t-9 22v1061q0 58 22 108t59.5 87t87.5 58.5t107 21.5h475q13 0 22 -9t9 -22v-135q0 -13 -9 -22t-22 -9h-475q-32 0 -55 -23t-23 -55v-54q0 -11 9 -22q9 -9 22 -9h388q13 0 22 -9t9 -22v-135
q0 -13 -9 -22t-22 -9h-388z" />
    <glyph glyph-name="g" unicode="g" 
d="M0 633q0 57 21.5 107.5t59 87.5t87.5 58.5t107 21.5h476q57 0 107.5 -21.5t87.5 -59t58.5 -87.5t21.5 -107v-813q0 -57 -21.5 -107.5t-59 -87.5t-87.5 -58.5t-107 -21.5h-720q-13 0 -22 9t-9 22v135q0 13 9 22t22 9h720q32 0 54.5 23t22.5 55v149q0 11 -9 22q-9 9 -22 9
h-522q-57 0 -107.5 21.5t-87.5 59t-58.5 87.5t-21.5 107v358zM828 633q0 32 -22 55q-23 22 -55 22h-476q-32 0 -55 -22.5t-23 -54.5v-358q0 -32 23 -55t55 -23h522q13 0 22 9t9 22v405z" />
    <glyph glyph-name="h" unicode="h" horiz-adv-x="1127" 
d="M198 933q0 -12 9 -20q10 -6 22 -5q11 2 23 3t24 1h475q57 0 107.5 -21.5t88 -59t59 -87.5t21.5 -107v-606q0 -13 -9 -22t-22 -9h-136q-13 0 -22 9t-9 22v606q0 32 -23 55t-55 23h-475q-12 0 -25.5 -4t-25.5 -11.5t-19.5 -18t-7.5 -24.5v-626q0 -13 -9 -22t-22 -9h-135
q-13 0 -22.5 9t-9.5 22v1336q0 13 9.5 22t22.5 9h135q13 0 22 -9t9 -22v-434z" />
    <glyph glyph-name="i" unicode="i" horiz-adv-x="298" 
d="M167 1126h-136q-13 0 -22 9t-9 22v210q0 13 9 22t22 9h136q13 0 22 -9t9 -22v-210q0 -13 -9 -22t-22 -9zM31 0q-13 0 -22 9t-9 22v846q0 12 9 22q9 9 22 9h136q13 0 22 -9q9 -10 9 -22v-846q0 -13 -9 -22t-22 -9h-136z" />
    <glyph glyph-name="j" unicode="j" horiz-adv-x="638" 
d="M372 1126q-13 0 -22 9t-9 22v210q0 13 9 22t22 9h135q13 0 22 -9t9 -22v-210q0 -13 -9 -22t-22 -9h-135zM32 -455q-13 0 -22.5 9t-9.5 22v135q0 13 9.5 22t22.5 9h237q15 0 28.5 6.5t23 17.5t15 25t5.5 29v1057q0 13 9 22t22 9h135q13 0 22 -9t9 -22v-1057
q0 -57 -21 -107t-57 -87.5t-85 -59t-106 -21.5h-237z" />
    <glyph glyph-name="k" unicode="k" horiz-adv-x="898" 
d="M642 967q10 10 21 10q11 1 23 -7l101 -90q10 -12 10 -22q2 -12 -8 -22l-245 -276q-16 -21 10 -28q47 -11 86.5 -35.5t68 -58.5t44.5 -77t16 -92v-238q0 -13 -9 -22t-22 -9h-135q-13 0 -22 9t-9 22v238q0 15 -6.5 28.5t-17.5 23t-25 15t-29 5.5h-295v-3q-1 -1 -1 -7
q-1 -5 -1 -10v-12v-278q0 -13 -9 -22t-22 -9h-135q-13 0 -22 9t-9 22v1336q0 13 9 22t22 9h135q13 0 22 -9t9 -22v-798v-11.5t1 -10.5q0 -5 1 -7v-2h2q16 1 37 12.5t42 27t39.5 32t28.5 27.5z" />
    <glyph glyph-name="l" unicode="l" horiz-adv-x="298" 
d="M167 1398q12 0 22 -9q9 -9 9 -22v-1336q0 -13 -9 -22q-10 -9 -22 -9h-136q-13 0 -22 9t-9 22v1336q0 13 9 22t22 9h136z" />
    <glyph glyph-name="m" unicode="m" horiz-adv-x="1167" 
d="M357 916q85 0 152 -46q14 -7 25 -7t25 7q67 46 151 46h82q57 0 107.5 -21.5t87.5 -59t58.5 -87.5t21.5 -107v-610q0 -13 -9 -22t-22 -9h-135q-13 0 -22 9t-9 22v610q0 32 -23 54.5t-55 22.5h-82q-32 0 -55 -22q-22 -23 -22 -55v-610q0 -13 -9.5 -22t-22.5 -9h-135
q-13 0 -22 9t-9 22v610q0 33 -23 55t-55 22h-81q-33 0 -55.5 -22t-22.5 -55v-610q0 -13 -9 -22t-22 -9h-136q-13 0 -22 9t-9 22v610q0 58 22 108t59.5 87t87.5 58.5t107 21.5h81z" />
    <glyph glyph-name="n" unicode="n" 
d="M828 641q0 32 -22 55q-23 22 -55 22h-476q-32 0 -55 -22.5t-23 -54.5v-610q0 -13 -9 -22t-22 -9h-135q-13 0 -22 9t-9 22v610q0 57 21.5 107.5t59 87.5t87.5 58.5t107 21.5h476q57 0 107.5 -21.5t87.5 -59t58.5 -87.5t21.5 -107v-610q0 -13 -9 -22t-22 -9h-135
q-13 0 -22 9q-10 9 -10 22v610z" />
    <glyph glyph-name="o" unicode="o" 
d="M750 916q57 0 107.5 -21.5t88 -59t59 -87.5t21.5 -107v-366q0 -58 -21.5 -108t-59 -87t-88 -58.5t-107.5 -21.5h-475q-58 0 -108 21.5t-87 59t-58.5 87.5t-21.5 107v366q0 58 21.5 108t59 87t87.5 58.5t107 21.5h475zM828 641q0 33 -22.5 55t-55.5 22h-475
q-32 0 -55 -22.5t-23 -54.5v-366q0 -32 23 -55t55 -23h475q32 0 55 23t23 55v366z" />
    <glyph glyph-name="p" unicode="p" horiz-adv-x="1127" 
d="M229 0q-13 0 -22 -9q-9 -11 -9 -22v-385q0 -13 -9 -22t-22 -9h-136q-11 0 -22 9q-9 9 -9 22v1329q0 1 9 2q5 1 10.5 1h11.5h720q57 0 107.5 -21.5t88 -59t59 -87.5t21.5 -107v-366q0 -57 -22 -107.5t-59.5 -87.5t-87.5 -58.5t-107 -21.5h-522zM829 641q0 33 -23 55
t-55 22h-522q-13 0 -22 -9t-9 -22v-459q0 -13 9 -22t22 -9h522q32 0 55 23t23 55v366z" />
    <glyph glyph-name="q" unicode="q" 
d="M276 0q-58 0 -108 21.5t-87.5 59t-59 87.5t-21.5 107v366q0 58 22 108t59.5 87t87.5 58.5t107 21.5h719h12t10 -1q9 -1 9 -2v-1329q0 -13 -9 -22t-22 -9h-135q-13 0 -22 9t-9 22v385q0 11 -9 22q-9 9 -22 9h-522zM276 718q-33 0 -55.5 -22t-22.5 -55v-366q0 -32 23 -55
t55 -23h522q13 0 22 9t9 22v459q0 13 -9 22t-22 9h-522z" />
    <glyph glyph-name="r" unicode="r" horiz-adv-x="760" 
d="M275 718q-32 0 -55 -22q-22 -23 -22 -55v-610q0 -13 -9 -22q-10 -9 -22 -9h-136q-13 0 -22 9t-9 22v610q0 57 21.5 107.5t59 87.5t87.5 58.5t107 21.5h354q13 0 22 -9t9 -22v-136q0 -11 -9 -22q-9 -9 -22 -9h-354z" />
    <glyph glyph-name="s" unicode="s" horiz-adv-x="1127" 
d="M751 197q32 0 55 23t23 55v28q0 32 -23 55t-55 23h-475q-56 0 -106 20.5t-88 56.5t-60 85t-22 105q0 57 22.5 106t60 85t88 56.5t105.5 20.5h720q12 0 22 -9q9 -9 9 -22v-136q0 -11 -9 -22q-10 -9 -22 -9h-720q-30 0 -54 -19t-24 -51q0 -15 6.5 -28t17.5 -22.5t25 -14.5
t29 -5h475q57 0 107.5 -21.5t88 -59t59 -87.5t21.5 -107v-28q0 -57 -22 -107.5t-59.5 -87.5t-87.5 -58.5t-107 -21.5h-720q-11 0 -22 9q-9 9 -9 22v135q0 13 9 22q11 9 22 9h720z" />
    <glyph glyph-name="t" unicode="t" horiz-adv-x="900" 
d="M800 749q0 -11 -9 -22q-9 -9 -22 -9h-288q-13 0 -22 -9t-9 -22v-412q0 -15 5.5 -29t15 -25t22.5 -17.5t28 -6.5h238q13 0 22 -9t9 -22v-135q0 -13 -9 -22t-22 -9h-238q-57 0 -106 22t-85 59.5t-56.5 87.5t-20.5 106v412q0 13 -9.5 22t-22.5 9h-190q-13 0 -22 9
q-9 11 -9 22v136q0 13 9 22t22 9h190q13 0 22.5 9t9.5 22v429q0 13 9 22t22 9h135q13 0 22 -9t9 -22v-429q0 -13 9 -22t22 -9h288q13 0 22 -9t9 -22v-136z" />
    <glyph glyph-name="u" unicode="u" 
d="M1026 275q0 -57 -21.5 -107.5t-59 -87.5t-87.5 -58.5t-107 -21.5h-476q-57 0 -107.5 21.5t-87.5 59t-58.5 87.5t-21.5 107v610q0 13 9 22t22 9h135q13 0 22 -9q10 -9 10 -22v-610q0 -32 22.5 -55t54.5 -23h476q32 0 55 23t23 55v610q0 13 9 22t22 9h135q13 0 22 -9t9 -22
v-610z" />
    <glyph glyph-name="v" unicode="v" horiz-adv-x="972" 
d="M851 861q12 -5 17 -17q5 -11 -1 -24l-334 -757q-24 -49 -75 -61q-5 -1 -10 -1.5t-10 -0.5t-10 0.5t-10 1.5q-53 12 -75 61l-338 757q-6 13 -1 24q5 12 17 17l124 55q12 5 23 0q12 -5 18 -16l95 -218l144 -315q8 -12 13 -12q6 0 12 12l141 315l95 218q6 11 18 16
q11 5 23 0z" />
    <glyph glyph-name="w" unicode="w" horiz-adv-x="1659" 
d="M533 63q-25 -51 -75 -61q-5 -1 -10 -1.5t-10 -0.5q-32 0 -56.5 17t-38.5 46l-338 757q-4 13 0 25q5 12 16 16l124 55q13 5 24 1q11 -5 17 -17l95 -218l144 -315q8 -12 13 -12q6 0 12 12l141 315l95 218q8 15 21 18t28 3h102q11 0 21 -5t15 -16l95 -218l144 -315
q8 -12 13 -12q6 0 12 12l141 315l95 218q6 13 18 17q9 4 23 -1l124 -55q12 -5 17 -16q4 -10 -1 -25l-334 -757q-25 -51 -75 -61q-5 -1 -10 -1.5t-10 -0.5q-32 0 -56.5 17t-38.5 46l-250 559z" />
    <glyph glyph-name="x" unicode="x" horiz-adv-x="964" 
d="M582 491q-9 -10 -9 -23q0 -12 9 -23l281 -322q2 -2 -4 -10q-4 -6 -15 -16l-102 -89q-8 -8 -22 -8q-13 2 -21 11l-105 118l-144 166q-10 10 -20 10q-11 0 -21 -10l-242 -277q-10 -10 -22 -10q-12 -2 -22 8l-102 89q-11 10 -15 16q-6 7 -4 10l4 4l1 2l271 308q8 11 8 23
t-8 23l-250 287l-15 16q-6 9 -3 18q3 10 12 19l102 89q11 9 23 8q11 0 21 -10l123 -140l118 -137q10 -10 21 -10q10 0 20 10l243 277q10 10 21 10q12 2 22 -8l102 -89q11 -9 12 -19q3 -10 -3 -18q-3 -4 -5.5 -6.5t-4.5 -5.5l-4 -4z" />
    <glyph glyph-name="y" unicode="y" horiz-adv-x="970" 
d="M870 -180q0 -57 -21.5 -107.5t-59 -87.5t-87.5 -58.5t-107 -21.5h-564q-13 0 -22 9t-9 22v135q0 13 9 22t22 9h564q32 0 55 23t23 55v149q0 11 -9 22q-9 9 -22 9h-367q-57 0 -107.5 21.5t-87.5 59t-58.5 87.5t-21.5 107v606q0 13 9 22t22 9h135q13 0 22 -9t9 -22v-606
q0 -32 23 -55t55 -23h367q13 0 22 9t9 22v653q0 13 9 22t22 9h135q13 0 22 -9t9 -22v-1061z" />
    <glyph glyph-name="z" unicode="z" horiz-adv-x="1155" 
d="M1024 197q13 0 22 -9t9 -22v-135q0 -13 -9 -22t-22 -9h-867q-33 0 -61.5 12t-50 33.5t-33.5 50t-12 61.5v136q0 29 9.5 56t27 49.5t41 39t50.5 24.5l699 198q9 3 19.5 10.5t10.5 18.5t-11 16t-20 5h-795q-13 0 -22 9t-9 22v136q0 12 9 22q9 9 22 9h867q33 0 61.5 -12.5
t49.5 -33.5t33.5 -49.5t12.5 -61.5v-99q0 -29 -9.5 -56t-27 -49t-41 -38.5t-50.5 -25.5l-699 -198q-13 -4 -22 -15q-8 -11 -8 -25v-17q0 -13 9 -22t22 -9h795z" />
    <glyph glyph-name="braceleft" unicode="{" horiz-adv-x="606" 
d="M422 1513q-146 -60 -171 -119q-10 -29 5 -73q8 -22 17 -45t21 -48q32 -63 54 -140q24 -80 6 -167q-18 -88 -113 -174q-10 -10 -10 -20q0 -11 10 -20q95 -86 113 -174t-6 -167q-23 -81 -54 -140q-12 -25 -21 -48t-17 -45q-15 -44 -5 -74q26 -60 171 -118l62 -25
q12 -5 17 -17q5 -11 0 -23l-50 -125q-4 -10 -16 -17q-12 -5 -24 0l-62 25q-228 90 -280 228q-31 88 -9 170q11 42 25 79t31 72q17 34 28.5 63t17.5 54q13 49 -11 91t-103 89l-24 14q-12 7 -18 20t-6 26v124q0 13 6 26q7 13 18 19q5 3 9 6t8 5t5 3q1 0 2 1q80 48 103 88
q24 43 11 92q-6 24 -17.5 53t-28.5 64t-31 72t-25 79q-23 81 9 170q53 138 280 227l62 25q10 5 24 0q11 -5 16 -17l50 -124q5 -12 0 -24q-5 -11 -17 -16z" />
    <glyph glyph-name="bar" unicode="|" horiz-adv-x="298" 
d="M31 -363q-13 0 -22 9t-9 22v2015q0 13 9 22q9 10 22 10h136q13 0 22 -10q9 -9 9 -22v-2015q0 -13 -9 -22t-22 -9h-136z" />
    <glyph glyph-name="braceright" unicode="}" horiz-adv-x="606" 
d="M436 1467q32 -90 10 -170q-11 -42 -25 -79t-32 -72q-17 -35 -28 -64t-18 -53q-14 -50 12 -92q24 -42 103 -88l24 -15q11 -7 17 -19q7 -13 7 -26v-124q0 -15 -7 -26q-6 -14 -17 -20q-5 -3 -9 -5.5t-8 -4.5t-5 -3l-2 -1q-78 -46 -103 -89q-25 -42 -12 -91q14 -52 46 -117
q18 -35 32 -72t25 -79q22 -80 -10 -170q-52 -138 -279 -228l-62 -25q-13 -4 -24 0q-11 6 -17 17l-50 125q-5 13 1 23q5 13 17 17l62 25q144 59 170 118q11 31 -4 74q-15 44 -39 93q-30 59 -54 140q-23 77 -5 167t113 174q10 10 10 20q0 8 -10 20q-95 84 -113 174
q-18 89 5 167q23 77 54 140q24 50 39 93t4 73q-25 59 -170 119l-62 25q-12 4 -17 16q-6 11 -1 24l50 124q7 13 17 17q13 5 24 0l62 -25q226 -88 279 -227z" />
    <glyph glyph-name="asciitilde" unicode="~" horiz-adv-x="1113" 
d="M730 627l1 1q1 0 1.5 0.5t1.5 0.5q2 2 4 3.5t5 4.5q37 46 56 101l25 63q4 11 16 18q12 5 24 0l126 -49q11 -4 18 -16q5 -12 0 -24l-24 -63q-16 -42 -39.5 -84.5t-54.5 -76.5t-71 -55.5t-91 -21.5q-37 0 -73 12.5t-69 32t-64 44t-58 47.5q-22 18 -44 35t-45 33
q-45 32 -75 29q-4 0 -17 -8q-10 -7 -20.5 -20t-19.5 -27t-17 -28.5t-13 -25.5l-29 -61q-6 -11 -18 -16q-11 -4 -24 1l-122 59q-11 6 -16 18q-3 13 2 24l29 61q21 43 47 83t59.5 70.5t75 49t92.5 18.5q65 0 127 -34q55 -31 104 -69t97 -78q14 -11 27.5 -20.5t27.5 -17.5
q24 -16 38 -14z" />
    <glyph glyph-name="exclamdown" unicode="&#xa1;" horiz-adv-x="386" 
d="M35 1277v101q0 24 17 41t41 17h100q24 0 41 -17t17 -41v-101q0 -24 -17 -41t-41 -17h-100q-24 0 -41 17t-17 41zM33 1057q2 24 19 41t41 17h100q25 0 41 -17q17 -16 19 -41l33 -999q0 -24 -15.5 -41t-40.5 -17h-173q-25 0 -41 17t-16 41z" />
    <glyph glyph-name="cent" unicode="&#xa2;" 
d="M643 995q-13 0 -22 -9t-9 -22v-420q0 -13 9 -22t22 -9h352q13 0 22 -9t9 -22v-135q0 -13 -9 -22t-22 -9h-352q-13 0 -22 -10q-9 -9 -9 -22v-213q0 -13 -9 -22t-22 -9h-135q-13 0 -22 9q-10 9 -10 22v213q0 13 -9 22q-9 10 -22 10h-108q-58 0 -108 21.5t-87 59t-58.5 87.5
t-21.5 107v326q0 57 21.5 107.5t59 88t87.5 59t107 21.5h108q13 0 22 9t9 22v148q0 13 10 22q9 10 22 10h135q13 0 22 -10q9 -9 9 -22v-148q0 -13 9 -22t22 -9h340q13 0 22 -9q9 -10 9 -22v-136q0 -13 -9 -22t-22 -9h-340zM198 591q0 -16 6 -30t16.5 -24.5t24.5 -17t30 -6.5
h108q13 0 22 9t9 22v420q0 13 -9 22t-22 9h-108q-16 0 -30 -6.5t-24.5 -17t-16.5 -24.5t-6 -30v-326z" />
    <glyph glyph-name="sterling" unicode="&#xa3;" horiz-adv-x="1335" 
d="M1204 198q13 0 22 -9t9 -22v-136q0 -13 -9 -22t-22 -9h-952q-13 0 -22 9t-9 22v467q0 13 -9 22q-9 10 -22 10h-159q-13 0 -22 9t-9 22v135q0 13 9 22t22 9h159q13 0 22 9t9 22v397q0 57 22 107.5t59.5 88t87.5 59t107 21.5h327q13 0 22 -10q9 -9 9 -22v-135q0 -13 -9 -22
t-22 -9h-327q-32 0 -55 -23t-23 -55v-397q0 -13 9 -22t22 -9h168q13 0 22 -9t9 -22v-135q0 -13 -9 -22t-22 -9h-168q-13 0 -22 -10q-9 -9 -9 -22v-269q0 -13 9 -22t22 -9h754z" />
    <glyph glyph-name="currency" unicode="&#xa4;" horiz-adv-x="1285" 
d="M1048 1221q10 8 23 7q12 -2 20 -11l86 -106q7 -10 6 -22q-2 -14 -11 -21l-176 -143q-9 -8 -14 -22q-3 -13 0 -27q12 -37 12 -79v-143q0 -41 -12 -79q-3 -13 0 -26q4 -15 14 -23l176 -142q9 -8 11 -21q2 -12 -6 -23l-86 -105q-7 -10 -20 -12q-13 0 -23 7l-191 154
q-10 8 -25 10q-14 3 -28 -2q-39 -13 -86 -13h-252q-47 0 -86 13q-13 5 -27 2q-16 -2 -26 -10l-190 -154q-10 -7 -23 -7q-12 2 -21 12l-85 105q-9 10 -7 23q1 11 11 21l176 142q11 10 14 23q4 13 0 26q-6 19 -8.5 39t-2.5 40v143q0 21 2.5 40.5t8.5 38.5q5 14 0 27
q-3 12 -14 22l-176 143q-10 8 -11 21q-2 12 7 22l85 106q10 10 21 11q13 2 23 -7l190 -154q12 -9 26 -10q7 -1 14 -0.5t13 2.5q42 14 86 14h252q44 0 86 -14q11 -4 28 -2q13 1 25 10zM466 576h252q32 0 55 23t23 55v143q0 33 -23 55q-22 23 -55 23h-252q-32 0 -55 -23
t-23 -55v-143q0 -32 23 -55t55 -23z" />
    <glyph glyph-name="yen" unicode="&#xa5;" horiz-adv-x="1506" 
d="M997 366q13 0 22 -9q9 -10 9 -22v-136q0 -13 -9 -22t-22 -9h-161q-13 0 -22 -9t-9 -22v-108q0 -13 -9 -22q-9 -10 -22 -10h-141q-13 0 -22 10q-9 9 -9 22v108q0 13 -9 22t-22 9h-161q-13 0 -22 9t-9 22v136q0 12 9 22q9 9 22 9h161q13 0 22 9t9 22v33q0 13 -9 22t-22 9
h-161q-13 0 -22 9t-9 22v136q0 12 9 22q9 9 22 9h161q3 0 8 0.5t10 1.5t9 3.5t4 6.5q0 6 -8 18.5t-12 17.5l-574 708q-8 11 -5 17q3 7 16 7h200q13 0 28 -7t23 -17l416 -514q10 -10 19 -10q10 0 20 10l413 514q8 10 22.5 17t27.5 7h199q13 0 16 -7q3 -8 -4 -17l-575 -714
q-4 -5 -7.5 -10t-5.5 -10q-6 -10 -6 -13q0 -4 9 -7q5 -1 10 -1.5t12 -0.5h161q13 0 22 -9q9 -10 9 -22v-136q0 -13 -9 -22t-22 -9h-161q-13 0 -22 -9t-9 -22v-33q0 -13 9 -22t22 -9h161z" />
    <glyph glyph-name="brokenbar" unicode="&#xa6;" horiz-adv-x="298" 
d="M31 691q-11 0 -22 9q-9 9 -9 22v961q0 13 9 22.5t22 9.5h136q13 0 22 -10q9 -9 9 -22v-961q0 -13 -9 -22t-22 -9h-136zM31 448h136q13 0 22 -9t9 -22v-749q0 -13 -9 -22t-22 -9h-136q-11 0 -22 9q-9 9 -9 22v749q0 13 9 22q11 9 22 9z" />
    <glyph glyph-name="section" unicode="&#xa7;" horiz-adv-x="970" 
d="M870 391q0 -54 -24 -97.5t-63 -74t-88.5 -47t-99.5 -16.5h-564q-13 0 -22 9t-9 22v135q0 13 9 22t22 9h564q36 0 57 15t21 23v19q0 8 -10 14q-7 5 -22 5h-365q-24 0 -43 4q-9 2 -15.5 3t-11.5 2q-1 1 -4 1h-1t-3 1l-1 1l-1 1h-2q-5 1 -11 3.5t-14 5.5q-39 17 -70 43
t-53 58.5t-34 71.5t-12 81v22q0 30 6 57q2 7 2.5 12t1.5 10q0 8 -3 8q-2 0 -5 9q-1 5 -1.5 10.5t-0.5 11.5v205q0 55 24.5 98.5t63.5 74t88.5 47t99.5 16.5h563q13 0 22 -9q9 -10 9 -22v-136q0 -13 -9 -22t-22 -9h-563q-37 0 -57 -15q-21 -13 -21 -23v-19q0 -8 9 -14
q10 -5 22 -5h366q21 0 42 -3q9 -2 16 -3t12 -3q3 -1 5 -1h1l6 -2q4 -2 10 -4t14 -6q39 -16 70.5 -42t53 -59t33.5 -72t12 -81v-21q0 -29 -6 -58q-3 -13 -3 -21q-1 -9 2 -9q4 0 5 -9q2 -5 2 -10.5v-11.5v-205zM198 705q0 -33 19.5 -50.5t51.5 -17.5h326q32 0 55 23t23 55v21
q0 21 -10.5 39t-31.5 24q-14 5 -30 5h-325q-33 0 -55.5 -22t-22.5 -55v-22z" />
    <glyph glyph-name="dieresis" unicode="&#xa8;" horiz-adv-x="514" 
d="M134 1309q20 0 36 -14q14 -16 14 -35v-86q0 -21 -15 -35t-35 -14h-85q-20 0 -34 15q-15 14 -15 34v86q0 20 14.5 34.5t34.5 14.5h85zM364 1309q20 0 36 -14q14 -16 14 -35v-86q0 -21 -15 -35t-35 -14h-85q-20 0 -34 15q-15 14 -15 34v86q0 20 14.5 34.5t34.5 14.5h85z
" />
    <glyph glyph-name="copyright" unicode="&#xa9;" horiz-adv-x="840" 
d="M370 745q-75 0 -142.5 27.5t-118 75.5t-80 113t-29.5 141t30 141.5t81 113.5t118 75t141 27q75 0 142 -27.5t117.5 -75.5t80.5 -113.5t30 -140.5q0 -77 -30 -142.5t-81 -113t-118 -74.5t-141 -27zM446 1309q-36 12 -76 12q-25 0 -49.5 -4.5t-46.5 -15.5q-8 -4 -3 -4
q2 1 7 1h166q13 0 13 3q1 3 -11 8zM589 1039q0 -5 3 1q3 4 5 12.5t3.5 18t2 18t0.5 13.5t-1 15.5t-3 22t-4.5 21.5t-6.5 14q-3 5 -3 -1q0 -5 -9 -10q-9 -3 -22 -3h-235q-13 0 -22 -10q-9 -9 -9 -22v-47q0 -13 9 -22t22 -9h239q13 0 22 -3q9 -4 9 -9zM151 1174l-1 -2
q0 1 -2 -5q-5 -14 -8 -32.5t-3 -32.5t3 -34t9 -32q2 -8 2 -3v141zM268 904q50 -22 102 -22q49 0 92 18q11 6 11 10q-2 4 -14 4h-181h-9.5t-9.5 1q-16 2 9 -11z" />
    <glyph glyph-name="ordfeminine" unicode="&#xaa;" horiz-adv-x="802" 
d="M275 715q-49 0 -98 14.5t-88.5 42.5t-64 69.5t-24.5 96.5q0 94 80 158q79 64 195 64h198q13 0 20 9q8 9 3 21q-24 43 -70 43h-252q-13 0 -22 9t-9 22v135q0 13 9 22q9 10 22 10h252q57 0 106.5 -21.5t86.5 -58t59 -86t24 -105.5v-414q0 -13 -9 -22t-22 -9h-396zM504 938
q0 11 -9 17q-10 8 -22 8h-198q-6 0 -16 -1t-20.5 -3.5t-18 -7.5t-7.5 -13q0 -9 7.5 -14t17.5 -8t20.5 -3.5t16.5 -0.5h198q11 0 21 7t10 19z" />
    <glyph glyph-name="guillemotleft" unicode="&#xab;" horiz-adv-x="1189" 
d="M568 778q7 -10 5 -23q-3 -12 -14 -20l-257 -165q-10 -7 -10 -16q0 -10 11 -17l260 -165q12 -8 13 -20q3 -13 -4 -23l-72 -115q-8 -12 -20 -13q-13 -3 -23 4l-408 258q-47 33 -49 90q2 58 49 89l403 259q11 7 24 5q11 -3 19 -14zM1078 778q7 -10 5 -23q-3 -12 -14 -20
l-257 -165q-10 -7 -10 -16q0 -10 11 -17l260 -165q12 -8 13 -20q3 -13 -4 -23l-72 -115q-8 -12 -20 -13q-13 -3 -23 4l-408 258q-47 33 -49 90q2 58 49 89l403 259q11 7 24 5q11 -3 19 -14z" />
    <glyph glyph-name="logicalnot" unicode="&#xac;" horiz-adv-x="904" 
d="M31 758q-13 0 -22 9t-9 22v135q0 13 9 22t22 9h742q13 0 22 -9t9 -22v-342q0 -13 -9 -22t-22 -9h-136q-13 0 -22 9t-9 22v176h-575z" />
    <glyph glyph-name="registered" unicode="&#xae;" horiz-adv-x="1162" 
d="M1062 810q0 -112 -41 -212t-112 -175.5t-168 -119.5t-210 -44q-76 0 -144.5 20.5t-127.5 57t-107 87.5t-81.5 112.5t-52 131t-18.5 142.5q0 112 41 212t112 175.5t168.5 119.5t209.5 44q73 0 140.5 -19t126.5 -55t108 -86.5t85 -113.5q71 -123 71 -277zM811 608
q0 -14 5 -15t12 9q60 93 60 208q0 75 -27 143.5t-74.5 120.5t-113 82.5t-142.5 30.5q-85 0 -158 -40q-11 -6 -10 -11q1 -4 14 -4h170q50 0 97.5 -17t84.5 -48.5t59.5 -75t22.5 -96.5q0 -63 -35 -118q-8 -11 -6 -23q1 -13 10 -23q31 -37 31 -80v-43zM252 1013q0 12 -5 14
q-6 1 -13 -9q-60 -93 -60 -208t60 -208q7 -10 13 -9q5 2 5 15v405zM547 832q13 0 28.5 4t29 12t22.5 19.5t9 27.5q0 15 -9 27t-22.5 19.5t-29 11.5t-28.5 4h-90q-11 0 -22 -9q-9 -9 -9 -22v-63q0 -13 9 -22q11 -9 22 -9h90zM373 473q72 -39 158 -39q87 0 160 40q11 7 10 11
t-14 4h-20q-13 0 -22 10q-9 9 -9 22v71q0 12 -8 25q-9 12 -22 15q-12 2 -27 3.5t-32 1.5h-90q-11 0 -22 -9q-9 -9 -9 -22v-86q0 -13 -9 -22t-22 -9h-18q-12 0 -14 -5t10 -11z" />
    <glyph glyph-name="macron" unicode="&#xaf;" horiz-adv-x="1004" 
d="M31 1248q-13 0 -22 9t-9 22v135q0 13 9 22t22 9h842q13 0 22 -9t9 -22v-135q0 -13 -9 -22t-22 -9h-842z" />
    <glyph glyph-name="degree" unicode="&#xb0;" horiz-adv-x="578" 
d="M478 1240q0 -48 -20.5 -87.5t-54 -67.5t-76.5 -43.5t-88 -15.5t-88 15.5t-76.5 43.5t-54 67.5t-20.5 87.5t20.5 87.5t54 67.5t76.5 43.5t88 15.5t88 -15.5t76.5 -43.5t54 -67.5t20.5 -87.5zM125 1239q0 -20 13 -32t31.5 -18.5t38.5 -8.5t35 -2t35 2t38.5 8.5t31.5 18.5
t13 32t-13 32t-31.5 18t-39 8t-34.5 2t-34.5 -2t-39 -8t-31.5 -18t-13 -32z" />
    <glyph glyph-name="plusminus" unicode="&#xb1;" horiz-adv-x="762" 
d="M263 532q-12 0 -21 9q-10 9 -10 22v174q0 13 -9 22t-22 9h-170q-12 0 -21 10q-10 9 -10 22v135q0 13 10 22q9 9 21 9h170q13 0 22 9t9 22v175q0 13 10 22q9 9 21 9h136q13 0 22 -9t9 -22v-175q0 -13 9 -22t22 -9h170q13 0 22 -9t9 -22v-135q0 -13 -9 -22q-9 -10 -22 -10
h-170q-13 0 -22 -9t-9 -22v-174q0 -13 -9 -22t-22 -9h-136zM31 210q-13 0 -22 9t-9 22v135q0 13 9 23q9 9 22 9h600q13 0 22 -9q9 -10 9 -23v-135q0 -13 -9 -22t-22 -9h-600z" />
    <glyph glyph-name="twosuperior" unicode="&#xb2;" horiz-adv-x="598" 
d="M498 1296q0 -38 -19 -76t-48 -71.5t-64 -61.5t-67 -46q-36 -22 -60 -45q-9 -9 -6 -16q2 -7 15 -7h218q13 0 22 -9t9 -22v-135q0 -13 -9 -22t-22 -9h-436q-13 0 -22 9t-9 22v166q1 0 1 4q6 34 26.5 68.5t48.5 65t60.5 56.5t61.5 43q7 5 17.5 11.5t20.5 14.5t19 16.5
t13 16.5q1 7 -4 8h-4l-7 1h-4h-218q-13 0 -22 9t-9 22v135q0 13 9 22t22 9h218q40 0 84 -10t80.5 -32t60.5 -55.5t24 -81.5z" />
    <glyph glyph-name="threesuperior" unicode="&#xb3;" horiz-adv-x="599" 
d="M468 1129q31 -54 31 -114q0 -51 -20.5 -94.5t-55 -75t-79.5 -49.5t-95 -18h-217q-13 0 -22 9q-10 9 -10 22v135q0 13 10 22q9 9 22 9h217q17 0 34.5 10.5t17.5 29.5q0 20 -17 29.5t-34 11.5h-244q-2 0 -3 4.5t-2 10t-1 10.5v6v135q0 13 10 22q9 9 22 9h218q10 0 19 3
q7 3 7 8q0 7 -7 8q-9 3 -20 3h-206q-13 0 -22 9t-9 22v135q0 13 9 22q9 10 22 10h206q44 0 87 -15t76.5 -42t54 -65.5t20.5 -86.5q0 -43 -20 -83q-6 -13 -5 -26q0 -15 6 -26z" />
    <glyph glyph-name="uni2074" unicode="&#x2074;" horiz-adv-x="614" 
d="M285 1133q13 0 22 9t9 22v283q0 13 9 22t22 9h136q13 0 22 -9t9 -22v-635q0 -12 -9 -23q-9 -9 -22 -9h-136q-13 0 -22 9q-9 11 -9 23v92q0 13 -9 22t-22 9h-30q-55 0 -102 22.5t-81 60t-53 86.5t-19 103v240q0 13 9 22t22 9h136q13 0 22 -9t9 -22v-240q0 -12 3.5 -25
t11 -24t18 -18t24.5 -7h30z" />
    <glyph glyph-name="acute" unicode="&#xb4;" horiz-adv-x="423" 
d="M22 1082q-12 6 -17 17q-4 12 0 24l131 318q4 12 17 17q11 6 24 0l125 -51q11 -6 17 -17q5 -10 0 -24l-131 -318q-7 -13 -17 -17t-24 0z" />
    <glyph glyph-name="uni00B5" unicode="&#xb5;" 
d="M198 275q0 -32 22.5 -55t54.5 -23h476q32 0 55 23t23 55v610q0 13 9 22t22 9h135q13 0 22 -9t9 -22v-610q0 -58 -21.5 -108t-59 -87t-87.5 -58.5t-107 -21.5h-476q-43 0 -77 10v-180q0 -13 -9 -22t-22 -9h-136q-13 0 -22 9t-9 22v1055q0 13 9 22t22 9h135q13 0 23 -9
q9 -9 9 -22v-610z" />
    <glyph glyph-name="paragraph" unicode="&#xb6;" horiz-adv-x="1468" 
d="M275 447q-57 0 -107.5 21.5t-87.5 59t-58.5 87.5t-21.5 107v366q0 57 21.5 107.5t59 87.5t87.5 58.5t107 21.5h720h12t10 -1q9 0 9 -2v-1329q0 -13 -9 -22t-22 -9h-135q-13 0 -22 9t-9 22v385q0 13 -9 22q-10 9 -22 9h-523zM1201 0q-13 0 -22 9t-9 22v1301q0 13 9 22
t22 9h136q12 0 22 -9q9 -9 9 -22v-1301q0 -13 -9 -22q-10 -9 -22 -9h-136z" />
    <glyph glyph-name="periodcentered" unicode="&#xb7;" horiz-adv-x="284" 
d="M134 809q20 0 36 -14q14 -16 14 -35v-86q0 -21 -15 -35t-35 -14h-85q-20 0 -34 15q-15 14 -15 34v86q0 20 14.5 34.5t34.5 14.5h85z" />
    <glyph glyph-name="periodcentered" unicode="&#x2219;" horiz-adv-x="284" 
d="M134 809q20 0 36 -14q14 -16 14 -35v-86q0 -21 -15 -35t-35 -14h-85q-20 0 -34 15q-15 14 -15 34v86q0 20 14.5 34.5t34.5 14.5h85z" />
    <glyph glyph-name="cedilla" unicode="&#xb8;" horiz-adv-x="477" 
d="M377 -104q0 -41 -13 -81t-37 -71.5t-59 -51t-80 -19.5h-157q-13 0 -22 9q-9 10 -9 22v136q0 13 9 22t22 9h112q13 0 23 3q11 4 12 9q1 4 1 13v191q0 13 9 22t22 9h135q13 0 22 -9q10 -9 10 -22v-191z" />
    <glyph glyph-name="onesuperior" unicode="&#xb9;" horiz-adv-x="429" 
d="M61 1401q21 33 59 52.5t76 19.5q32 0 54 -14t37 -36.5t23.5 -52t12.5 -60t5 -60t1 -53.5v-393q0 -13 -9 -22t-22 -9h-135q-13 0 -22 9t-9 22v395l-2 2l-6 4q-4 2 -8.5 5l-10.5 7l-89 58q-12 8 -13 20q-3 13 4 23z" />
    <glyph glyph-name="ordmasculine" unicode="&#xba;" horiz-adv-x="621" 
d="M260 1474q57 0 105 -22.5t82.5 -60.5t54 -87.5t19.5 -104.5v-149q0 -55 -19.5 -105t-54.5 -88t-83 -60t-104 -22q-57 0 -104.5 22.5t-82 60.5t-54 88t-19.5 104v149q0 55 19.5 105t54.5 87.5t82.5 60t103.5 22.5zM324 1199q0 30 -19 55q-20 23 -45 23q-24 0 -44 -23
q-19 -25 -19 -55v-149q0 -13 4.5 -26.5t12.5 -25t19.5 -18.5t26.5 -7t26.5 7t20 18t13 25t4.5 27v149z" />
    <glyph glyph-name="guillemotright" unicode="&#xbb;" horiz-adv-x="1189" 
d="M593 892q8 11 20 14q14 2 23 -5l404 -259q47 -31 49 -89q-1 -57 -50 -90l-407 -258q-11 -7 -23 -4q-12 1 -20 13l-73 115q-6 10 -4 23q3 12 14 20l260 165q11 8 11 17t-11 16l-256 165q-11 7 -14 20q-2 10 4 23zM83 892q8 11 20 14q14 2 23 -5l404 -259q47 -31 49 -89
q-1 -57 -50 -90l-407 -258q-11 -7 -23 -4q-12 1 -20 13l-73 115q-6 10 -4 23q3 12 14 20l260 165q11 8 11 17t-11 16l-256 165q-11 7 -14 20q-2 10 4 23z" />
    <glyph glyph-name="onequarter" unicode="&#xbc;" horiz-adv-x="1104" 
d="M519 1473q48 0 75 -29.5t40 -72.5t16 -90.5t3 -83.5v-358q0 -13 9 -22t22 -9h289q13 0 22 -10q9 -9 9 -22v-135q0 -13 -9 -22t-22 -9h-183q-13 0 -22 -9t-9 -22v-590q0 -13 -9 -22t-22 -9h-135q-13 0 -22 9t-9 22v93q0 12 -9 22q-9 9 -22 9h-31q-55 0 -102 22t-81 59.5
t-53 86.5t-19 103v195q0 13 -9 22t-22 9h-182q-13 0 -22 9q-10 9 -10 22v135q0 13 10 22q9 10 22 10h392q13 0 22 9t9 22v360l-2 2q-2 2 -5 4q-4 2 -8.5 5l-10.5 7l-89 58q-11 8 -14 20q-2 13 5 23l54 83q21 32 58.5 52t75.5 20zM531 310q13 0 22 9t9 22v238q0 13 -10 22
q-9 9 -22 9h-56q-13 0 -22 -9t-9 -22v-195q0 -12 4 -25t11 -24t18 -18t24 -7h31z" />
    <glyph glyph-name="onehalf" unicode="&#xbd;" horiz-adv-x="1104" 
d="M751 473q0 -39 -19 -76.5t-48.5 -71t-64 -61t-66.5 -46.5q-36 -22 -60 -45q-8 -8 -7 -16q3 -6 16 -6h218q13 0 22 -10q9 -9 9 -22v-135q0 -13 -9 -22t-22 -9h-436q-13 0 -22 9t-9 22v167l1 1v2q6 35 26.5 69t48.5 65t60.5 56.5t61.5 42.5q17 11 31.5 21.5t26.5 21.5
q9 9 11 16q3 8 -4 8q-4 1 -14 1h-218q-13 0 -22 9t-9 22v93q0 13 -9 22q-10 9 -22 9h-191q-13 0 -22 9t-9 22v135q0 13 9 22q9 10 22 10h393q13 0 22 9t9 22v360l-2 2l-6 4q-7 5 -18 12l-90 58q-10 7 -13 20q-3 12 4 23l54 83q21 33 59 52.5t76 19.5q48 0 75 -30t39.5 -72.5
t15.5 -90t3 -83.5v-358q0 -13 10 -22q9 -9 22 -9h289q13 0 22 -9.5t9 -22.5v-135q0 -13 -9 -22q-10 -9 -22 -9h-276q-25 0 -6 -18q60 -49 60 -119z" />
    <glyph glyph-name="threequarters" unicode="&#xbe;" horiz-adv-x="1104" 
d="M759 -11q0 -13 -9 -22t-22 -9h-136q-11 0 -22 9q-9 9 -9 22v93q0 12 -9 22q-9 9 -21 9h-31q-55 0 -102 22t-81 59.5t-53 86.5t-19 103v195q0 13 -9 22t-22 9h-183q-13 0 -22 9t-9 22v135q0 13 9 22q9 10 22 10h191q13 0 22 9t9 22v105q0 13 9 22t22 9h218q17 0 34.5 10.5
t17.5 29.5q0 20 -17.5 29.5t-34.5 11.5h-243q-2 0 -3 4.5t-2 9.5t-1 10.5v6.5v135q0 13 9 22t22 9h218q5 0 16 2t11 9q0 6 -8 8q-7 3 -19 3h-206q-13 0 -22 9t-9 22v135q0 13 9 22q9 10 22 10h206q44 0 87 -15t76.5 -42.5t54 -66t20.5 -85.5q0 -43 -20 -83q-6 -12 -6 -26
t7 -26q30 -52 30 -114q0 -59 -27 -108.5t-75 -82.5q-20 -16 5 -16h319q13 0 22 -10q9 -9 9 -22v-135q0 -13 -9 -22t-22 -9h-183q-13 0 -22 -9t-9 -22v-590zM443 384q0 -12 3.5 -25t11 -24t18 -18t24.5 -7h31q13 0 21.5 9t8.5 22v238q0 13 -9 22t-22 9h-56q-13 0 -22 -9
t-9 -22v-195z" />
    <glyph glyph-name="questiondown" unicode="&#xbf;" horiz-adv-x="766" 
d="M471 1173q-22 0 -41 17q-17 19 -17 41v138q0 24 17 41t41 17h137q24 0 41 -17t17 -41v-138q0 -22 -17 -41q-19 -17 -41 -17h-137zM0 296q0 54 18.5 104.5t50.5 93.5t75.5 75.5t94.5 48.5l90 27q20 6 37.5 20t31.5 32t22 39t8 42v263q0 13 9 22q9 10 22 10h135
q13 0 22 -10q9 -9 9 -22v-263q0 -54 -18.5 -104.5t-50.5 -93.5t-75.5 -75t-94.5 -49l-89 -27q-20 -7 -38 -20.5t-31.5 -31.5t-21.5 -39t-8 -42v-21q0 -33 22.5 -55t55.5 -22h318q13 0 22 -9q9 -10 9 -22v-136q0 -13 -9 -22t-22 -9h-318q-57 0 -107.5 21.5t-88 59t-59 87.5
t-21.5 107v21z" />
    <glyph glyph-name="Agrave" unicode="&#xc0;" horiz-adv-x="1494" 
d="M1080 1842q-6 14 0 24q4 11 17 17l125 51q12 6 24 0q12 -5 16 -17l131 -318q5 -12 0 -24q-5 -11 -17 -17l-125 -51q-12 -4 -24 0q-11 5 -17 17zM494 236q-13 0 -28 -6q-15 -7 -23 -17l-166 -189q-8 -10 -22.5 -17t-28.5 -7h-207q-12 0 -16 7q-3 6 5 17l1200 1373
q36 37 80 37q19 0 38 -6q32 -12 50 -39t18 -61v-1297q0 -13 -9 -22t-22 -9h-141q-13 0 -22 9t-9 22v174q0 13 -9 22q-10 9 -22 9h-666zM1191 1040q0 15 -7 15q-4 0 -14 -8l-515 -591q-9 -9 -6 -16t16 -7h495q12 0 22 9q9 9 9 22v576z" />
    <glyph glyph-name="Aacute" unicode="&#xc1;" horiz-adv-x="1494" 
d="M1202 1558q-12 6 -17 17q-4 12 0 24l131 318q4 12 17 17q11 6 24 0l125 -51q11 -6 17 -17q5 -10 0 -24l-131 -318q-7 -13 -17 -17t-24 0zM494 236q-13 0 -28 -6q-15 -7 -23 -17l-166 -189q-8 -10 -22.5 -17t-28.5 -7h-207q-12 0 -16 7q-3 6 5 17l1200 1373q36 37 80 37
q19 0 38 -6q32 -12 50 -39t18 -61v-1297q0 -13 -9 -22t-22 -9h-141q-13 0 -22 9t-9 22v174q0 13 -9 22q-10 9 -22 9h-666zM1191 1040q0 15 -7 15q-4 0 -14 -8l-515 -591q-9 -9 -6 -16t16 -7h495q12 0 22 9q9 9 9 22v576z" />
    <glyph glyph-name="Acircumflex" unicode="&#xc2;" horiz-adv-x="1494" 
d="M1301 1626q-6 12 -12 12t-12 -12l-41 -100q-7 -13 -17 -17t-24 0l-125 52q-12 5 -17 16q-4 12 0 24l66 159q6 19 16.5 38.5t24.5 38.5t30.5 35t32.5 27q29 19 66 19q32 0 58.5 -15t48 -38t37.5 -51t27 -55l65 -160q5 -13 0 -24q-4 -10 -17 -17l-125 -51q-12 -4 -24 0
q-11 6 -17 17zM494 236q-13 0 -28 -6q-15 -7 -23 -17l-166 -189q-8 -10 -22.5 -17t-28.5 -7h-207q-12 0 -16 7q-3 6 5 17l1200 1373q36 37 80 37q19 0 38 -6q32 -12 50 -39t18 -61v-1297q0 -13 -9 -22t-22 -9h-141q-13 0 -22 9t-9 22v174q0 13 -9 22q-10 9 -22 9h-666z
M1191 1040q0 15 -7 15q-4 0 -14 -8l-515 -591q-9 -9 -6 -16t16 -7h495q12 0 22 9q9 9 9 22v576z" />
    <glyph glyph-name="Atilde" unicode="&#xc3;" horiz-adv-x="1494" 
d="M1209 1620q-2 2 -4.5 3t-4.5 3q-5 2 -5 0l-3 -3l-80 -107q-7 -10 -20 -13q-12 -2 -23 6l-109 81q-10 7 -12 20q-1 12 6 24l80 107q8 11 18 22t22 22q25 20 55 35t63 15q36 0 71.5 -17t63.5 -40q26 -19 30 -24q3 -3 6 -5.5t6 -4.5q7 -7 14 -7q2 2 2 3l80 109q9 11 21 12
q12 2 23 -6l109 -80q10 -7 12 -20q2 -14 -6 -23l-79 -109q-27 -37 -69 -65.5t-90 -28.5q-37 0 -71.5 16.5t-63.5 39.5q-26 20 -30 25q-3 3 -6 5.5t-6 4.5zM494 236q-13 0 -28 -6q-15 -7 -23 -17l-166 -189q-8 -10 -22.5 -17t-28.5 -7h-207q-12 0 -16 7q-3 6 5 17l1200 1373
q36 37 80 37q19 0 38 -6q32 -12 50 -39t18 -61v-1297q0 -13 -9 -22t-22 -9h-141q-13 0 -22 9t-9 22v174q0 13 -9 22q-10 9 -22 9h-666zM1191 1040q0 15 -7 15q-4 0 -14 -8l-515 -591q-9 -9 -6 -16t16 -7h495q12 0 22 9q9 9 9 22v576z" />
    <glyph glyph-name="Adieresis" unicode="&#xc4;" horiz-adv-x="1494" 
d="M1216 1685q20 0 36 -14q14 -16 14 -35v-86q0 -21 -15 -35t-35 -14h-85q-20 0 -34 15q-15 14 -15 34v86q0 20 14.5 34.5t34.5 14.5h85zM1446 1685q20 0 36 -14q14 -16 14 -35v-86q0 -21 -15 -35t-35 -14h-85q-20 0 -34 15q-15 14 -15 34v86q0 20 14.5 34.5t34.5 14.5h85z
M494 236q-13 0 -28 -6q-15 -7 -23 -17l-166 -189q-8 -10 -22.5 -17t-28.5 -7h-207q-12 0 -16 7q-3 6 5 17l1200 1373q36 37 80 37q19 0 38 -6q32 -12 50 -39t18 -61v-1297q0 -13 -9 -22t-22 -9h-141q-13 0 -22 9t-9 22v174q0 13 -9 22q-10 9 -22 9h-666zM1191 1040
q0 15 -7 15q-4 0 -14 -8l-515 -591q-9 -9 -6 -16t16 -7h495q12 0 22 9q9 9 9 22v576z" />
    <glyph glyph-name="Aring" unicode="&#xc5;" horiz-adv-x="1494" 
d="M1528 1716q0 -48 -20.5 -87.5t-54 -67.5t-76.5 -43.5t-88 -15.5t-88 15.5t-76.5 43.5t-54 67.5t-20.5 87.5t20.5 87.5t54 67.5t76.5 43.5t88 15.5t88 -15.5t76.5 -43.5t54 -67.5t20.5 -87.5zM1258 1716q0 -7 9 -13q9 -3 22 -3t22 3q9 6 9 13q0 11 -11.5 13.5t-19.5 2.5
t-19.5 -2.5t-11.5 -13.5zM494 236q-13 0 -28 -6q-15 -7 -23 -17l-166 -189q-8 -10 -22.5 -17t-28.5 -7h-207q-12 0 -16 7q-3 6 5 17l1200 1373q36 37 80 37q19 0 38 -6q32 -12 50 -39t18 -61v-1297q0 -13 -9 -22t-22 -9h-141q-13 0 -22 9t-9 22v174q0 13 -9 22q-10 9 -22 9
h-666zM1191 1040q0 15 -7 15q-4 0 -14 -8l-515 -591q-9 -9 -6 -16t16 -7h495q12 0 22 9q9 9 9 22v576z" />
    <glyph glyph-name="Amacron" unicode="&#x100;" horiz-adv-x="1494" 
d="M1018 1506q-13 0 -22 9t-9 22v135q0 13 9 22t22 9h542q13 0 22 -9t9 -22v-135q0 -13 -9 -22t-22 -9h-542zM494 236q-13 0 -28 -6q-15 -7 -23 -17l-166 -189q-8 -10 -22.5 -17t-28.5 -7h-207q-12 0 -16 7q-3 6 5 17l1200 1373q36 37 80 37q19 0 38 -6q32 -12 50 -39
t18 -61v-1297q0 -13 -9 -22t-22 -9h-141q-13 0 -22 9t-9 22v174q0 13 -9 22q-10 9 -22 9h-666zM1191 1040q0 15 -7 15q-4 0 -14 -8l-515 -591q-9 -9 -6 -16t16 -7h495q12 0 22 9q9 9 9 22v576z" />
    <glyph glyph-name="Abreve" unicode="&#x102;" horiz-adv-x="1494" 
d="M1312 1704q11 4 15 19t4 25v150q0 14 8.5 23t22.5 9h135q13 0 22 -9.5t9 -22.5v-182q0 -48 -20.5 -87.5t-54 -67.5t-76.5 -43.5t-88 -15.5t-88 15.5t-76.5 43.5t-53.5 67.5t-20 87.5v182q0 13 9 22.5t22 9.5h135q13 0 22 -9.5t9 -22.5v-151q0 -10 4 -24.5t15 -18.5
q8 -4 22 -4q15 0 23 4zM494 236q-13 0 -28 -6q-15 -7 -23 -17l-166 -189q-8 -10 -22.5 -17t-28.5 -7h-207q-12 0 -16 7q-3 6 5 17l1200 1373q36 37 80 37q19 0 38 -6q32 -12 50 -39t18 -61v-1297q0 -13 -9 -22t-22 -9h-141q-13 0 -22 9t-9 22v174q0 13 -9 22q-10 9 -22 9
h-666zM1191 1040q0 15 -7 15q-4 0 -14 -8l-515 -591q-9 -9 -6 -16t16 -7h495q12 0 22 9q9 9 9 22v576z" />
    <glyph glyph-name="Aogonek" unicode="&#x104;" horiz-adv-x="1494" 
d="M1190 14q1 4 1 8v9v174q0 13 -9 22q-10 9 -22 9h-666q-14 0 -28 -6t-23 -17l-166 -189q-9 -10 -23 -17t-28 -7h-207q-13 0 -16 7q-3 6 5 17l1200 1373q36 38 80 38q23 0 42.5 -8.5t33.5 -22.5t22 -33.5t8 -42.5v-1432q0 -10 1 -13q2 -5 12 -8q9 -4 23 -4h111q13 0 23 -9
q9 -9 9 -22v-136q0 -13 -9.5 -22t-22.5 -9h-157q-45 0 -79.5 20t-59.5 51.5t-38.5 71.5t-16.5 80v118zM1191 1040q0 15 -7 15q-4 0 -14 -8l-515 -591q-9 -10 -6 -16q3 -7 16 -7h495q12 0 22 9q9 9 9 22v576z" />
    <glyph glyph-name="AE" unicode="&#xc6;" horiz-adv-x="2439" 
d="M278 24q-10 -11 -24 -17q-14 -7 -27 -7h-208q-13 0 -16 7q-4 7 5 17l1197 1366q36 37 80 37q19 0 38 -6q10 -4 14 -7q8 -3 18 -3l12 2t13 3q42 14 86 14h830q12 0 22 -9q9 -9 9 -22v-135q0 -13 -9 -22.5t-22 -9.5h-830q-37 0 -61 -29q-8 -11 -11 -28t-3 -31v-196
q0 -13 9 -22q9 -10 22 -10h783q13 0 22 -9q10 -9 10 -22v-140q0 -13 -10 -22q-9 -9 -22 -9h-783q-13 0 -22 -10q-9 -9 -9 -22v-396q0 -36 17 -62t58 -26h842q13 0 22 -9t9 -22v-136q0 -13 -9 -22t-22 -9h-842q-25 0 -45 4q-6 1 -11.5 1.5t-10.5 1.5q-8 0 -8 -2q0 -1 -9 -3
q-5 -1 -10.5 -1.5t-11.5 -0.5h-141q-13 0 -22 9t-9 22v173q0 13 -10 22q-9 9 -22 9h-661q-14 0 -28 -7q-13 -5 -24 -16zM1188 1030q0 16 -7 16q-4 0 -14 -8l-510 -582q-8 -11 -5 -17t16 -6h488q13 0 22 9q10 9 10 22v566z" />
    <glyph glyph-name="OE" unicode="&#x152;" horiz-adv-x="2199" 
d="M1075 46q-11 7 -25 7t-25 -7q-67 -46 -152 -46h-597q-58 0 -108 22t-87.5 59.5t-59 87.5t-21.5 107v879q0 57 22 107.5t59.5 88t87.5 59t107 21.5h597q83 0 152 -46q11 -7 25 -7q15 0 25 7q68 45 151 45h830q13 0 22 -9t9 -22v-135q0 -13 -9 -22q-9 -10 -22 -10h-830
q-32 0 -55 -22q-22 -23 -22 -55v-207q0 -13 9 -22q9 -10 22 -10h786q13 0 22 -9t9 -22v-140q0 -13 -9 -22t-22 -9h-786q-13 0 -22 -10q-9 -9 -9 -22v-406q0 -33 22 -55.5t55 -22.5h842q13 0 22 -9t9 -22v-136q0 -13 -9 -22t-22 -9h-842q-84 0 -151 46zM198 276q0 -33 23 -55
q22 -23 55 -23h597q32 0 55 23t23 55v879q0 32 -23 55t-55 23h-597q-32 0 -55 -23t-23 -55v-879z" />
    <glyph glyph-name="Ccedilla" unicode="&#xc7;" horiz-adv-x="1248" 
d="M275 0q-57 0 -107.5 22t-87.5 59.5t-58.5 88t-21.5 106.5v882q0 58 21.5 108t59 87.5t87.5 59t107 21.5h830q13 0 22 -9t9 -22v-136q0 -13 -9 -22t-22 -9h-830q-32 0 -54.5 -23t-22.5 -55v-882q0 -32 22.5 -55t54.5 -23h842q13 0 22 -9t9 -22v-136q0 -13 -9 -22t-22 -9
h-355v-104q0 -41 -12.5 -81t-37 -71.5t-59.5 -51t-80 -19.5h-157q-13 0 -22 10q-9 9 -9 21v136q0 13 9 22t22 9h112q14 0 23 4q10 3 12 8q1 3 1 13v104h-289z" />
    <glyph glyph-name="Cacute" unicode="&#x106;" horiz-adv-x="1248" 
d="M570 1558q-12 6 -17 17q-4 12 0 24l131 318q4 12 17 17q11 6 24 0l125 -51q11 -6 17 -17q5 -10 0 -24l-131 -318q-7 -13 -17 -17t-24 0zM275 0q-58 0 -108 22t-87 59.5t-58.5 87.5t-21.5 107v882q0 57 21.5 107.5t59 88t87.5 59t107 21.5h830q13 0 22 -9t9 -22v-136
q0 -13 -9 -22t-22 -9h-830q-32 0 -54.5 -23t-22.5 -55v-882q0 -32 22.5 -55t54.5 -23h842q13 0 22 -9t9 -22v-136q0 -13 -9 -22t-22 -9h-842z" />
    <glyph glyph-name="Ccircumflex" unicode="&#x108;" horiz-adv-x="1248" 
d="M669 1626q-6 12 -12 12t-12 -12l-41 -100q-7 -13 -17 -17t-24 0l-125 52q-12 5 -17 16q-4 12 0 24l66 159q6 19 16.5 38.5t24.5 38.5t30.5 35t32.5 27q29 19 66 19q32 0 58.5 -15t48 -38t37.5 -51t27 -55l65 -160q5 -13 0 -24q-4 -10 -17 -17l-125 -51q-12 -4 -24 0
q-11 6 -17 17zM275 0q-58 0 -108 22t-87 59.5t-58.5 87.5t-21.5 107v882q0 57 21.5 107.5t59 88t87.5 59t107 21.5h830q13 0 22 -9t9 -22v-136q0 -13 -9 -22t-22 -9h-830q-32 0 -54.5 -23t-22.5 -55v-882q0 -32 22.5 -55t54.5 -23h842q13 0 22 -9t9 -22v-136q0 -13 -9 -22
t-22 -9h-842z" />
    <glyph glyph-name="Cdotaccent" unicode="&#x10a;" horiz-adv-x="1248" 
d="M607 1507q-24 0 -41 17t-17 41v101q0 24 17 41t41 17h100q24 0 41 -17t17 -41v-101q0 -24 -17 -41t-41 -17h-100zM275 0q-58 0 -108 22t-87 59.5t-58.5 87.5t-21.5 107v882q0 57 21.5 107.5t59 88t87.5 59t107 21.5h830q13 0 22 -9t9 -22v-136q0 -13 -9 -22t-22 -9h-830
q-32 0 -54.5 -23t-22.5 -55v-882q0 -32 22.5 -55t54.5 -23h842q13 0 22 -9t9 -22v-136q0 -13 -9 -22t-22 -9h-842z" />
    <glyph glyph-name="Ccaron" unicode="&#x10c;" horiz-adv-x="1248" 
d="M664 1818q6 -12 12 -12q5 0 11 12l4 10q6 11 17 17q12 5 24 0l125 -51q13 -7 17 -17q5 -13 0 -24l-28 -68q-7 -25 -23.5 -53t-39 -52t-50 -39.5t-57.5 -15.5q-26 0 -49 10.5t-42 27.5t-34.5 38.5t-26.5 42.5q-7 13 -12 23t-7 18l-66 160q-5 13 1 24q5 12 17 16l125 51
q10 5 24 0q11 -5 17 -17zM275 0q-58 0 -108 22t-87 59.5t-58.5 87.5t-21.5 107v882q0 57 21.5 107.5t59 88t87.5 59t107 21.5h830q13 0 22 -9t9 -22v-136q0 -13 -9 -22t-22 -9h-830q-32 0 -54.5 -23t-22.5 -55v-882q0 -32 22.5 -55t54.5 -23h842q13 0 22 -9t9 -22v-136
q0 -13 -9 -22t-22 -9h-842z" />
    <glyph glyph-name="Egrave" unicode="&#xc8;" horiz-adv-x="1248" 
d="M465 1842q-6 14 0 24q4 11 17 17l125 51q12 6 24 0q12 -5 16 -17l131 -318q5 -12 0 -24q-5 -11 -17 -17l-125 -51q-12 -4 -24 0q-11 5 -17 17zM275 0q-58 0 -108 22t-87 59.5t-58.5 87.5t-21.5 107v882q0 57 21.5 107.5t59 88t87.5 59t107 21.5h830q13 0 22 -9t9 -22
v-136q0 -13 -9 -22t-22 -9h-830q-32 0 -54.5 -23t-22.5 -55v-208q0 -13 9 -22t22 -9h786q13 0 22 -9t9 -22v-141q0 -12 -9 -23q-9 -9 -22 -9h-786q-13 0 -22 -9t-9 -22v-408q0 -32 22.5 -55t54.5 -23h842q13 0 22 -9t9 -22v-136q0 -13 -9 -22t-22 -9h-842z" />
    <glyph glyph-name="Eacute" unicode="&#xc9;" horiz-adv-x="1248" 
d="M487 1558q-12 6 -17 17q-4 12 0 24l131 318q4 12 17 17q11 6 24 0l125 -51q11 -6 17 -17q5 -10 0 -24l-131 -318q-7 -13 -17 -17t-24 0zM275 0q-58 0 -108 22t-87 59.5t-58.5 87.5t-21.5 107v882q0 57 21.5 107.5t59 88t87.5 59t107 21.5h830q13 0 22 -9t9 -22v-136
q0 -13 -9 -22t-22 -9h-830q-32 0 -54.5 -23t-22.5 -55v-208q0 -13 9 -22t22 -9h786q13 0 22 -9t9 -22v-141q0 -12 -9 -23q-9 -9 -22 -9h-786q-13 0 -22 -9t-9 -22v-408q0 -32 22.5 -55t54.5 -23h842q13 0 22 -9t9 -22v-136q0 -13 -9 -22t-22 -9h-842z" />
    <glyph glyph-name="Ecircumflex" unicode="&#xca;" horiz-adv-x="1248" 
d="M666 1626q-6 12 -12 12t-12 -12l-41 -100q-7 -13 -17 -17t-24 0l-125 52q-12 5 -17 16q-4 12 0 24l66 159q6 19 16.5 38.5t24.5 38.5t30.5 35t32.5 27q29 19 66 19q32 0 58.5 -15t48 -38t37.5 -51t27 -55l65 -160q5 -13 0 -24q-4 -10 -17 -17l-125 -51q-12 -4 -24 0
q-11 6 -17 17zM275 0q-58 0 -108 22t-87 59.5t-58.5 87.5t-21.5 107v882q0 57 21.5 107.5t59 88t87.5 59t107 21.5h830q13 0 22 -9t9 -22v-136q0 -13 -9 -22t-22 -9h-830q-32 0 -54.5 -23t-22.5 -55v-208q0 -13 9 -22t22 -9h786q13 0 22 -9t9 -22v-141q0 -12 -9 -23
q-9 -9 -22 -9h-786q-13 0 -22 -9t-9 -22v-408q0 -32 22.5 -55t54.5 -23h842q13 0 22 -9t9 -22v-136q0 -13 -9 -22t-22 -9h-842z" />
    <glyph glyph-name="Edieresis" unicode="&#xcb;" horiz-adv-x="1248" 
d="M571 1685q20 0 36 -14q14 -16 14 -35v-86q0 -21 -15 -35t-35 -14h-85q-20 0 -34 15q-15 14 -15 34v86q0 20 14.5 34.5t34.5 14.5h85zM801 1685q20 0 36 -14q14 -16 14 -35v-86q0 -21 -15 -35t-35 -14h-85q-20 0 -34 15q-15 14 -15 34v86q0 20 14.5 34.5t34.5 14.5h85z
M275 0q-58 0 -108 22t-87 59.5t-58.5 87.5t-21.5 107v882q0 57 21.5 107.5t59 88t87.5 59t107 21.5h830q13 0 22 -9t9 -22v-136q0 -13 -9 -22t-22 -9h-830q-32 0 -54.5 -23t-22.5 -55v-208q0 -13 9 -22t22 -9h786q13 0 22 -9t9 -22v-141q0 -12 -9 -23q-9 -9 -22 -9h-786
q-13 0 -22 -9t-9 -22v-408q0 -32 22.5 -55t54.5 -23h842q13 0 22 -9t9 -22v-136q0 -13 -9 -22t-22 -9h-842z" />
    <glyph glyph-name="Emacron" unicode="&#x112;" horiz-adv-x="1248" 
d="M383 1506q-13 0 -22 9t-9 22v135q0 13 9 22t22 9h542q13 0 22 -9t9 -22v-135q0 -13 -9 -22t-22 -9h-542zM275 0q-58 0 -108 22t-87 59.5t-58.5 87.5t-21.5 107v882q0 57 21.5 107.5t59 88t87.5 59t107 21.5h830q13 0 22 -9t9 -22v-136q0 -13 -9 -22t-22 -9h-830
q-32 0 -54.5 -23t-22.5 -55v-208q0 -13 9 -22t22 -9h786q13 0 22 -9t9 -22v-141q0 -12 -9 -23q-9 -9 -22 -9h-786q-13 0 -22 -9t-9 -22v-408q0 -32 22.5 -55t54.5 -23h842q13 0 22 -9t9 -22v-136q0 -13 -9 -22t-22 -9h-842z" />
    <glyph glyph-name="Ebreve" unicode="&#x114;" horiz-adv-x="1248" 
d="M697 1704q11 4 15 19t4 25v150q0 14 8.5 23t22.5 9h135q13 0 22 -9.5t9 -22.5v-182q0 -48 -20.5 -87.5t-54 -67.5t-76.5 -43.5t-88 -15.5t-88 15.5t-76.5 43.5t-53.5 67.5t-20 87.5v182q0 13 9 22.5t22 9.5h135q13 0 22 -9.5t9 -22.5v-151q0 -10 4 -24.5t15 -18.5
q8 -4 22 -4q15 0 23 4zM275 0q-58 0 -108 22t-87 59.5t-58.5 87.5t-21.5 107v882q0 57 21.5 107.5t59 88t87.5 59t107 21.5h830q13 0 22 -9t9 -22v-136q0 -13 -9 -22t-22 -9h-830q-32 0 -54.5 -23t-22.5 -55v-208q0 -13 9 -22t22 -9h786q13 0 22 -9t9 -22v-141q0 -12 -9 -23
q-9 -9 -22 -9h-786q-13 0 -22 -9t-9 -22v-408q0 -32 22.5 -55t54.5 -23h842q13 0 22 -9t9 -22v-136q0 -13 -9 -22t-22 -9h-842z" />
    <glyph glyph-name="Edotaccent" unicode="&#x116;" horiz-adv-x="1248" 
d="M624 1507q-24 0 -41 17t-17 41v101q0 24 17 41t41 17h100q24 0 41 -17t17 -41v-101q0 -24 -17 -41t-41 -17h-100zM275 0q-58 0 -108 22t-87 59.5t-58.5 87.5t-21.5 107v882q0 57 21.5 107.5t59 88t87.5 59t107 21.5h830q13 0 22 -9t9 -22v-136q0 -13 -9 -22t-22 -9h-830
q-32 0 -54.5 -23t-22.5 -55v-208q0 -13 9 -22t22 -9h786q13 0 22 -9t9 -22v-141q0 -12 -9 -23q-9 -9 -22 -9h-786q-13 0 -22 -9t-9 -22v-408q0 -32 22.5 -55t54.5 -23h842q13 0 22 -9t9 -22v-136q0 -13 -9 -22t-22 -9h-842z" />
    <glyph glyph-name="Eogonek" unicode="&#x118;" horiz-adv-x="1248" 
d="M275 0q-57 0 -107.5 22t-87.5 59.5t-58.5 88t-21.5 106.5v882q0 58 21.5 108t59 87.5t87.5 59t107 21.5h830q13 0 22 -9t9 -22v-136q0 -13 -9 -22t-22 -9h-830q-32 0 -54.5 -23t-22.5 -55v-208q0 -13 9 -22t22 -9h786q13 0 22 -9t9 -22v-141q0 -13 -9 -22q-9 -10 -22 -10
h-786q-13 0 -22 -9t-9 -22v-408q0 -32 22.5 -55t54.5 -23h842q13 0 22 -9t9 -22v-271q0 -10 1 -13q2 -5 12 -8q9 -4 23 -4h111q13 0 23 -9q9 -9 9 -22v-136q0 -13 -9.5 -22t-22.5 -9h-157q-45 0 -80 19.5t-59 51.5t-36.5 71.5t-12.5 80.5v104h-675z" />
    <glyph glyph-name="Ecaron" unicode="&#x11a;" horiz-adv-x="1248" 
d="M611 1808q6 -12 12 -12q5 0 11 12l4 10q6 11 17 17q12 5 24 0l125 -51q13 -7 17 -17q5 -13 0 -24l-28 -68q-7 -25 -23.5 -53t-39 -52t-50 -39.5t-57.5 -15.5q-26 0 -49 10.5t-42 27.5t-34.5 38.5t-26.5 42.5q-7 13 -12 23t-7 18l-66 160q-5 13 1 24q5 12 17 16l125 51
q10 5 24 0q11 -5 17 -17zM275 0q-58 0 -108 22t-87 59.5t-58.5 87.5t-21.5 107v882q0 57 21.5 107.5t59 88t87.5 59t107 21.5h830q13 0 22 -9t9 -22v-136q0 -13 -9 -22t-22 -9h-830q-32 0 -54.5 -23t-22.5 -55v-208q0 -13 9 -22t22 -9h786q13 0 22 -9t9 -22v-141
q0 -12 -9 -23q-9 -9 -22 -9h-786q-13 0 -22 -9t-9 -22v-408q0 -32 22.5 -55t54.5 -23h842q13 0 22 -9t9 -22v-136q0 -13 -9 -22t-22 -9h-842z" />
    <glyph glyph-name="Gcircumflex" unicode="&#x11c;" horiz-adv-x="1254" 
d="M629 1626q-6 12 -12 12t-12 -12l-41 -100q-7 -13 -17 -17t-24 0l-125 52q-12 5 -17 16q-4 12 0 24l66 159q6 19 16.5 38.5t24.5 38.5t30.5 35t32.5 27q29 19 66 19q32 0 58.5 -15t48 -38t37.5 -51t27 -55l65 -160q5 -13 0 -24q-4 -10 -17 -17l-125 -51q-12 -4 -24 0
q-11 6 -17 17zM283 0q-59 0 -110.5 22.5t-90 61t-60.5 90t-22 109.5v869q0 59 22.5 110.5t61 89.5t90 60t109.5 22h827q13 0 22 -9t9 -22v-140q0 -13 -9 -22q-9 -10 -22 -10h-827q-34 0 -57 -22.5t-23 -56.5v-869q0 -32 23 -57q25 -23 57 -23h588q33 0 56.5 23.5t23.5 56.5
v353q0 33 -23.5 56t-56.5 23h-377q-13 0 -22 10q-10 10 -10 22v140q0 13 9.5 22t22.5 9h377q59 0 110.5 -22.5t89.5 -60.5t60.5 -89.5t22.5 -109.5v-353q0 -58 -22.5 -110t-61 -90t-90 -60.5t-109.5 -22.5h-588z" />
    <glyph glyph-name="Gbreve" unicode="&#x11e;" horiz-adv-x="1254" 
d="M650 1704q11 4 15 19t4 25v150q0 14 8.5 23t22.5 9h135q13 0 22 -9.5t9 -22.5v-182q0 -48 -20.5 -87.5t-54 -67.5t-76.5 -43.5t-88 -15.5t-88 15.5t-76.5 43.5t-53.5 67.5t-20 87.5v182q0 13 9 22.5t22 9.5h135q13 0 22 -9.5t9 -22.5v-151q0 -10 4 -24.5t15 -18.5
q8 -4 22 -4q15 0 23 4zM283 0q-59 0 -110.5 22.5t-90 61t-60.5 90t-22 109.5v869q0 59 22.5 110.5t61 89.5t90 60t109.5 22h827q13 0 22 -9t9 -22v-140q0 -13 -9 -22q-9 -10 -22 -10h-827q-34 0 -57 -22.5t-23 -56.5v-869q0 -32 23 -57q25 -23 57 -23h588q33 0 56.5 23.5
t23.5 56.5v353q0 33 -23.5 56t-56.5 23h-377q-13 0 -22 10q-10 10 -10 22v140q0 13 9.5 22t22.5 9h377q59 0 110.5 -22.5t89.5 -60.5t60.5 -89.5t22.5 -109.5v-353q0 -58 -22.5 -110t-61 -90t-90 -60.5t-109.5 -22.5h-588z" />
    <glyph glyph-name="Gdotaccent" unicode="&#x120;" horiz-adv-x="1254" 
d="M597 1507q-24 0 -41 17t-17 41v101q0 24 17 41t41 17h100q24 0 41 -17t17 -41v-101q0 -24 -17 -41t-41 -17h-100zM283 0q-59 0 -110.5 22.5t-90 61t-60.5 90t-22 109.5v869q0 59 22.5 110.5t61 89.5t90 60t109.5 22h827q13 0 22 -9t9 -22v-140q0 -13 -9 -22
q-9 -10 -22 -10h-827q-34 0 -57 -22.5t-23 -56.5v-869q0 -32 23 -57q25 -23 57 -23h588q33 0 56.5 23.5t23.5 56.5v353q0 33 -23.5 56t-56.5 23h-377q-13 0 -22 10q-10 10 -10 22v140q0 13 9.5 22t22.5 9h377q59 0 110.5 -22.5t89.5 -60.5t60.5 -89.5t22.5 -109.5v-353
q0 -58 -22.5 -110t-61 -90t-90 -60.5t-109.5 -22.5h-588z" />
    <glyph glyph-name="uni0122" unicode="&#x122;" horiz-adv-x="1254" 
d="M283 0q-59 0 -110.5 22.5t-90 61t-60.5 90t-22 109.5v869q0 59 22.5 110.5t61 89.5t90 60t109.5 22h827q13 0 22 -9t9 -22v-140q0 -13 -9 -22q-9 -10 -22 -10h-827q-34 0 -57 -22.5t-23 -56.5v-869q0 -32 23 -57q25 -23 57 -23h588q33 0 56.5 23.5t23.5 56.5v353
q0 33 -23.5 56t-56.5 23h-377q-13 0 -22 10q-10 10 -10 22v140q0 13 9.5 22t22.5 9h377q59 0 110.5 -22.5t89.5 -60.5t60.5 -89.5t22.5 -109.5v-353q0 -58 -22.5 -110t-61 -90t-90 -60.5t-109.5 -22.5h-588zM644 -94q25 0 41.5 -17.5t16.5 -41.5v-101q0 -24 -11 -53.5
t-27 -48.5l-21 -25q-15 -15 -21 -15q-9 0 -4 28q2 8 3.5 14.5t3.5 13.5q2 12 0 20t-7 8h-74q-24 0 -41 17t-17 41v101q0 24 16.5 41.5t41.5 17.5h100z" />
    <glyph glyph-name="Hcircumflex" unicode="&#x124;" horiz-adv-x="1241" 
d="M612 1626q-6 12 -12 12t-12 -12l-41 -100q-7 -13 -17 -17t-24 0l-125 52q-12 5 -17 16q-4 12 0 24l66 159q6 19 16.5 38.5t24.5 38.5t30.5 35t32.5 27q29 19 66 19q32 0 58.5 -15t48 -38t37.5 -51t27 -55l65 -160q5 -13 0 -24q-4 -10 -17 -17l-125 -51q-12 -4 -24 0
q-11 6 -17 17zM233 715q-13 0 -22 -9t-9 -22v-653q0 -13 -9 -22t-22 -9h-140q-13 0 -22 9t-9 22v1372q0 13 9 22t22 9h140q13 0 22 -9t9 -22v-453q0 -13 9 -22q9 -10 22 -10h675q13 0 22 9.5t9 22.5v453q0 13 9 22t22 9h140q12 0 22 -9q9 -9 9 -22v-1372q0 -13 -9 -22
q-10 -9 -22 -9h-140q-13 0 -22 9t-9 22v653q0 13 -9 22q-10 9 -22 9h-675z" />
    <glyph glyph-name="Hbar" unicode="&#x126;" horiz-adv-x="1454" 
d="M1241 31q0 -13 -9 -22q-10 -9 -22 -9h-140q-13 0 -22 9t-9 22v653q0 13 -9 22q-10 9 -22 9h-675q-13 0 -22 -9t-9 -22v-653q0 -13 -9 -22t-22 -9h-140q-13 0 -22 9t-9 22v1022h-69q-13 0 -22 9t-9 22v136q0 13 9 22t22 9h69v152q0 13 9 22t22 9h140q13 0 22 -9t9 -22
v-152h737v152q0 13 9 22t22 9h140q12 0 22 -9q9 -9 9 -22v-152h82q13 0 22 -9t9 -22v-136q0 -13 -9 -22t-22 -9h-82v-1022zM302 950q0 -13 9 -22q9 -10 22 -10h675q13 0 22 9.5t9 22.5v103h-737v-103z" />
    <glyph glyph-name="Igrave" unicode="&#xcc;" horiz-adv-x="298" 
d="M-110 1842q-6 14 0 24q4 11 17 17l125 51q12 6 24 0q12 -5 16 -17l131 -318q5 -12 0 -24q-5 -11 -17 -17l-125 -51q-12 -4 -24 0q-11 5 -17 17zM166 1434q13 0 23 -9q9 -9 9 -22v-1372q0 -13 -9 -22q-10 -9 -23 -9h-135q-13 0 -22 9t-9 22v1372q0 13 9 22t22 9h135z" />
    <glyph glyph-name="Iacute" unicode="&#xcd;" horiz-adv-x="298" 
d="M12 1558q-12 6 -17 17q-5 12 0 24l131 318q4 12 17 17q11 6 24 0l125 -51q11 -6 17 -17q5 -10 0 -24l-131 -318q-7 -13 -17 -17t-24 0zM166 1434q13 0 23 -9q9 -9 9 -22v-1372q0 -13 -9 -22q-10 -9 -23 -9h-135q-13 0 -22 9t-9 22v1372q0 13 9 22t22 9h135z" />
    <glyph glyph-name="Icircumflex" unicode="&#xce;" horiz-adv-x="298" 
d="M111 1626q-6 12 -12 12t-12 -12l-41 -100q-7 -13 -17 -17t-24 0l-125 52q-12 5 -17 16q-5 12 0 24l66 159q6 19 16.5 38.5t24.5 38.5t30.5 35t32.5 27q29 19 66 19q32 0 58.5 -15t48 -38t37.5 -51t27 -55l65 -160q5 -13 0 -24q-4 -10 -17 -17l-125 -51q-12 -4 -24 0
q-11 6 -17 17zM166 1434q13 0 23 -9q9 -9 9 -22v-1372q0 -13 -9 -22q-10 -9 -23 -9h-135q-13 0 -22 9t-9 22v1372q0 13 9 22t22 9h135z" />
    <glyph glyph-name="Idieresis" unicode="&#xcf;" horiz-adv-x="298" 
d="M26 1685q20 0 36 -14q14 -16 14 -35v-86q0 -21 -15 -35t-35 -14h-85q-21 0 -34 15q-15 14 -15 34v86q0 20 14.5 34.5t34.5 14.5h85zM256 1685q20 0 36 -14q14 -16 14 -35v-86q0 -21 -15 -35t-35 -14h-85q-20 0 -34 15q-15 14 -15 34v86q0 20 14.5 34.5t34.5 14.5h85z
M166 1434q13 0 23 -9q9 -9 9 -22v-1372q0 -13 -9 -22q-10 -9 -23 -9h-135q-13 0 -22 9t-9 22v1372q0 13 9 22t22 9h135z" />
    <glyph glyph-name="Itilde" unicode="&#x128;" horiz-adv-x="298" 
d="M19 1620q-2 2 -4.5 3t-4.5 3q-5 2 -5 0l-3 -3l-80 -107q-7 -10 -20 -13q-12 -2 -23 6l-109 81q-10 7 -12 20q-1 12 6 24l80 107q8 11 18 22t22 22q25 20 55 35t63 15q36 0 71.5 -17t63.5 -40q26 -19 30 -24q4 -4 12 -10q7 -7 14 -7q2 2 2 3l80 109q9 11 21 12q12 2 23 -6
l109 -80q10 -7 12 -20q2 -14 -6 -23l-79 -109q-27 -37 -69 -65.5t-90 -28.5q-37 0 -71.5 16.5t-63.5 39.5q-26 20 -30 25q-3 3 -6 5.5t-6 4.5zM166 1434q13 0 23 -9q9 -9 9 -22v-1372q0 -13 -9 -22q-10 -9 -23 -9h-135q-13 0 -22 9t-9 22v1372q0 13 9 22t22 9h135z" />
    <glyph glyph-name="Imacron" unicode="&#x12a;" horiz-adv-x="298" 
d="M-172 1506q-13 0 -22 9t-9 22v135q0 13 9 22t22 9h542q13 0 22 -9t9 -22v-135q0 -13 -9 -22t-22 -9h-542zM166 1434q13 0 23 -9q9 -9 9 -22v-1372q0 -13 -9 -22q-10 -9 -23 -9h-135q-13 0 -22 9t-9 22v1372q0 13 9 22t22 9h135z" />
    <glyph glyph-name="Ibreve" unicode="&#x12c;" horiz-adv-x="298" 
d="M122 1704q11 4 15 19t4 25v150q0 14 8.5 23t22.5 9h135q13 0 22 -9.5t9 -22.5v-182q0 -48 -20.5 -87.5t-54 -67.5t-76.5 -43.5t-88 -15.5t-88 15.5t-76.5 43.5t-53.5 67.5t-20 87.5v182q0 13 9 22.5t22 9.5h135q13 0 22 -9.5t9 -22.5v-151q0 -10 4 -24.5t15 -18.5
q8 -4 22 -4q15 0 23 4zM166 1434q13 0 23 -9q9 -9 9 -22v-1372q0 -13 -9 -22q-10 -9 -23 -9h-135q-13 0 -22 9t-9 22v1372q0 13 9 22t22 9h135z" />
    <glyph glyph-name="Iogonek" unicode="&#x12e;" horiz-adv-x="298" 
d="M0 1403q0 13 9 22t22 9h135q13 0 23 -9q9 -9 9 -22v-1507q0 -10 1 -13q2 -5 12 -8q9 -4 23 -4h111q13 0 23 -9q9 -9 9 -22v-136q0 -13 -9.5 -22t-22.5 -9h-157q-45 0 -80 19.5t-59 51.5t-36.5 71.5t-12.5 80.5v1507z" />
    <glyph glyph-name="Idotaccent" unicode="&#x130;" horiz-adv-x="298" 
d="M49 1507q-24 0 -41 17t-17 41v101q0 24 17 41t41 17h100q24 0 41 -17t17 -41v-101q0 -24 -17 -41t-41 -17h-100zM166 1434q13 0 23 -9q9 -9 9 -22v-1372q0 -13 -9 -22q-10 -9 -23 -9h-135q-13 0 -22 9t-9 22v1372q0 13 9 22t22 9h135z" />
    <glyph glyph-name="lacute" unicode="&#x13a;" horiz-adv-x="298" 
d="M22 1572q-12 6 -17 17q-4 12 0 24l131 318q4 12 17 17q11 6 24 0l125 -51q11 -6 17 -17q5 -10 0 -24l-131 -318q-7 -13 -17 -17t-24 0zM166 1434q13 0 23 -9q9 -9 9 -22v-1372q0 -13 -9 -22q-10 -9 -23 -9h-135q-13 0 -22 9t-9 22v1372q0 13 9 22t22 9h135z" />
    <glyph glyph-name="uni013C" unicode="&#x13c;" horiz-adv-x="298" 
d="M166 1434q13 0 23 -9q9 -9 9 -22v-1372q0 -13 -9 -22q-10 -9 -23 -9h-135q-13 0 -22 9t-9 22v1372q0 13 9 22t22 9h135zM158 -89q25 0 41.5 -17.5t16.5 -41.5v-101q0 -24 -11 -53.5t-27 -48.5l-21 -25q-15 -15 -21 -15q-9 0 -4 28q2 8 3.5 14.5t3.5 13.5q2 12 0 20t-7 8
h-74q-24 0 -41 17t-17 41v101q0 24 16.5 41.5t41.5 17.5h100z" />
    <glyph glyph-name="lcaron" unicode="&#x13e;" horiz-adv-x="616" 
d="M458 1445q25 0 41 -17q17 -16 17 -41v-101q0 -12 -2.5 -25.5t-8.5 -27.5q-10 -29 -27 -49l-21 -25q-13 -15 -21 -15q-9 0 -4 28q2 8 3.5 14.5t3.5 13.5q1 6 1.5 11t-1.5 9q-2 8 -7 8h-74q-22 0 -41 17q-17 19 -17 41v101q0 24 17 41t41 17h100zM166 1434q13 0 23 -9
q9 -9 9 -22v-1372q0 -13 -9 -22q-10 -9 -23 -9h-135q-13 0 -22 9t-9 22v1372q0 13 9 22t22 9h135z" />
    <glyph glyph-name="ldot" unicode="&#x140;" horiz-adv-x="584" 
d="M166 1434q13 0 23 -9q9 -9 9 -22v-1372q0 -13 -9 -22q-10 -9 -23 -9h-135q-13 0 -22 9t-9 22v1372q0 13 9 22t22 9h135zM434 809q20 0 36 -14q14 -16 14 -35v-86q0 -21 -15 -35t-35 -14h-85q-20 0 -34 15q-15 14 -15 34v86q0 20 14.5 34.5t34.5 14.5h85z" />
    <glyph glyph-name="lslash" unicode="&#x142;" horiz-adv-x="990" 
d="M346 1403q0 13 9 22t22 9h135q13 0 23 -9q9 -9 9 -22v-306l176 249q8 12 20 13q14 2 23 -5l112 -77q10 -7 13 -20q2 -13 -6 -24l-338 -477v-725q0 -13 -9 -22q-10 -9 -23 -9h-135q-13 0 -22 9t-9 22v445l-177 -250q-7 -10 -20 -12q-13 -3 -23 4l-111 78q-12 8 -13 20
q-2 14 5 23l339 479v585z" />
    <glyph glyph-name="Jcircumflex" unicode="&#x134;" horiz-adv-x="1254" 
d="M1064 1626q-6 12 -12 12t-12 -12l-41 -100q-7 -13 -17 -17t-24 0l-125 52q-12 5 -17 16q-4 12 0 24l66 159q6 19 16.5 38.5t24.5 38.5t30.5 35t32.5 27q29 19 66 19q32 0 58.5 -15t48 -38t37.5 -51t27 -55l65 -160q5 -13 0 -24q-4 -10 -17 -17l-125 -51q-12 -4 -24 0
q-11 6 -17 17zM1154 283q0 -58 -22.5 -110t-61 -90t-90 -60.5t-109.5 -22.5h-840q-13 0 -22 10q-9 9 -9 22v140q0 13 9 22t22 9h840q33 0 56.5 23.5t23.5 56.5v1119q0 13 9 22q9 10 22 10h140q13 0 22 -10q10 -9 10 -22v-1119z" />
    <glyph glyph-name="uni0136" unicode="&#x136;" horiz-adv-x="1274" 
d="M229 713q-13 0 -22 -9t-9 -22v-651q0 -13 -9 -22t-22 -9h-135q-13 0 -22 9q-10 9 -10 22v1372q0 13 10 22q9 9 22 9h135q13 0 22 -9t9 -22v-461q0 -13 9 -22t22 -9h333q23 0 48 8.5t47.5 23t41.5 33t30 38.5l263 526q6 11 18 16q11 4 24 -2l121 -60q12 -6 15 -18
q4 -11 -1 -24l-263 -526q-28 -54 -75 -99q-8 -8 -10 -21q0 -12 9 -21q41 -46 64 -103l273 -715q3 -13 -1 -24q-6 -12 -17 -16l-127 -49q-11 -4 -24 1q-11 5 -16 17l-273 716q-8 20 -24 38t-36 32t-42.5 22.5t-44.5 8.5h-333zM600 -96q25 0 41.5 -17.5t16.5 -41.5v-101
q0 -24 -11 -53.5t-27 -48.5l-21 -25q-15 -15 -21 -15q-9 0 -4 28q2 8 3.5 14.5t3.5 13.5q2 12 0 20t-7 8h-74q-24 0 -41 17t-17 41v101q0 24 16.5 41.5t41.5 17.5h100z" />
    <glyph glyph-name="Lacute" unicode="&#x139;" horiz-adv-x="1237" 
d="M12 1558q-12 6 -17 17q-5 12 0 24l131 318q4 12 17 17q11 6 24 0l125 -51q11 -6 17 -17q5 -10 0 -24l-131 -318q-7 -13 -17 -17t-24 0zM1105 198q13 0 22 -9t9 -22v-136q0 -13 -9 -22t-22 -9h-1105v1403q0 13 9 22t22 9h135q13 0 23 -9q9 -9 9 -22v-1173q0 -12 9 -23
q9 -9 22 -9h876z" />
    <glyph glyph-name="uni013B" unicode="&#x13b;" horiz-adv-x="1237" 
d="M1105 198q13 0 22 -9t9 -22v-136q0 -13 -9 -22t-22 -9h-1105v1403q0 13 9 22t22 9h135q13 0 23 -9q9 -9 9 -22v-1173q0 -12 9 -23q9 -9 22 -9h876zM658 -109q25 0 41.5 -17.5t16.5 -41.5v-101q0 -24 -11 -53.5t-27 -48.5l-21 -25q-15 -15 -21 -15q-9 0 -4 28
q2 8 3.5 14.5t3.5 13.5q2 12 0 20t-7 8h-74q-24 0 -41 17t-17 41v101q0 24 16.5 41.5t41.5 17.5h100z" />
    <glyph glyph-name="Lcaron" unicode="&#x13d;" horiz-adv-x="1237" 
d="M488 1445q25 0 41 -17q17 -16 17 -41v-101q0 -12 -2.5 -25.5t-8.5 -27.5q-10 -29 -27 -49l-21 -25q-13 -15 -21 -15q-9 0 -4 28q2 8 3.5 14.5t3.5 13.5q1 6 1.5 11t-1.5 9q-2 8 -7 8h-74q-22 0 -41 17q-17 19 -17 41v101q0 24 17 41t41 17h100zM1105 198q13 0 22 -9
t9 -22v-136q0 -13 -9 -22t-22 -9h-1105v1403q0 13 9 22t22 9h135q13 0 23 -9q9 -9 9 -22v-1173q0 -12 9 -23q9 -9 22 -9h876z" />
    <glyph glyph-name="Ldot" unicode="&#x13f;" horiz-adv-x="1237" 
d="M1105 198q13 0 22 -9t9 -22v-136q0 -13 -9 -22t-22 -9h-1105v1403q0 13 9 22t22 9h135q13 0 23 -9q9 -9 9 -22v-1173q0 -12 9 -23q9 -9 22 -9h876zM631 809q20 0 35 -14t15 -35v-86q0 -19 -14 -35q-16 -14 -36 -14h-85q-20 0 -34.5 14.5t-14.5 34.5v86q0 21 15 34
q14 15 34 15h85z" />
    <glyph glyph-name="Lslash" unicode="&#x141;" horiz-adv-x="1487" 
d="M449 230q0 -13 9 -22q9 -10 22 -10h876q13 0 22 -9t9 -22v-136q0 -13 -9 -22t-22 -9h-1105v507l-103 -101q-9 -9 -22 -9t-22 9l-95 97q-8 10 -8 22q-1 13 9 22l241 236v620q0 12 9 22q9 9 22 9h135q13 0 23 -9q9 -10 9 -22v-426l91 89q8 9 22 9q13 -1 22 -9l95 -97
q9 -10 9 -23q-2 -14 -10 -21l-229 -224v-471z" />
    <glyph glyph-name="Eth" unicode="&#xd0;" horiz-adv-x="1562" 
d="M307 1399v6t1 10.5t2 10t3 4.5q4 0 6 2q0 1 9 2h850q59 0 110.5 -22t90 -60t61 -89t22.5 -110v-872q0 -59 -22.5 -110.5t-61.5 -89.5t-90.5 -59.5t-109.5 -21.5h-840h-12t-10 1l-9 2v615h-276q-13 0 -22 10q-9 9 -9 21v136q0 13 9 22t22 9h276v583zM511 232
q0 -13 9 -21.5t22 -8.5h636q33 0 56.5 22.5t23.5 56.5v872q0 32 -23 57q-25 23 -57 23h-636q-13 0 -22 -9t-9 -22v-386h262q12 0 22 -9q9 -9 9 -22v-136q0 -12 -9.5 -21.5t-21.5 -9.5h-262v-386z" />
    <glyph glyph-name="Dcaron" unicode="&#x10e;" horiz-adv-x="1254" 
d="M584 1818q6 -12 12 -12q5 0 11 12l4 10q6 11 17 17q12 5 24 0l125 -51q13 -7 17 -17q5 -13 0 -24l-28 -68q-7 -25 -23.5 -53t-39 -52t-50 -39.5t-57.5 -15.5q-26 0 -49 10.5t-42 27.5t-34.5 38.5t-26.5 42.5q-7 13 -12 23t-7 18l-66 160q-5 13 1 24q5 12 17 16l125 51
q10 5 24 0q11 -5 17 -17zM1155 281q0 -59 -22.5 -110t-61.5 -89t-90.5 -60t-109.5 -22h-840h-11.5t-10.5 1l-9 2v1396v7t1 10t2 9.5t3 4.5q3 0 4 1q2 0 2 1t9 2h850q59 0 110.5 -22t90 -60.5t61 -89.5t22.5 -109v-872zM235 1233q-13 0 -22 -9t-9 -22v-970q0 -13 9 -21.5
t22 -8.5h636q34 0 56 23q24 23 24 56v872q0 34 -24 56q-22 24 -56 24h-636z" />
    <glyph glyph-name="Dcroat" unicode="&#x110;" horiz-adv-x="1562" 
d="M307 1399v6t1 10.5t2 10t3 4.5q4 0 6 2q0 1 9 2h850q59 0 110.5 -22t90 -60t61 -89t22.5 -110v-872q0 -59 -22.5 -110.5t-61.5 -89.5t-90.5 -59.5t-109.5 -21.5h-840h-12t-10 1l-9 2v615h-276q-13 0 -22 10q-9 9 -9 21v136q0 13 9 22t22 9h276v583zM511 232
q0 -13 9 -21.5t22 -8.5h636q33 0 56.5 22.5t23.5 56.5v872q0 32 -23 57q-25 23 -57 23h-636q-13 0 -22 -9t-9 -22v-386h262q12 0 22 -9q9 -9 9 -22v-136q0 -12 -9.5 -21.5t-21.5 -9.5h-262v-386z" />
    <glyph glyph-name="Ntilde" unicode="&#xd1;" horiz-adv-x="1444" 
d="M632 1720q-2 2 -4.5 3t-4.5 3q-5 2 -5 0l-3 -3l-80 -107q-7 -10 -20 -13q-12 -2 -23 6l-109 81q-10 7 -12 20q-1 12 6 24l80 107q8 11 18 22t22 22q25 20 55 35t63 15q36 0 71.5 -17t63.5 -40q26 -19 30 -24q4 -4 12 -10q7 -7 14 -7q2 2 2 3l80 109q9 11 21 12
q12 2 23 -6l109 -80q10 -7 12 -20q2 -14 -6 -23l-79 -109q-27 -37 -69 -65.5t-90 -28.5q-37 0 -71.5 16.5t-63.5 39.5q-26 20 -30 25q-3 3 -6 5.5t-6 4.5zM217 1133q-8 8 -13 8q-7 0 -7 -14v-1096q0 -13 -9 -22t-22 -9h-135q-13 0 -22 9t-9 22v1398q0 35 18 60.5t50 38.5
q20 5 35 5q46 0 80 -40l944 -1186q8 -8 12 -8q7 0 7 15v1089q0 13 9 22t22 9h135q13 0 22.5 -9t9.5 -22v-1392q0 -21 -8 -40t-22 -33t-32.5 -22.5t-39.5 -8.5q-46 0 -82 40z" />
    <glyph glyph-name="Nacute" unicode="&#x143;" horiz-adv-x="1444" 
d="M615 1658q-12 6 -17 17q-4 12 0 24l131 318q4 12 17 17q11 6 24 0l125 -51q11 -6 17 -17q5 -10 0 -24l-131 -318q-7 -13 -17 -17t-24 0zM217 1133q-8 8 -13 8q-7 0 -7 -14v-1096q0 -13 -9 -22t-22 -9h-135q-13 0 -22 9t-9 22v1398q0 35 18 60.5t50 38.5q20 5 35 5
q46 0 80 -40l944 -1186q8 -8 12 -8q7 0 7 15v1089q0 13 9 22t22 9h135q13 0 22.5 -9t9.5 -22v-1392q0 -21 -8 -40t-22 -33t-32.5 -22.5t-39.5 -8.5q-46 0 -82 40z" />
    <glyph glyph-name="uni0145" unicode="&#x145;" horiz-adv-x="1444" 
d="M217 1133q-8 8 -13 8q-7 0 -7 -14v-1096q0 -13 -9 -22t-22 -9h-135q-13 0 -22 9t-9 22v1398q0 35 18 60.5t50 38.5q20 5 35 5q46 0 80 -40l944 -1186q8 -8 12 -8q7 0 7 15v1089q0 13 9 22t22 9h135q13 0 22.5 -9t9.5 -22v-1392q0 -21 -8 -40t-22 -33t-32.5 -22.5
t-39.5 -8.5q-46 0 -82 40zM736 -115q25 0 41.5 -17.5t16.5 -41.5v-101q0 -24 -11 -53.5t-27 -48.5l-21 -25q-15 -15 -21 -15q-9 0 -4 28q2 8 3.5 14.5t3.5 13.5q2 12 0 20t-7 8h-74q-24 0 -41 17t-17 41v101q0 24 16.5 41.5t41.5 17.5h100z" />
    <glyph glyph-name="Ncaron" unicode="&#x147;" horiz-adv-x="1444" 
d="M679 1918q6 -12 12 -12q5 0 11 12l4 10q6 11 17 17q12 5 24 0l125 -51q13 -7 17 -17q5 -13 0 -24l-28 -68q-7 -25 -23.5 -53t-39 -52t-50 -39.5t-57.5 -15.5q-26 0 -49 10.5t-42 27.5t-34.5 38.5t-26.5 42.5q-7 13 -12 23t-7 18l-66 160q-5 13 1 24q5 12 17 16l125 51
q10 5 24 0q11 -5 17 -17zM217 1133q-8 8 -13 8q-7 0 -7 -14v-1096q0 -13 -9 -22t-22 -9h-135q-13 0 -22 9t-9 22v1398q0 35 18 60.5t50 38.5q20 5 35 5q46 0 80 -40l944 -1186q8 -8 12 -8q7 0 7 15v1089q0 13 9 22t22 9h135q13 0 22.5 -9t9.5 -22v-1392q0 -21 -8 -40
t-22 -33t-32.5 -22.5t-39.5 -8.5q-46 0 -82 40z" />
    <glyph glyph-name="Ograve" unicode="&#xd2;" horiz-adv-x="1249" 
d="M365 1842q-6 14 0 24q4 11 17 17l125 51q12 6 24 0q12 -5 16 -17l131 -318q5 -12 0 -24q-5 -11 -17 -17l-125 -51q-12 -4 -24 0q-11 5 -17 17zM275 0q-58 0 -108 22t-87 59.5t-58.5 87.5t-21.5 107v882q0 58 21.5 108t59 87.5t87.5 59t107 21.5h598q58 0 108 -21.5
t87 -59t58.5 -88t21.5 -107.5v-882q0 -58 -21.5 -108t-59 -87.5t-87.5 -59t-107 -21.5h-598zM198 276q0 -32 22.5 -55t54.5 -23h598q32 0 55 23t23 55v882q0 32 -23 55t-55 23h-598q-33 0 -55 -22.5t-22 -55.5v-882z" />
    <glyph glyph-name="Oacute" unicode="&#xd3;" horiz-adv-x="1249" 
d="M487 1558q-12 6 -17 17q-4 12 0 24l131 318q4 12 17 17q11 6 24 0l125 -51q11 -6 17 -17q5 -10 0 -24l-131 -318q-7 -13 -17 -17t-24 0zM275 0q-58 0 -108 22t-87 59.5t-58.5 87.5t-21.5 107v882q0 58 21.5 108t59 87.5t87.5 59t107 21.5h598q58 0 108 -21.5t87 -59
t58.5 -88t21.5 -107.5v-882q0 -58 -21.5 -108t-59 -87.5t-87.5 -59t-107 -21.5h-598zM198 276q0 -32 22.5 -55t54.5 -23h598q32 0 55 23t23 55v882q0 32 -23 55t-55 23h-598q-33 0 -55 -22.5t-22 -55.5v-882z" />
    <glyph glyph-name="Ocircumflex" unicode="&#xd4;" horiz-adv-x="1249" 
d="M586 1626q-6 12 -12 12t-12 -12l-41 -100q-7 -13 -17 -17t-24 0l-125 52q-12 5 -17 16q-4 12 0 24l66 159q6 19 16.5 38.5t24.5 38.5t30.5 35t32.5 27q29 19 66 19q32 0 58.5 -15t48 -38t37.5 -51t27 -55l65 -160q5 -13 0 -24q-4 -10 -17 -17l-125 -51q-12 -4 -24 0
q-11 6 -17 17zM275 0q-58 0 -108 22t-87 59.5t-58.5 87.5t-21.5 107v882q0 58 21.5 108t59 87.5t87.5 59t107 21.5h598q58 0 108 -21.5t87 -59t58.5 -88t21.5 -107.5v-882q0 -58 -21.5 -108t-59 -87.5t-87.5 -59t-107 -21.5h-598zM198 276q0 -32 22.5 -55t54.5 -23h598
q32 0 55 23t23 55v882q0 32 -23 55t-55 23h-598q-33 0 -55 -22.5t-22 -55.5v-882z" />
    <glyph glyph-name="Otilde" unicode="&#xd5;" horiz-adv-x="1249" 
d="M494 1620q-2 2 -4.5 3t-4.5 3q-5 2 -5 0l-3 -3l-80 -107q-7 -10 -20 -13q-12 -2 -23 6l-109 81q-10 7 -12 20q-1 12 6 24l80 107q8 11 18 22t22 22q25 20 55 35t63 15q36 0 71.5 -17t63.5 -40q26 -19 30 -24q4 -4 12 -10q7 -7 14 -7q2 2 2 3l80 109q9 11 21 12
q12 2 23 -6l109 -80q10 -7 12 -20q2 -14 -6 -23l-79 -109q-27 -37 -69 -65.5t-90 -28.5q-37 0 -71.5 16.5t-63.5 39.5q-26 20 -30 25q-3 3 -6 5.5t-6 4.5zM275 0q-58 0 -108 22t-87 59.5t-58.5 87.5t-21.5 107v882q0 58 21.5 108t59 87.5t87.5 59t107 21.5h598
q58 0 108 -21.5t87 -59t58.5 -88t21.5 -107.5v-882q0 -58 -21.5 -108t-59 -87.5t-87.5 -59t-107 -21.5h-598zM198 276q0 -32 22.5 -55t54.5 -23h598q32 0 55 23t23 55v882q0 32 -23 55t-55 23h-598q-33 0 -55 -22.5t-22 -55.5v-882z" />
    <glyph glyph-name="Odieresis" unicode="&#xd6;" horiz-adv-x="1249" 
d="M501 1685q20 0 36 -14q14 -16 14 -35v-86q0 -21 -15 -35t-35 -14h-85q-20 0 -34 15q-15 14 -15 34v86q0 20 14.5 34.5t34.5 14.5h85zM731 1685q20 0 36 -14q14 -16 14 -35v-86q0 -21 -15 -35t-35 -14h-85q-20 0 -34 15q-15 14 -15 34v86q0 20 14.5 34.5t34.5 14.5h85z
M275 0q-58 0 -108 22t-87 59.5t-58.5 87.5t-21.5 107v882q0 58 21.5 108t59 87.5t87.5 59t107 21.5h598q58 0 108 -21.5t87 -59t58.5 -88t21.5 -107.5v-882q0 -58 -21.5 -108t-59 -87.5t-87.5 -59t-107 -21.5h-598zM198 276q0 -32 22.5 -55t54.5 -23h598q32 0 55 23t23 55
v882q0 32 -23 55t-55 23h-598q-33 0 -55 -22.5t-22 -55.5v-882z" />
    <glyph glyph-name="Omacron" unicode="&#x14c;" horiz-adv-x="1249" 
d="M303 1506q-13 0 -22 9t-9 22v135q0 13 9 22t22 9h542q13 0 22 -9t9 -22v-135q0 -13 -9 -22t-22 -9h-542zM275 0q-58 0 -108 22t-87 59.5t-58.5 87.5t-21.5 107v882q0 58 21.5 108t59 87.5t87.5 59t107 21.5h598q58 0 108 -21.5t87 -59t58.5 -88t21.5 -107.5v-882
q0 -58 -21.5 -108t-59 -87.5t-87.5 -59t-107 -21.5h-598zM198 276q0 -32 22.5 -55t54.5 -23h598q32 0 55 23t23 55v882q0 32 -23 55t-55 23h-598q-33 0 -55 -22.5t-22 -55.5v-882z" />
    <glyph glyph-name="Obreve" unicode="&#x14e;" horiz-adv-x="1249" 
d="M597 1704q11 4 15 19t4 25v150q0 14 8.5 23t22.5 9h135q13 0 22 -9.5t9 -22.5v-182q0 -48 -20.5 -87.5t-54 -67.5t-76.5 -43.5t-88 -15.5t-88 15.5t-76.5 43.5t-53.5 67.5t-20 87.5v182q0 13 9 22.5t22 9.5h135q13 0 22 -9.5t9 -22.5v-151q0 -10 4 -24.5t15 -18.5
q8 -4 22 -4q15 0 23 4zM275 0q-58 0 -108 22t-87 59.5t-58.5 87.5t-21.5 107v882q0 58 21.5 108t59 87.5t87.5 59t107 21.5h598q58 0 108 -21.5t87 -59t58.5 -88t21.5 -107.5v-882q0 -58 -21.5 -108t-59 -87.5t-87.5 -59t-107 -21.5h-598zM198 276q0 -32 22.5 -55t54.5 -23
h598q32 0 55 23t23 55v882q0 32 -23 55t-55 23h-598q-33 0 -55 -22.5t-22 -55.5v-882z" />
    <glyph glyph-name="Ohungarumlaut" unicode="&#x150;" horiz-adv-x="1249" 
d="M402 1741h100q24 0 41 -17t17 -41v-101q0 -22 -17 -41q-19 -17 -41 -17h-100q-24 0 -41 17t-17 41v101q0 25 17 41q16 17 41 17zM584 1683q0 24 17 41t41 17h100q24 0 41 -17t17 -41v-101q0 -24 -17 -41t-41 -17h-100q-24 0 -41 17t-17 41v101zM275 0q-58 0 -108 22
t-87 59.5t-58.5 87.5t-21.5 107v882q0 58 21.5 108t59 87.5t87.5 59t107 21.5h598q58 0 108 -21.5t87 -59t58.5 -88t21.5 -107.5v-882q0 -58 -21.5 -108t-59 -87.5t-87.5 -59t-107 -21.5h-598zM198 276q0 -32 22.5 -55t54.5 -23h598q32 0 55 23t23 55v882q0 32 -23 55
t-55 23h-598q-33 0 -55 -22.5t-22 -55.5v-882z" />
    <glyph glyph-name="multiply" unicode="&#xd7;" horiz-adv-x="683" 
d="M432 842q10 8 22 10q13 0 22 -9l97 -95q9 -9 9 -22q2 -12 -8 -22l-122 -125q-9 -9 -9 -22q0 -11 9 -22l122 -124q9 -11 8 -23q0 -11 -9 -22l-97 -94q-9 -9 -22 -9q-11 0 -22 9l-119 122q-9 9 -22 9q-12 0 -21 -9l-119 -122q-10 -9 -22 -9q-13 0 -22 9l-97 94q-9 11 -9 22
q-1 12 8 23l122 124q9 11 9 22q0 13 -9 22l-122 125q-10 10 -8 22q0 13 9 22l97 95q9 9 22 9q12 -2 22 -10l119 -121q9 -10 21 -10q13 0 22 10z" />
    <glyph glyph-name="Oslash" unicode="&#xd8;" horiz-adv-x="1479" 
d="M990 1431q48 0 94 -17q11 -4 26 -1q13 3 22 13l85 107q10 10 21 11q13 2 23 -7l105 -84q11 -9 12 -21q2 -13 -7 -23l-105 -131q-9 -12 -10 -26q-3 -15 0 -28q9 -33 9 -69v-879q0 -57 -21.5 -107.5t-59 -88t-87.5 -59t-107 -21.5h-598q-51 0 -96 18q-14 4 -26 1t-22 -13
l-85 -107q-9 -11 -21 -12q-11 -1 -23 7l-106 84q-10 10 -11 21q-1 13 6 23l107 133q9 12 10 26q3 15 0 28q-5 16 -6.5 33t-1.5 34v879q0 57 21.5 107.5t59 88t87.5 59t107 21.5h598zM392 1233q-32 0 -55 -23t-23 -55v-719q0 -15 7 -15q5 0 13 8l624 780q7 9 4 17q-3 7 -16 7
h-554zM990 198q32 0 55 23t23 55v723q0 14 -7 14q-5 0 -13 -8l-626 -783q-8 -9 -5 -17q3 -7 16 -7h557z" />
    <glyph glyph-name="Racute" unicode="&#x154;" horiz-adv-x="1249" 
d="M487 1558q-12 6 -17 17q-4 12 0 24l131 318q4 12 17 17q11 6 24 0l125 -51q11 -6 17 -17q5 -10 0 -24l-131 -318q-7 -13 -17 -17t-24 0zM229 445q-13 0 -22 -9t-9 -22v-383q0 -13 -9 -22q-10 -9 -23 -9h-135q-13 0 -22 9t-9 22v1372q0 13 9 22t22 9h842q58 0 108 -22
t87 -60t58.5 -88t21.5 -107v-436q0 -84 -45 -152q-7 -11 -7 -25t7 -25q45 -67 45 -152v-336q0 -13 -9 -22t-22 -9h-135q-13 0 -22 9t-9 22v336q0 32 -23 55t-55 23h-644zM229 1235q-13 0 -22 -9t-9 -22v-529q0 -13 9 -22q9 -10 22 -10h644q16 1 30 7t24.5 16.5t17 24.5
t6.5 30v436q0 33 -22.5 55.5t-55.5 22.5h-644z" />
    <glyph glyph-name="uni0156" unicode="&#x156;" horiz-adv-x="1249" 
d="M229 445q-13 0 -22 -9t-9 -22v-383q0 -13 -9 -22q-10 -9 -23 -9h-135q-13 0 -22 9t-9 22v1372q0 13 9 22t22 9h842q58 0 108 -22t87 -60t58.5 -88t21.5 -107v-436q0 -84 -45 -152q-7 -11 -7 -25t7 -25q45 -67 45 -152v-336q0 -13 -9 -22t-22 -9h-135q-13 0 -22 9t-9 22
v336q0 32 -23 55t-55 23h-644zM229 1235q-13 0 -22 -9t-9 -22v-529q0 -13 9 -22q9 -10 22 -10h644q16 1 30 7t24.5 16.5t17 24.5t6.5 30v436q0 33 -22.5 55.5t-55.5 22.5h-644zM657 -72q25 0 41.5 -17.5t16.5 -41.5v-101q0 -24 -11 -53.5t-27 -48.5l-21 -25q-15 -15 -21 -15
q-9 0 -4 28q2 8 3.5 14.5t3.5 13.5q2 12 0 20t-7 8h-74q-24 0 -41 17t-17 41v101q0 24 16.5 41.5t41.5 17.5h100z" />
    <glyph glyph-name="Rcaron" unicode="&#x158;" horiz-adv-x="1249" 
d="M581 1818q6 -12 12 -12q5 0 11 12l4 10q6 11 17 17q12 5 24 0l125 -51q13 -7 17 -17q5 -13 0 -24l-28 -68q-7 -25 -23.5 -53t-39 -52t-50 -39.5t-57.5 -15.5q-26 0 -49 10.5t-42 27.5t-34.5 38.5t-26.5 42.5q-7 13 -12 23t-7 18l-66 160q-5 13 1 24q5 12 17 16l125 51
q10 5 24 0q11 -5 17 -17zM229 445q-13 0 -22 -9t-9 -22v-383q0 -13 -9 -22q-10 -9 -23 -9h-135q-13 0 -22 9t-9 22v1372q0 13 9 22t22 9h842q58 0 108 -22t87 -60t58.5 -88t21.5 -107v-436q0 -84 -45 -152q-7 -11 -7 -25t7 -25q45 -67 45 -152v-336q0 -13 -9 -22t-22 -9
h-135q-13 0 -22 9t-9 22v336q0 32 -23 55t-55 23h-644zM229 1235q-13 0 -22 -9t-9 -22v-529q0 -13 9 -22q9 -10 22 -10h644q16 1 30 7t24.5 16.5t17 24.5t6.5 30v436q0 33 -22.5 55.5t-55.5 22.5h-644z" />
    <glyph glyph-name="uni0162" unicode="&#x162;" horiz-adv-x="1237" 
d="M469 1205q0 13 -9 22t-22 9h-407q-13 0 -22 9t-9 22v136q0 13 9 22t22 9h1074q13 0 22 -9t9 -22v-136q0 -13 -9 -22t-22 -9h-407q-13 0 -22 -9t-9 -22v-1309q0 -41 -12.5 -81t-37 -71.5t-59.5 -51t-80 -19.5h-157q-13 0 -22 10q-9 9 -9 21v136q0 13 9 22t22 9h112
q14 0 23 4q10 3 12 8q1 3 1 13v1309z" />
    <glyph glyph-name="Tcaron" unicode="&#x164;" horiz-adv-x="1237" 
d="M575 1818q6 -12 12 -12q5 0 11 12l4 10q6 11 17 17q12 5 24 0l125 -51q13 -7 17 -17q5 -13 0 -24l-28 -68q-7 -25 -23.5 -53t-39 -52t-50 -39.5t-57.5 -15.5q-26 0 -49 10.5t-42 27.5t-34.5 38.5t-26.5 42.5q-7 13 -12 23t-7 18l-66 160q-5 13 1 24q5 12 17 16l125 51
q10 5 24 0q11 -5 17 -17zM500 0q-11 0 -22 9q-9 9 -9 22v1174q0 13 -9 22t-22 9h-407q-13 0 -22 9t-9 22v136q0 13 9 22t22 9h1074q13 0 22 -9t9 -22v-136q0 -13 -9 -22t-22 -9h-407q-13 0 -22 -9t-9 -22v-1174q0 -13 -9 -22t-22 -9h-136z" />
    <glyph glyph-name="Tbar" unicode="&#x166;" horiz-adv-x="1237" 
d="M667 31q0 -13 -9 -22t-22 -9h-136q-12 0 -21 9q-10 9 -10 22v587h-272q-13 0 -22 10q-9 9 -9 21v136q0 13 9 22t22 9h272v389q0 13 -9 22t-22 9h-407q-13 0 -22 9t-9 22v136q0 13 9 22t22 9h1074q13 0 22 -9t9 -22v-136q0 -13 -9 -22t-22 -9h-407q-13 0 -22 -9t-9 -22
v-389h272q13 0 22 -9t9 -22v-136q0 -12 -9 -21q-9 -10 -22 -10h-272v-587z" />
    <glyph glyph-name="Ugrave" unicode="&#xd9;" horiz-adv-x="1249" 
d="M365 1842q-6 14 0 24q4 11 17 17l125 51q12 6 24 0q12 -5 16 -17l131 -318q5 -12 0 -24q-5 -11 -17 -17l-125 -51q-12 -4 -24 0q-11 5 -17 17zM873 198q32 0 55 23t23 55v1127q0 13 9 22t22 9h135q13 0 22 -9t9 -22v-1127q0 -58 -21.5 -108t-59 -87.5t-87.5 -59
t-107 -21.5h-598q-58 0 -108 22t-87 59.5t-58.5 87.5t-21.5 107v1127q0 13 9 22t22 9h136q12 0 22 -9q9 -9 9 -22v-1127q0 -32 22.5 -55t54.5 -23h598z" />
    <glyph glyph-name="Uacute" unicode="&#xda;" horiz-adv-x="1249" 
d="M487 1558q-12 6 -17 17q-4 12 0 24l131 318q4 12 17 17q11 6 24 0l125 -51q11 -6 17 -17q5 -10 0 -24l-131 -318q-7 -13 -17 -17t-24 0zM873 198q32 0 55 23t23 55v1127q0 13 9 22t22 9h135q13 0 22 -9t9 -22v-1127q0 -58 -21.5 -108t-59 -87.5t-87.5 -59t-107 -21.5
h-598q-58 0 -108 22t-87 59.5t-58.5 87.5t-21.5 107v1127q0 13 9 22t22 9h136q12 0 22 -9q9 -9 9 -22v-1127q0 -32 22.5 -55t54.5 -23h598z" />
    <glyph glyph-name="Ucircumflex" unicode="&#xdb;" horiz-adv-x="1249" 
d="M586 1626q-6 12 -12 12t-12 -12l-41 -100q-7 -13 -17 -17t-24 0l-125 52q-12 5 -17 16q-4 12 0 24l66 159q6 19 16.5 38.5t24.5 38.5t30.5 35t32.5 27q29 19 66 19q32 0 58.5 -15t48 -38t37.5 -51t27 -55l65 -160q5 -13 0 -24q-4 -10 -17 -17l-125 -51q-12 -4 -24 0
q-11 6 -17 17zM873 198q32 0 55 23t23 55v1127q0 13 9 22t22 9h135q13 0 22 -9t9 -22v-1127q0 -58 -21.5 -108t-59 -87.5t-87.5 -59t-107 -21.5h-598q-58 0 -108 22t-87 59.5t-58.5 87.5t-21.5 107v1127q0 13 9 22t22 9h136q12 0 22 -9q9 -9 9 -22v-1127q0 -32 22.5 -55
t54.5 -23h598z" />
    <glyph glyph-name="Udieresis" unicode="&#xdc;" horiz-adv-x="1249" 
d="M501 1685q20 0 36 -14q14 -16 14 -35v-86q0 -21 -15 -35t-35 -14h-85q-20 0 -34 15q-15 14 -15 34v86q0 20 14.5 34.5t34.5 14.5h85zM731 1685q20 0 36 -14q14 -16 14 -35v-86q0 -21 -15 -35t-35 -14h-85q-20 0 -34 15q-15 14 -15 34v86q0 20 14.5 34.5t34.5 14.5h85z
M873 198q32 0 55 23t23 55v1127q0 13 9 22t22 9h135q13 0 22 -9t9 -22v-1127q0 -58 -21.5 -108t-59 -87.5t-87.5 -59t-107 -21.5h-598q-58 0 -108 22t-87 59.5t-58.5 87.5t-21.5 107v1127q0 13 9 22t22 9h136q12 0 22 -9q9 -9 9 -22v-1127q0 -32 22.5 -55t54.5 -23h598z" />
    <glyph glyph-name="Utilde" unicode="&#x168;" horiz-adv-x="1249" 
d="M494 1620q-2 2 -4.5 3t-4.5 3q-5 2 -5 0l-3 -3l-80 -107q-7 -10 -20 -13q-12 -2 -23 6l-109 81q-10 7 -12 20q-1 12 6 24l80 107q8 11 18 22t22 22q25 20 55 35t63 15q36 0 71.5 -17t63.5 -40q26 -19 30 -24q4 -4 12 -10q7 -7 14 -7q2 2 2 3l80 109q9 11 21 12
q12 2 23 -6l109 -80q10 -7 12 -20q2 -14 -6 -23l-79 -109q-27 -37 -69 -65.5t-90 -28.5q-37 0 -71.5 16.5t-63.5 39.5q-26 20 -30 25q-3 3 -6 5.5t-6 4.5zM873 198q32 0 55 23t23 55v1127q0 13 9 22t22 9h135q13 0 22 -9t9 -22v-1127q0 -58 -21.5 -108t-59 -87.5t-87.5 -59
t-107 -21.5h-598q-58 0 -108 22t-87 59.5t-58.5 87.5t-21.5 107v1127q0 13 9 22t22 9h136q12 0 22 -9q9 -9 9 -22v-1127q0 -32 22.5 -55t54.5 -23h598z" />
    <glyph glyph-name="Umacron" unicode="&#x16a;" horiz-adv-x="1249" 
d="M303 1506q-13 0 -22 9t-9 22v135q0 13 9 22t22 9h542q13 0 22 -9t9 -22v-135q0 -13 -9 -22t-22 -9h-542zM873 198q32 0 55 23t23 55v1127q0 13 9 22t22 9h135q13 0 22 -9t9 -22v-1127q0 -58 -21.5 -108t-59 -87.5t-87.5 -59t-107 -21.5h-598q-58 0 -108 22t-87 59.5
t-58.5 87.5t-21.5 107v1127q0 13 9 22t22 9h136q12 0 22 -9q9 -9 9 -22v-1127q0 -32 22.5 -55t54.5 -23h598z" />
    <glyph glyph-name="Ubreve" unicode="&#x16c;" horiz-adv-x="1249" 
d="M597 1704q11 4 15 19t4 25v150q0 14 8.5 23t22.5 9h135q13 0 22 -9.5t9 -22.5v-182q0 -48 -20.5 -87.5t-54 -67.5t-76.5 -43.5t-88 -15.5t-88 15.5t-76.5 43.5t-53.5 67.5t-20 87.5v182q0 13 9 22.5t22 9.5h135q13 0 22 -9.5t9 -22.5v-151q0 -10 4 -24.5t15 -18.5
q8 -4 22 -4q15 0 23 4zM873 198q32 0 55 23t23 55v1127q0 13 9 22t22 9h135q13 0 22 -9t9 -22v-1127q0 -58 -21.5 -108t-59 -87.5t-87.5 -59t-107 -21.5h-598q-58 0 -108 22t-87 59.5t-58.5 87.5t-21.5 107v1127q0 13 9 22t22 9h136q12 0 22 -9q9 -9 9 -22v-1127
q0 -32 22.5 -55t54.5 -23h598z" />
    <glyph glyph-name="Uring" unicode="&#x16e;" horiz-adv-x="1249" 
d="M813 1716q0 -48 -20.5 -87.5t-54 -67.5t-76.5 -43.5t-88 -15.5t-88 15.5t-76.5 43.5t-54 67.5t-20.5 87.5t20.5 87.5t54 67.5t76.5 43.5t88 15.5t88 -15.5t76.5 -43.5t54 -67.5t20.5 -87.5zM543 1716q0 -7 9 -13q9 -3 22 -3t22 3q9 6 9 13q0 11 -11.5 13.5t-19.5 2.5
t-19.5 -2.5t-11.5 -13.5zM873 198q32 0 55 23t23 55v1127q0 13 9 22t22 9h135q13 0 22 -9t9 -22v-1127q0 -58 -21.5 -108t-59 -87.5t-87.5 -59t-107 -21.5h-598q-58 0 -108 22t-87 59.5t-58.5 87.5t-21.5 107v1127q0 13 9 22t22 9h136q12 0 22 -9q9 -9 9 -22v-1127
q0 -32 22.5 -55t54.5 -23h598z" />
    <glyph glyph-name="Uhungarumlaut" unicode="&#x170;" horiz-adv-x="1249" 
d="M415 1766h100q24 0 41 -17t17 -41v-101q0 -22 -17 -41q-19 -17 -41 -17h-100q-24 0 -41 17t-17 41v101q0 25 17 41q16 17 41 17zM597 1708q0 24 17 41t41 17h100q24 0 41 -17t17 -41v-101q0 -24 -17 -41t-41 -17h-100q-24 0 -41 17t-17 41v101zM873 198q32 0 55 23t23 55
v1127q0 13 9 22t22 9h135q13 0 22 -9t9 -22v-1127q0 -58 -21.5 -108t-59 -87.5t-87.5 -59t-107 -21.5h-598q-58 0 -108 22t-87 59.5t-58.5 87.5t-21.5 107v1127q0 13 9 22t22 9h136q12 0 22 -9q9 -9 9 -22v-1127q0 -32 22.5 -55t54.5 -23h598z" />
    <glyph glyph-name="Uogonek" unicode="&#x172;" horiz-adv-x="1249" 
d="M275 0q-57 0 -107.5 22t-87.5 59.5t-58.5 88t-21.5 106.5v1127q0 13 9 22t22 9h136q12 0 22 -9q9 -9 9 -22v-1127q0 -32 22.5 -55t54.5 -23h598q32 0 55 23t23 55v1127q0 13 9 22t22 9h135q13 0 22 -9t9 -22v-1127q0 -57 -21.5 -107t-59 -87.5t-87.5 -59.5t-107 -22h-162
v-104q0 -10 1 -13q2 -5 12 -8q9 -4 23 -4h111q13 0 23 -9q9 -9 9 -22v-136q0 -13 -9.5 -22t-22.5 -9h-157q-45 0 -80 19.5t-59 51.5t-36.5 71.5t-12.5 80.5v104h-238z" />
    <glyph glyph-name="Wcircumflex" unicode="&#x174;" horiz-adv-x="1749" 
d="M837 1626q-6 12 -12 12t-12 -12l-41 -100q-7 -13 -17 -17t-24 0l-125 52q-12 5 -17 16q-4 12 0 24l66 159q6 19 16.5 38.5t24.5 38.5t30.5 35t32.5 27q29 19 66 19q32 0 58.5 -15t48 -38t37.5 -51t27 -55l65 -160q5 -13 0 -24q-4 -10 -17 -17l-125 -51q-12 -4 -24 0
q-11 6 -17 17zM1120 466q5 -13 10 -13q4 0 9 13l293 939q4 11 16 21q11 8 25 8h150q13 0 20 -8q6 -9 2 -21l-415 -1329q-21 -60 -80 -74q-5 -1 -10 -1.5t-10 -0.5t-10.5 0.5t-10.5 1.5q-59 14 -80 74l-195 624q-9 24 -18 0l-195 -624q-23 -61 -81 -74q-5 -1 -10 -1.5
t-10 -0.5t-10 0.5t-10 1.5q-59 14 -80 74l-416 1329q-3 12 3 21q5 8 19 8h151q6 0 12.5 -1.5t11.5 -6.5q11 -8 16 -21l294 -939q5 -13 9 -13t9 13l287 915q9 24 18 0z" />
    <glyph glyph-name="Yacute" unicode="&#xdd;" horiz-adv-x="1493" 
d="M609 1558q-12 6 -17 17q-4 12 0 24l131 318q4 12 17 17q11 6 24 0l125 -51q11 -6 17 -17q5 -10 0 -24l-131 -318q-7 -13 -17 -17t-24 0zM1124 1410q9 11 23 17.5t28 6.5h198q13 0 16 -7q4 -6 -4 -17l-567 -706q-10 -11 -14 -26q-6 -16 -6 -29v-647q0 -1 -9 -1
q-5 -1 -10.5 -1h-11.5h-141h-12t-10 1q-9 0 -9 1v653q0 12 -6 29t-14 26l-567 700q-9 10 -5 17q3 7 16 7h200q13 0 27 -7q15 -6 23 -17l410 -505q9 -10 19 -10q11 0 20 10z" />
    <glyph glyph-name="Ydieresis" unicode="&#x178;" horiz-adv-x="1493" 
d="M623 1685q20 0 36 -14q14 -16 14 -35v-86q0 -21 -15 -35t-35 -14h-85q-20 0 -34 15q-15 14 -15 34v86q0 20 14.5 34.5t34.5 14.5h85zM853 1685q20 0 36 -14q14 -16 14 -35v-86q0 -21 -15 -35t-35 -14h-85q-20 0 -34 15q-15 14 -15 34v86q0 20 14.5 34.5t34.5 14.5h85z
M1124 1410q9 11 23 17.5t28 6.5h198q13 0 16 -7q4 -6 -4 -17l-567 -706q-10 -11 -14 -26q-6 -16 -6 -29v-647q0 -1 -9 -1q-5 -1 -10.5 -1h-11.5h-141h-12t-10 1q-9 0 -9 1v653q0 12 -6 29t-14 26l-567 700q-9 10 -5 17q3 7 16 7h200q13 0 27 -7q15 -6 23 -17l410 -505
q9 -10 19 -10q11 0 20 10z" />
    <glyph glyph-name="Ycircumflex" unicode="&#x176;" horiz-adv-x="1493" 
d="M708 1626q-6 12 -12 12t-12 -12l-41 -100q-7 -13 -17 -17t-24 0l-125 52q-12 5 -17 16q-4 12 0 24l66 159q6 19 16.5 38.5t24.5 38.5t30.5 35t32.5 27q29 19 66 19q32 0 58.5 -15t48 -38t37.5 -51t27 -55l65 -160q5 -13 0 -24q-4 -10 -17 -17l-125 -51q-12 -4 -24 0
q-11 6 -17 17zM1124 1410q9 11 23 17.5t28 6.5h198q13 0 16 -7q4 -6 -4 -17l-567 -706q-10 -11 -14 -26q-6 -16 -6 -29v-647q0 -1 -9 -1q-5 -1 -10.5 -1h-11.5h-141h-12t-10 1q-9 0 -9 1v653q0 12 -6 29t-14 26l-567 700q-9 10 -5 17q3 7 16 7h200q13 0 27 -7q15 -6 23 -17
l410 -505q9 -10 19 -10q11 0 20 10z" />
    <glyph glyph-name="Thorn" unicode="&#xde;" horiz-adv-x="1248" 
d="M873 1234q58 0 108.5 -22t87.5 -59.5t58 -88t21 -107.5v-488q0 -57 -21.5 -107.5t-59 -88t-87.5 -59.5t-107 -22h-644q-13 0 -22 -9t-9 -22v-330q0 -13 -9 -22q-10 -9 -23 -9h-135q-13 0 -22 9t-9 22v1722q0 13 9 22t22 9h135q13 0 23 -9q9 -9 9 -22v-319h675zM198 422
q0 -13 9 -22t22 -9h644q32 0 55 23t23 55v488q0 32 -22.5 55.5t-55.5 23.5h-644q-13 0 -22 -9q-9 -10 -9 -23v-582z" />
    <glyph glyph-name="germandbls" unicode="&#xdf;" horiz-adv-x="1249" 
d="M873 1400q57 0 107.5 -21.5t88 -59t59 -87.5t21.5 -107v-133q0 -83 -46 -152q-7 -10 -7 -25q0 -14 7 -25q46 -69 46 -151v-327q0 -57 -22 -107.5t-59.5 -87.5t-87.5 -58.5t-107 -21.5h-644q-13 0 -22 -9t-9 -22v-424q0 -13 -9 -22t-22 -9h-136q-13 0 -22 9t-9 22v1543
q0 57 21.5 107.5t59 87.5t87.5 58.5t107 21.5h598zM275 1203q-16 0 -30 -6.5t-24.5 -17t-16.5 -24.5t-6 -30v-180q0 -13 9 -22t22 -9h644q32 0 55 23t23 55v133q0 32 -23 55t-55 23h-598zM873 235q16 0 30 6t24.5 16.5t17 24.5t6.5 30v327q0 32 -23 55t-55 23h-644
q-13 0 -22 -10q-9 -9 -9 -22v-419q0 -13 9 -22t22 -9h644z" />
    <glyph glyph-name="agrave" unicode="&#xe0;" horiz-adv-x="1114" 
d="M376 1326q-6 14 0 24q4 11 17 17l125 51q12 6 24 0q12 -5 16 -17l131 -318q5 -12 0 -24q-5 -11 -17 -17l-125 -51q-12 -4 -24 0q-11 5 -17 17zM0 277q0 58 22 108t59.5 87t87.5 58.5t107 21.5h510q13 0 22 9q9 11 9 22v54q0 32 -23 55t-55 23h-475q-13 0 -22 9
q-10 9 -10 22v135q0 13 10 22q9 9 22 9h475q57 0 107.5 -21.5t87.5 -59t58.5 -87.5t21.5 -107v-606q0 -13 -9 -22t-22 -9h-707q-57 0 -107.5 21.5t-88 59t-59 87.5t-21.5 107v2zM786 197q13 0 22 9q9 11 9 22v96q0 13 -9 22t-22 9h-510q-32 0 -55 -23t-23 -55v-2
q0 -32 23 -55t55 -23h510z" />
    <glyph glyph-name="aacute" unicode="&#xe1;" horiz-adv-x="1114" 
d="M448 1042q-12 6 -17 17q-4 12 0 24l131 318q4 12 17 17q11 6 24 0l125 -51q11 -6 17 -17q5 -10 0 -24l-131 -318q-7 -13 -17 -17t-24 0zM0 277q0 58 22 108t59.5 87t87.5 58.5t107 21.5h510q13 0 22 9q9 11 9 22v54q0 32 -23 55t-55 23h-475q-13 0 -22 9q-10 9 -10 22
v135q0 13 10 22q9 9 22 9h475q57 0 107.5 -21.5t87.5 -59t58.5 -87.5t21.5 -107v-606q0 -13 -9 -22t-22 -9h-707q-57 0 -107.5 21.5t-88 59t-59 87.5t-21.5 107v2zM786 197q13 0 22 9q9 11 9 22v96q0 13 -9 22t-22 9h-510q-32 0 -55 -23t-23 -55v-2q0 -32 23 -55t55 -23h510
z" />
    <glyph glyph-name="acircumflex" unicode="&#xe2;" horiz-adv-x="1114" 
d="M587 1120q-6 12 -12 12t-12 -12l-41 -100q-7 -13 -17 -17t-24 0l-125 52q-12 5 -17 16q-4 12 0 24l66 159q6 19 16.5 38.5t24.5 38.5t30.5 35t32.5 27q29 19 66 19q32 0 58.5 -15t48 -38t37.5 -51t27 -55l65 -160q5 -13 0 -24q-4 -10 -17 -17l-125 -51q-12 -4 -24 0
q-11 6 -17 17zM0 277q0 58 22 108t59.5 87t87.5 58.5t107 21.5h510q13 0 22 9q9 11 9 22v54q0 32 -23 55t-55 23h-475q-13 0 -22 9q-10 9 -10 22v135q0 13 10 22q9 9 22 9h475q57 0 107.5 -21.5t87.5 -59t58.5 -87.5t21.5 -107v-606q0 -13 -9 -22t-22 -9h-707
q-57 0 -107.5 21.5t-88 59t-59 87.5t-21.5 107v2zM786 197q13 0 22 9q9 11 9 22v96q0 13 -9 22t-22 9h-510q-32 0 -55 -23t-23 -55v-2q0 -32 23 -55t55 -23h510z" />
    <glyph glyph-name="atilde" unicode="&#xe3;" horiz-adv-x="1114" 
d="M485 1114q-2 2 -4.5 3t-4.5 3q-5 2 -5 0l-3 -3l-80 -107q-7 -10 -20 -13q-12 -2 -23 6l-109 81q-10 7 -12 20q-1 12 6 24l80 107q8 11 18 22t22 22q25 20 55 35t63 15q36 0 71.5 -17t63.5 -40q26 -19 30 -24q4 -4 12 -10q7 -7 14 -7q2 2 2 3l80 109q9 11 21 12
q12 2 23 -6l109 -80q10 -7 12 -20q2 -14 -6 -23l-79 -109q-27 -37 -69 -65.5t-90 -28.5q-37 0 -71.5 16.5t-63.5 39.5q-26 20 -30 25q-3 3 -6 5.5t-6 4.5zM0 277q0 58 22 108t59.5 87t87.5 58.5t107 21.5h510q13 0 22 9q9 11 9 22v54q0 32 -23 55t-55 23h-475q-13 0 -22 9
q-10 9 -10 22v135q0 13 10 22q9 9 22 9h475q57 0 107.5 -21.5t87.5 -59t58.5 -87.5t21.5 -107v-606q0 -13 -9 -22t-22 -9h-707q-57 0 -107.5 21.5t-88 59t-59 87.5t-21.5 107v2zM786 197q13 0 22 9q9 11 9 22v96q0 13 -9 22t-22 9h-510q-32 0 -55 -23t-23 -55v-2
q0 -32 23 -55t55 -23h510z" />
    <glyph glyph-name="adieresis" unicode="&#xe4;" horiz-adv-x="1114" 
d="M498 1188q20 0 36 -14q14 -16 14 -35v-86q0 -21 -15 -35t-35 -14h-85q-20 0 -34 15q-15 14 -15 34v86q0 20 14.5 34.5t34.5 14.5h85zM728 1188q20 0 36 -14q14 -16 14 -35v-86q0 -21 -15 -35t-35 -14h-85q-20 0 -34 15q-15 14 -15 34v86q0 20 14.5 34.5t34.5 14.5h85z
M0 277q0 58 22 108t59.5 87t87.5 58.5t107 21.5h510q13 0 22 9q9 11 9 22v54q0 32 -23 55t-55 23h-475q-13 0 -22 9q-10 9 -10 22v135q0 13 10 22q9 9 22 9h475q57 0 107.5 -21.5t87.5 -59t58.5 -87.5t21.5 -107v-606q0 -13 -9 -22t-22 -9h-707q-57 0 -107.5 21.5t-88 59
t-59 87.5t-21.5 107v2zM786 197q13 0 22 9q9 11 9 22v96q0 13 -9 22t-22 9h-510q-32 0 -55 -23t-23 -55v-2q0 -32 23 -55t55 -23h510z" />
    <glyph glyph-name="aring" unicode="&#xe5;" horiz-adv-x="1114" 
d="M821 1219q0 -48 -20.5 -87.5t-54 -67.5t-76.5 -43.5t-88 -15.5t-88 15.5t-76.5 43.5t-54 67.5t-20.5 87.5t20.5 87.5t54 67.5t76.5 43.5t88 15.5t88 -15.5t76.5 -43.5t54 -67.5t20.5 -87.5zM551 1219q0 -7 9 -13q9 -3 22 -3t22 3q9 6 9 13q0 11 -11.5 13.5t-19.5 2.5
t-19.5 -2.5t-11.5 -13.5zM0 277q0 58 22 108t59.5 87t87.5 58.5t107 21.5h510q13 0 22 9q9 11 9 22v54q0 32 -23 55t-55 23h-475q-13 0 -22 9q-10 9 -10 22v135q0 13 10 22q9 9 22 9h475q57 0 107.5 -21.5t87.5 -59t58.5 -87.5t21.5 -107v-606q0 -13 -9 -22t-22 -9h-707
q-57 0 -107.5 21.5t-88 59t-59 87.5t-21.5 107v2zM786 197q13 0 22 9q9 11 9 22v96q0 13 -9 22t-22 9h-510q-32 0 -55 -23t-23 -55v-2q0 -32 23 -55t55 -23h510z" />
    <glyph glyph-name="amacron" unicode="&#x101;" horiz-adv-x="1114" 
d="M300 1004q-13 0 -22 9t-9 22v135q0 13 9 22t22 9h542q13 0 22 -9t9 -22v-135q0 -13 -9 -22t-22 -9h-542zM0 277q0 58 22 108t59.5 87t87.5 58.5t107 21.5h510q13 0 22 9q9 11 9 22v54q0 32 -23 55t-55 23h-475q-13 0 -22 9q-10 9 -10 22v135q0 13 10 22q9 9 22 9h475
q57 0 107.5 -21.5t87.5 -59t58.5 -87.5t21.5 -107v-606q0 -13 -9 -22t-22 -9h-707q-57 0 -107.5 21.5t-88 59t-59 87.5t-21.5 107v2zM786 197q13 0 22 9q9 11 9 22v96q0 13 -9 22t-22 9h-510q-32 0 -55 -23t-23 -55v-2q0 -32 23 -55t55 -23h510z" />
    <glyph glyph-name="abreve" unicode="&#x103;" horiz-adv-x="1114" 
d="M584 1197q11 4 15 19t4 25v150q0 14 8.5 23t22.5 9h135q13 0 22 -9.5t9 -22.5v-182q0 -48 -20.5 -87.5t-54 -67.5t-76.5 -43.5t-88 -15.5t-88 15.5t-76.5 43.5t-53.5 67.5t-20 87.5v182q0 13 9 22.5t22 9.5h135q13 0 22 -9.5t9 -22.5v-151q0 -10 4 -24.5t15 -18.5
q8 -4 22 -4q15 0 23 4zM0 277q0 58 22 108t59.5 87t87.5 58.5t107 21.5h510q13 0 22 9q9 11 9 22v54q0 32 -23 55t-55 23h-475q-13 0 -22 9q-10 9 -10 22v135q0 13 10 22q9 9 22 9h475q57 0 107.5 -21.5t87.5 -59t58.5 -87.5t21.5 -107v-606q0 -13 -9 -22t-22 -9h-707
q-57 0 -107.5 21.5t-88 59t-59 87.5t-21.5 107v2zM786 197q13 0 22 9q9 11 9 22v96q0 13 -9 22t-22 9h-510q-32 0 -55 -23t-23 -55v-2q0 -32 23 -55t55 -23h510z" />
    <glyph glyph-name="aogonek" unicode="&#x105;" horiz-adv-x="1114" 
d="M276 0q-57 0 -107 21.5t-87.5 59t-59.5 87.5t-22 107v2q0 57 22 107.5t59.5 87.5t87.5 58.5t107 21.5h510q13 0 22 10q9 9 9 21v54q0 32 -23 55t-55 23h-475q-13 0 -22 9q-10 9 -10 22v135q0 13 10 22q9 9 22 9h475q58 0 108 -21.5t87 -59t58.5 -87.5t21.5 -107v-542
q1 -2 1 -8v-191q0 -10 1 -13q2 -5 12 -8q9 -4 23 -4h111q13 0 23 -9q9 -9 9 -22v-136q0 -13 -9.5 -22t-22.5 -9h-157q-45 0 -80 19.5t-59 51.5t-36.5 71.5t-12.5 80.5v104h-541zM786 197q13 0 22 10q9 9 9 21v96q0 12 -9 22q-9 9 -22 9h-510q-32 0 -55 -23t-23 -55v-2
q0 -32 23 -55t55 -23h510z" />
    <glyph glyph-name="ae" unicode="&#xe6;" horiz-adv-x="1943" 
d="M1812 198q13 0 22 -9q9 -10 9 -22v-136q0 -13 -9 -22t-22 -9h-720q-12 0 -24 1t-24 3q-12 3 -21 3q-9 2 -9 -1q0 -2 -4.5 -3t-9.5 -2t-10 -1h-7h-708q-57 0 -107.5 21.5t-87.5 59t-58.5 87.5t-21.5 107v2q0 57 21.5 107.5t59 88t87.5 59t107 21.5h510q13 0 22.5 9t9.5 22
v53q0 32 -23 55t-55 23h-476q-13 0 -22 9t-9 22v135q0 13 9 22t22 9h476q84 0 151 -45q11 -7 25 -7q15 0 25 7q69 46 152 46h463q54 0 104 -19.5t88.5 -54.5t61 -82t22.5 -103t-23 -103.5t-61 -82t-88 -54t-104 -19.5h-510q-8 0 -19.5 -4.5t-11.5 -15.5v-100q0 -33 23 -55
t55 -22h720zM1092 715q-32 0 -55 -23t-23 -55v-22q0 -8 9 -16q9 -6 22 -6h510q13 0 27 4t25 11.5t18.5 19t7.5 26.5t-7.5 26t-19 19t-25 12t-26.5 4h-463zM198 275q0 -32 22 -55q23 -22 55 -22h510q13 0 22.5 9t9.5 22v95q0 13 -9.5 22t-22.5 9h-510q-33 0 -55 -23t-22 -55
v-2z" />
    <glyph glyph-name="oe" unicode="&#x153;" horiz-adv-x="1947" 
d="M0 641q0 57 21.5 107.5t59 87.5t87.5 58.5t107 21.5h476q82 0 150 -44q10 -6 25 -8q8 0 14 2t12 5q65 42 144 42h464q55 0 104.5 -19.5t87.5 -54t60.5 -82t22.5 -103.5q0 -57 -22.5 -104.5t-61 -82t-88 -53.5t-103.5 -19h-503q-13 0 -22 -9t-9 -22v-104q0 -6 3 -18
q8 -22 26 -33t41 -11h720q13 0 22 -9q9 -10 9 -22v-136q0 -13 -9 -22t-22 -9h-720q-82 0 -147 43q-11 7 -25 7q-15 0 -26 -7q-65 -43 -147 -43h-476q-57 0 -107.5 21.5t-87.5 59t-58.5 87.5t-21.5 107v366zM822 653q0 8 -3 20q-4 13 -13 23q-23 23 -55 23h-476
q-32 0 -54.5 -23t-22.5 -55v-366q0 -32 22 -55q23 -22 55 -22h476q20 0 41 11.5t26 32.5q5 12 3 18v377q0 11 1 16zM1096 715q-31 0 -53 -22q-9 -8 -14 -21q-3 -12 -3 -18v-37q0 -12 10 -18t21 -6h503q13 0 27 4t25 12t18.5 19t7.5 26t-7.5 26t-19 19t-25 12t-26.5 4h-464z
" />
    <glyph glyph-name="ccedilla" unicode="&#xe7;" 
d="M275 0q-57 0 -107.5 21.5t-87.5 59t-58.5 87.5t-21.5 107v362q0 58 21.5 108t59 87t87.5 58.5t107 21.5h708q13 0 22 -9t9 -22v-135q0 -13 -9 -22t-22 -9h-708q-32 0 -55 -23t-23 -55v-362q0 -32 23 -55t55 -23h720q13 0 22 -9t9 -22v-135q0 -13 -9 -22t-22 -9h-295v-104
q0 -41 -12.5 -81t-37 -71.5t-59.5 -51t-80 -19.5h-157q-13 0 -22 10q-9 9 -9 21v136q0 13 9 22t22 9h112q14 0 23 4q10 3 12 8q1 3 1 13v104h-227z" />
    <glyph glyph-name="ccircumflex" unicode="&#x109;" 
d="M568 1110q-6 12 -12 12t-12 -12l-41 -100q-7 -13 -17 -17t-24 0l-125 52q-12 5 -17 16q-4 12 0 24l66 159q6 19 16.5 38.5t24.5 38.5t30.5 35t32.5 27q29 19 66 19q32 0 58.5 -15t48 -38t37.5 -51t27 -55l65 -160q5 -13 0 -24q-4 -10 -17 -17l-125 -51q-12 -4 -24 0
q-11 6 -17 17zM275 0q-57 0 -107.5 21.5t-87.5 59t-58.5 87.5t-21.5 107v362q0 57 21.5 107.5t59 87.5t87.5 58.5t107 21.5h708q13 0 22 -9t9 -22v-135q0 -13 -9 -22t-22 -9h-708q-32 0 -55 -23t-23 -55v-362q0 -32 23 -55t55 -23h720q13 0 22 -9t9 -22v-135q0 -13 -9 -22
t-22 -9h-720z" />
    <glyph glyph-name="cdotaccent" unicode="&#x10b;" 
d="M506 1001q-24 0 -41 17t-17 41v101q0 24 17 41t41 17h100q24 0 41 -17t17 -41v-101q0 -24 -17 -41t-41 -17h-100zM275 0q-57 0 -107.5 21.5t-87.5 59t-58.5 87.5t-21.5 107v362q0 57 21.5 107.5t59 87.5t87.5 58.5t107 21.5h708q13 0 22 -9t9 -22v-135q0 -13 -9 -22
t-22 -9h-708q-32 0 -55 -23t-23 -55v-362q0 -32 23 -55t55 -23h720q13 0 22 -9t9 -22v-135q0 -13 -9 -22t-22 -9h-720z" />
    <glyph glyph-name="ccaron" unicode="&#x10d;" 
d="M553 1292q6 -12 12 -12q5 0 11 12l4 10q6 11 17 17q12 5 24 0l125 -51q13 -7 17 -17q5 -13 0 -24l-28 -68q-7 -25 -23.5 -53t-39 -52t-50 -39.5t-57.5 -15.5q-26 0 -49 10.5t-42 27.5t-34.5 38.5t-26.5 42.5q-7 13 -12 23t-7 18l-66 160q-5 13 1 24q5 12 17 16l125 51
q10 5 24 0q11 -5 17 -17zM275 0q-57 0 -107.5 21.5t-87.5 59t-58.5 87.5t-21.5 107v362q0 57 21.5 107.5t59 87.5t87.5 58.5t107 21.5h708q13 0 22 -9t9 -22v-135q0 -13 -9 -22t-22 -9h-708q-32 0 -55 -23t-23 -55v-362q0 -32 23 -55t55 -23h720q13 0 22 -9t9 -22v-135
q0 -13 -9 -22t-22 -9h-720z" />
    <glyph glyph-name="cacute" unicode="&#x107;" 
d="M453 1056q-12 6 -17 17q-4 12 0 24l131 318q4 12 17 17q11 6 24 0l125 -51q11 -6 17 -17q5 -10 0 -24l-131 -318q-7 -13 -17 -17t-24 0zM275 0q-57 0 -107.5 21.5t-87.5 59t-58.5 87.5t-21.5 107v362q0 57 21.5 107.5t59 87.5t87.5 58.5t107 21.5h708q13 0 22 -9t9 -22
v-135q0 -13 -9 -22t-22 -9h-708q-32 0 -55 -23t-23 -55v-362q0 -32 23 -55t55 -23h720q13 0 22 -9t9 -22v-135q0 -13 -9 -22t-22 -9h-720z" />
    <glyph glyph-name="egrave" unicode="&#xe8;" horiz-adv-x="1127" 
d="M330 1336q-6 14 0 24q4 11 17 17l125 51q12 6 24 0q12 -5 16 -17l131 -318q5 -12 0 -24q-5 -11 -17 -17l-125 -51q-12 -4 -24 0q-11 5 -17 17zM276 0q-57 0 -107.5 21.5t-88 59t-59 87.5t-21.5 107v362q0 57 22 107.5t59.5 87.5t87.5 58.5t107 21.5h463q54 0 104 -19.5
t88.5 -54t61 -81.5t22.5 -103q0 -57 -23 -104.5t-61 -82t-88 -53.5t-104 -19h-510q-13 0 -22 -9t-9 -22v-89q0 -32 23 -55t55 -23h720q12 0 22 -9q9 -9 9 -22v-135q0 -13 -9 -22q-10 -9 -22 -9h-720zM276 715q-32 0 -55 -23t-23 -55v-22q0 -11 10.5 -17t20.5 -6h510
q13 0 26.5 4t25 12t19 19.5t7.5 26.5q0 14 -7.5 25.5t-19 19.5t-25.5 12t-26 4h-463z" />
    <glyph glyph-name="eacute" unicode="&#xe9;" horiz-adv-x="1127" 
d="M412 1052q-12 6 -17 17q-4 12 0 24l131 318q4 12 17 17q11 6 24 0l125 -51q11 -6 17 -17q5 -10 0 -24l-131 -318q-7 -13 -17 -17t-24 0zM276 0q-57 0 -107.5 21.5t-88 59t-59 87.5t-21.5 107v362q0 57 22 107.5t59.5 87.5t87.5 58.5t107 21.5h463q54 0 104 -19.5
t88.5 -54t61 -81.5t22.5 -103q0 -57 -23 -104.5t-61 -82t-88 -53.5t-104 -19h-510q-13 0 -22 -9t-9 -22v-89q0 -32 23 -55t55 -23h720q12 0 22 -9q9 -9 9 -22v-135q0 -13 -9 -22q-10 -9 -22 -9h-720zM276 715q-32 0 -55 -23t-23 -55v-22q0 -11 10.5 -17t20.5 -6h510
q13 0 26.5 4t25 12t19 19.5t7.5 26.5q0 14 -7.5 25.5t-19 19.5t-25.5 12t-26 4h-463z" />
    <glyph glyph-name="ecircumflex" unicode="&#xea;" horiz-adv-x="1127" 
d="M541 1120q-6 12 -12 12t-12 -12l-41 -100q-7 -13 -17 -17t-24 0l-125 52q-12 5 -17 16q-4 12 0 24l66 159q6 19 16.5 38.5t24.5 38.5t30.5 35t32.5 27q29 19 66 19q32 0 58.5 -15t48 -38t37.5 -51t27 -55l65 -160q5 -13 0 -24q-4 -10 -17 -17l-125 -51q-12 -4 -24 0
q-11 6 -17 17zM276 0q-57 0 -107.5 21.5t-88 59t-59 87.5t-21.5 107v362q0 57 22 107.5t59.5 87.5t87.5 58.5t107 21.5h463q54 0 104 -19.5t88.5 -54t61 -81.5t22.5 -103q0 -57 -23 -104.5t-61 -82t-88 -53.5t-104 -19h-510q-13 0 -22 -9t-9 -22v-89q0 -32 23 -55t55 -23
h720q12 0 22 -9q9 -9 9 -22v-135q0 -13 -9 -22q-10 -9 -22 -9h-720zM276 715q-32 0 -55 -23t-23 -55v-22q0 -11 10.5 -17t20.5 -6h510q13 0 26.5 4t25 12t19 19.5t7.5 26.5q0 14 -7.5 25.5t-19 19.5t-25.5 12t-26 4h-463z" />
    <glyph glyph-name="edieresis" unicode="&#xeb;" horiz-adv-x="1127" 
d="M446 1183q20 0 36 -14q14 -16 14 -35v-86q0 -21 -15 -35t-35 -14h-85q-20 0 -34 15q-15 14 -15 34v86q0 20 14.5 34.5t34.5 14.5h85zM676 1183q20 0 36 -14q14 -16 14 -35v-86q0 -21 -15 -35t-35 -14h-85q-20 0 -34 15q-15 14 -15 34v86q0 20 14.5 34.5t34.5 14.5h85z
M276 0q-57 0 -107.5 21.5t-88 59t-59 87.5t-21.5 107v362q0 57 22 107.5t59.5 87.5t87.5 58.5t107 21.5h463q54 0 104 -19.5t88.5 -54t61 -81.5t22.5 -103q0 -57 -23 -104.5t-61 -82t-88 -53.5t-104 -19h-510q-13 0 -22 -9t-9 -22v-89q0 -32 23 -55t55 -23h720q12 0 22 -9
q9 -9 9 -22v-135q0 -13 -9 -22q-10 -9 -22 -9h-720zM276 715q-32 0 -55 -23t-23 -55v-22q0 -11 10.5 -17t20.5 -6h510q13 0 26.5 4t25 12t19 19.5t7.5 26.5q0 14 -7.5 25.5t-19 19.5t-25.5 12t-26 4h-463z" />
    <glyph glyph-name="emacron" unicode="&#x113;" horiz-adv-x="1127" 
d="M233 999q-13 0 -22 9t-9 22v135q0 13 9 22t22 9h542q13 0 22 -9t9 -22v-135q0 -13 -9 -22t-22 -9h-542zM276 0q-57 0 -107.5 21.5t-88 59t-59 87.5t-21.5 107v362q0 57 22 107.5t59.5 87.5t87.5 58.5t107 21.5h463q54 0 104 -19.5t88.5 -54t61 -81.5t22.5 -103
q0 -57 -23 -104.5t-61 -82t-88 -53.5t-104 -19h-510q-13 0 -22 -9t-9 -22v-89q0 -32 23 -55t55 -23h720q12 0 22 -9q9 -9 9 -22v-135q0 -13 -9 -22q-10 -9 -22 -9h-720zM276 715q-32 0 -55 -23t-23 -55v-22q0 -11 10.5 -17t20.5 -6h510q13 0 26.5 4t25 12t19 19.5t7.5 26.5
q0 14 -7.5 25.5t-19 19.5t-25.5 12t-26 4h-463z" />
    <glyph glyph-name="ebreve" unicode="&#x115;" horiz-adv-x="1127" 
d="M532 1207q11 4 15 19t4 25v150q0 14 8.5 23t22.5 9h135q13 0 22 -9.5t9 -22.5v-182q0 -48 -20.5 -87.5t-54 -67.5t-76.5 -43.5t-88 -15.5t-88 15.5t-76.5 43.5t-53.5 67.5t-20 87.5v182q0 13 9 22.5t22 9.5h135q13 0 22 -9.5t9 -22.5v-151q0 -10 4 -24.5t15 -18.5
q8 -4 22 -4q15 0 23 4zM276 0q-57 0 -107.5 21.5t-88 59t-59 87.5t-21.5 107v362q0 57 22 107.5t59.5 87.5t87.5 58.5t107 21.5h463q54 0 104 -19.5t88.5 -54t61 -81.5t22.5 -103q0 -57 -23 -104.5t-61 -82t-88 -53.5t-104 -19h-510q-13 0 -22 -9t-9 -22v-89q0 -32 23 -55
t55 -23h720q12 0 22 -9q9 -9 9 -22v-135q0 -13 -9 -22q-10 -9 -22 -9h-720zM276 715q-32 0 -55 -23t-23 -55v-22q0 -11 10.5 -17t20.5 -6h510q13 0 26.5 4t25 12t19 19.5t7.5 26.5q0 14 -7.5 25.5t-19 19.5t-25.5 12t-26 4h-463z" />
    <glyph glyph-name="edotaccent" unicode="&#x117;" horiz-adv-x="1127" 
d="M485 1000q-24 0 -41 17t-17 41v101q0 24 17 41t41 17h100q24 0 41 -17t17 -41v-101q0 -24 -17 -41t-41 -17h-100zM276 0q-57 0 -107.5 21.5t-88 59t-59 87.5t-21.5 107v362q0 57 22 107.5t59.5 87.5t87.5 58.5t107 21.5h463q54 0 104 -19.5t88.5 -54t61 -81.5t22.5 -103
q0 -57 -23 -104.5t-61 -82t-88 -53.5t-104 -19h-510q-13 0 -22 -9t-9 -22v-89q0 -32 23 -55t55 -23h720q12 0 22 -9q9 -9 9 -22v-135q0 -13 -9 -22q-10 -9 -22 -9h-720zM276 715q-32 0 -55 -23t-23 -55v-22q0 -11 10.5 -17t20.5 -6h510q13 0 26.5 4t25 12t19 19.5t7.5 26.5
q0 14 -7.5 25.5t-19 19.5t-25.5 12t-26 4h-463z" />
    <glyph glyph-name="eogonek" unicode="&#x119;" horiz-adv-x="1127" 
d="M276 0q-57 0 -107 21.5t-87.5 59t-59.5 87.5t-22 107v362q0 57 22 107.5t59.5 87.5t87.5 58.5t107 21.5h463q55 0 105 -19.5t88 -54t60.5 -81.5t22.5 -103q0 -57 -22.5 -104.5t-61 -82t-88.5 -53.5t-104 -19h-510q-13 0 -22 -9t-9 -22v-89q0 -32 23 -55t55 -23h720
q12 0 22 -9q9 -9 9 -22v-270q0 -10 1 -13q2 -5 12 -8q9 -4 23 -4h111q13 0 23 -9q9 -9 9 -22v-136q0 -13 -9.5 -22t-22.5 -9h-157q-45 0 -80 19.5t-59 51.5t-36.5 71.5t-12.5 80.5v104h-553zM276 715q-32 0 -55 -23t-23 -55v-22q0 -10 9 -16q8 -7 22 -7h510q13 0 27 4t25 12
t18.5 19.5t7.5 26.5t-7.5 26t-19 19t-25 12t-26.5 4h-463z" />
    <glyph glyph-name="ecaron" unicode="&#x11b;" horiz-adv-x="1127" 
d="M516 1292q6 -12 12 -12q5 0 11 12l4 10q6 11 17 17q12 5 24 0l125 -51q13 -7 17 -17q5 -13 0 -24l-28 -68q-7 -25 -23.5 -53t-39 -52t-50 -39.5t-57.5 -15.5q-26 0 -49 10.5t-42 27.5t-34.5 38.5t-26.5 42.5q-7 13 -12 23t-7 18l-66 160q-5 13 1 24q5 12 17 16l125 51
q10 5 24 0q11 -5 17 -17zM276 0q-57 0 -107.5 21.5t-88 59t-59 87.5t-21.5 107v362q0 57 22 107.5t59.5 87.5t87.5 58.5t107 21.5h463q54 0 104 -19.5t88.5 -54t61 -81.5t22.5 -103q0 -57 -23 -104.5t-61 -82t-88 -53.5t-104 -19h-510q-13 0 -22 -9t-9 -22v-89q0 -32 23 -55
t55 -23h720q12 0 22 -9q9 -9 9 -22v-135q0 -13 -9 -22q-10 -9 -22 -9h-720zM276 715q-32 0 -55 -23t-23 -55v-22q0 -11 10.5 -17t20.5 -6h510q13 0 26.5 4t25 12t19 19.5t7.5 26.5q0 14 -7.5 25.5t-19 19.5t-25.5 12t-26 4h-463z" />
    <glyph glyph-name="gcircumflex" unicode="&#x11d;" 
d="M525 1110q-6 12 -12 12t-12 -12l-41 -100q-7 -13 -17 -17t-24 0l-125 52q-12 5 -17 16q-4 12 0 24l66 159q6 19 16.5 38.5t24.5 38.5t30.5 35t32.5 27q29 19 66 19q32 0 58.5 -15t48 -38t37.5 -51t27 -55l65 -160q5 -13 0 -24q-4 -10 -17 -17l-125 -51q-12 -4 -24 0
q-11 6 -17 17zM0 633q0 57 21.5 107.5t59 87.5t87.5 58.5t107 21.5h476q57 0 107.5 -21.5t87.5 -59t58.5 -87.5t21.5 -107v-813q0 -57 -21.5 -107.5t-59 -87.5t-87.5 -58.5t-107 -21.5h-720q-13 0 -22 9t-9 22v135q0 13 9 22t22 9h720q32 0 54.5 23t22.5 55v149q0 11 -9 22
q-9 9 -22 9h-522q-57 0 -107.5 21.5t-87.5 59t-58.5 87.5t-21.5 107v358zM828 633q0 32 -22 55q-23 22 -55 22h-476q-32 0 -55 -22.5t-23 -54.5v-358q0 -32 23 -55t55 -23h522q13 0 22 9t9 22v405z" />
    <glyph glyph-name="gbreve" unicode="&#x11f;" 
d="M536 1198q11 4 15 19t4 25v150q0 14 8.5 23t22.5 9h135q13 0 22 -9.5t9 -22.5v-182q0 -48 -20.5 -87.5t-54 -67.5t-76.5 -43.5t-88 -15.5t-88 15.5t-76.5 43.5t-53.5 67.5t-20 87.5v182q0 13 9 22.5t22 9.5h135q13 0 22 -9.5t9 -22.5v-151q0 -10 4 -24.5t15 -18.5
q8 -4 22 -4q15 0 23 4zM0 633q0 57 21.5 107.5t59 87.5t87.5 58.5t107 21.5h476q57 0 107.5 -21.5t87.5 -59t58.5 -87.5t21.5 -107v-813q0 -57 -21.5 -107.5t-59 -87.5t-87.5 -58.5t-107 -21.5h-720q-13 0 -22 9t-9 22v135q0 13 9 22t22 9h720q32 0 54.5 23t22.5 55v149
q0 11 -9 22q-9 9 -22 9h-522q-57 0 -107.5 21.5t-87.5 59t-58.5 87.5t-21.5 107v358zM828 633q0 32 -22 55q-23 22 -55 22h-476q-32 0 -55 -22.5t-23 -54.5v-358q0 -32 23 -55t55 -23h522q13 0 22 9t9 22v405z" />
    <glyph glyph-name="gdotaccent" unicode="&#x121;" 
d="M463 1001q-24 0 -41 17t-17 41v101q0 24 17 41t41 17h100q24 0 41 -17t17 -41v-101q0 -24 -17 -41t-41 -17h-100zM0 633q0 57 21.5 107.5t59 87.5t87.5 58.5t107 21.5h476q57 0 107.5 -21.5t87.5 -59t58.5 -87.5t21.5 -107v-813q0 -57 -21.5 -107.5t-59 -87.5
t-87.5 -58.5t-107 -21.5h-720q-13 0 -22 9t-9 22v135q0 13 9 22t22 9h720q32 0 54.5 23t22.5 55v149q0 11 -9 22q-9 9 -22 9h-522q-57 0 -107.5 21.5t-87.5 59t-58.5 87.5t-21.5 107v358zM828 633q0 32 -22 55q-23 22 -55 22h-476q-32 0 -55 -22.5t-23 -54.5v-358
q0 -32 23 -55t55 -23h522q13 0 22 9t9 22v405z" />
    <glyph glyph-name="uni0123" unicode="&#x123;" 
d="M478 994q-22 0 -41 17q-17 19 -17 41v101q0 12 3 26t8 28t12 26.5t15 21.5l21 25q15 15 21 15q9 0 4 -27q-2 -8 -3 -15t-3 -13q-3 -11 -1 -20t7 -9h74q25 0 41 -17q17 -16 17 -41v-101q0 -24 -17 -41t-41 -17h-100zM0 633q0 57 21.5 107.5t59 87.5t87.5 58.5t107 21.5
h476q57 0 107.5 -21.5t87.5 -59t58.5 -87.5t21.5 -107v-813q0 -57 -21.5 -107.5t-59 -87.5t-87.5 -58.5t-107 -21.5h-720q-13 0 -22 9t-9 22v135q0 13 9 22t22 9h720q32 0 54.5 23t22.5 55v149q0 11 -9 22q-9 9 -22 9h-522q-57 0 -107.5 21.5t-87.5 59t-58.5 87.5t-21.5 107
v358zM828 633q0 32 -22 55q-23 22 -55 22h-476q-32 0 -55 -22.5t-23 -54.5v-358q0 -32 23 -55t55 -23h522q13 0 22 9t9 22v405z" />
    <glyph glyph-name="hcircumflex" unicode="&#x125;" horiz-adv-x="1127" 
d="M521 1590q-6 12 -12 12t-12 -12l-41 -100q-7 -13 -17 -17t-24 0l-125 52q-12 5 -17 16q-4 12 0 24l66 159q6 19 16.5 38.5t24.5 38.5t30.5 35t32.5 27q29 19 66 19q32 0 58.5 -15t48 -38t37.5 -51t27 -55l65 -160q5 -13 0 -24q-4 -10 -17 -17l-125 -51q-12 -4 -24 0
q-11 6 -17 17zM198 933q0 -12 9 -20q10 -6 22 -5q11 2 23 3t24 1h475q57 0 107.5 -21.5t88 -59t59 -87.5t21.5 -107v-606q0 -13 -9 -22t-22 -9h-136q-13 0 -22 9t-9 22v606q0 32 -23 55t-55 23h-475q-12 0 -25.5 -4t-25.5 -11.5t-19.5 -18t-7.5 -24.5v-626q0 -13 -9 -22
t-22 -9h-135q-13 0 -22.5 9t-9.5 22v1336q0 13 9.5 22t22.5 9h135q13 0 22 -9t9 -22v-434z" />
    <glyph glyph-name="hbar" unicode="&#x127;" horiz-adv-x="1287" 
d="M358 933q0 -12 9 -20q8 -7 22 -5q11 2 23 3t24 1h475q58 0 108 -21.5t87.5 -59t59 -87.5t21.5 -107v-606q0 -13 -9 -22t-22 -9h-136q-13 0 -22 9t-9 22v606q0 33 -22.5 55.5t-55.5 22.5h-475q-12 0 -25.5 -3.5t-25.5 -11t-19.5 -18.5t-7.5 -25v-626q0 -13 -9 -22t-22 -9
h-135q-13 0 -22 9q-10 9 -10 22v1059h-129q-13 0 -22 9t-9 22v135q0 13 9 22t22 9h129v80q0 13 10 22q9 9 22 9h135q13 0 22 -9t9 -22v-80h415q12 0 22 -9q9 -9 9 -22v-135q0 -13 -9 -22q-10 -9 -22 -9h-415v-157z" />
    <glyph glyph-name="igrave" unicode="&#xec;" horiz-adv-x="298" 
d="M-110 1336q-6 14 0 24q4 11 17 17l125 51q12 6 24 0q12 -5 16 -17l131 -318q5 -12 0 -24q-5 -11 -17 -17l-125 -51q-12 -4 -24 0q-11 5 -17 17zM31 0q-12 0 -21 9q-10 9 -10 22v846q0 12 9.5 21.5t21.5 9.5h136q13 0 22 -9q9 -10 9 -22v-846q0 -13 -9 -22t-22 -9h-136z
" />
    <glyph glyph-name="iacute" unicode="&#xed;" horiz-adv-x="298" 
d="M12 1052q-12 6 -17 17q-5 12 0 24l131 318q4 12 17 17q11 6 24 0l125 -51q11 -6 17 -17q5 -10 0 -24l-131 -318q-7 -13 -17 -17t-24 0zM31 0q-12 0 -21 9q-10 9 -10 22v846q0 12 9.5 21.5t21.5 9.5h136q13 0 22 -9q9 -10 9 -22v-846q0 -13 -9 -22t-22 -9h-136z" />
    <glyph glyph-name="icircumflex" unicode="&#xee;" horiz-adv-x="298" 
d="M111 1130q-6 12 -12 12t-12 -12l-41 -100q-7 -13 -17 -17t-24 0l-125 52q-12 5 -17 16q-5 12 0 24l66 159q6 19 16.5 38.5t24.5 38.5t30.5 35t32.5 27q29 19 66 19q32 0 58.5 -15t48 -38t37.5 -51t27 -55l65 -160q5 -13 0 -24q-4 -10 -17 -17l-125 -51q-12 -4 -24 0
q-11 6 -17 17zM31 0q-12 0 -21 9q-10 9 -10 22v846q0 12 9.5 21.5t21.5 9.5h136q13 0 22 -9q9 -10 9 -22v-846q0 -13 -9 -22t-22 -9h-136z" />
    <glyph glyph-name="idieresis" unicode="&#xef;" horiz-adv-x="298" 
d="M26 1179q20 0 36 -14q14 -16 14 -35v-86q0 -21 -15 -35t-35 -14h-85q-21 0 -34 15q-15 14 -15 34v86q0 20 14.5 34.5t34.5 14.5h85zM256 1179q20 0 36 -14q14 -16 14 -35v-86q0 -21 -15 -35t-35 -14h-85q-20 0 -34 15q-15 14 -15 34v86q0 20 14.5 34.5t34.5 14.5h85z
M31 0q-12 0 -21 9q-10 9 -10 22v846q0 12 9.5 21.5t21.5 9.5h136q13 0 22 -9q9 -10 9 -22v-846q0 -13 -9 -22t-22 -9h-136z" />
    <glyph glyph-name="itilde" unicode="&#x129;" horiz-adv-x="298" 
d="M19 1094q-2 2 -4.5 3t-4.5 3q-5 2 -5 0l-3 -3l-80 -107q-7 -10 -20 -13q-12 -2 -23 6l-109 81q-10 7 -12 20q-1 12 6 24l80 107q8 11 18 22t22 22q25 20 55 35t63 15q36 0 71.5 -17t63.5 -40q26 -19 30 -24q4 -4 12 -10q7 -7 14 -7q2 2 2 3l80 109q9 11 21 12q12 2 23 -6
l109 -80q10 -7 12 -20q2 -14 -6 -23l-79 -109q-27 -37 -69 -65.5t-90 -28.5q-37 0 -71.5 16.5t-63.5 39.5q-26 20 -30 25q-3 3 -6 5.5t-6 4.5zM31 0q-12 0 -21 9q-10 9 -10 22v846q0 12 9.5 21.5t21.5 9.5h136q13 0 22 -9q9 -10 9 -22v-846q0 -13 -9 -22t-22 -9h-136z" />
    <glyph glyph-name="imacron" unicode="&#x12b;" horiz-adv-x="298" 
d="M-172 990q-13 0 -22 9t-9 22v135q0 13 9 22t22 9h542q13 0 22 -9t9 -22v-135q0 -13 -9 -22t-22 -9h-542zM31 0q-12 0 -21 9q-10 9 -10 22v846q0 12 9.5 21.5t21.5 9.5h136q13 0 22 -9q9 -10 9 -22v-846q0 -13 -9 -22t-22 -9h-136z" />
    <glyph glyph-name="ibreve" unicode="&#x12d;" horiz-adv-x="298" 
d="M122 1198q11 4 15 19t4 25v150q0 14 8.5 23t22.5 9h135q13 0 22 -9.5t9 -22.5v-182q0 -48 -20.5 -87.5t-54 -67.5t-76.5 -43.5t-88 -15.5t-88 15.5t-76.5 43.5t-53.5 67.5t-20 87.5v182q0 13 9 22.5t22 9.5h135q13 0 22 -9.5t9 -22.5v-151q0 -10 4 -24.5t15 -18.5
q8 -4 22 -4q15 0 23 4zM31 0q-12 0 -21 9q-10 9 -10 22v846q0 12 9.5 21.5t21.5 9.5h136q13 0 22 -9q9 -10 9 -22v-846q0 -13 -9 -22t-22 -9h-136z" />
    <glyph glyph-name="iogonek" unicode="&#x12f;" horiz-adv-x="298" 
d="M167 1126h-136q-12 0 -21 9q-10 9 -10 22v210q0 13 10 22q9 9 21 9h136q13 0 22 -9t9 -22v-210q0 -13 -9 -22t-22 -9zM0 877q0 12 9.5 21.5t21.5 9.5h136q13 0 22 -9q9 -10 9 -22v-981q0 -10 1 -13q2 -5 12 -8q9 -4 23 -4h111q13 0 23 -9q9 -9 9 -22v-136q0 -13 -9.5 -22
t-22.5 -9h-157q-45 0 -80 19.5t-59 51.5t-36.5 71.5t-12.5 80.5v981z" />
    <glyph glyph-name="jcircumflex" unicode="&#x135;" horiz-adv-x="638" 
d="M452 1150q-6 12 -12 12t-12 -12l-41 -100q-7 -13 -17 -17t-24 0l-125 52q-12 5 -17 16q-4 12 0 24l66 159q6 19 16.5 38.5t24.5 38.5t30.5 35t32.5 27q29 19 66 19q32 0 58.5 -15t48 -38t37.5 -51t27 -55l65 -160q5 -13 0 -24q-4 -10 -17 -17l-125 -51q-12 -4 -24 0
q-11 6 -17 17zM32 -455q-13 0 -22 9q-10 9 -10 22v135q0 13 10 22q9 9 22 9h237q32 0 52 24t20 54v1057q0 13 9 22t22 9h135q13 0 22 -9t9 -22v-1057q0 -57 -21 -107t-57.5 -87.5t-85.5 -59t-105 -21.5h-237z" />
    <glyph glyph-name="uni0137" unicode="&#x137;" horiz-adv-x="898" 
d="M642 967q10 10 21 10q11 1 23 -7l101 -90q10 -12 10 -22q2 -12 -8 -22l-245 -276q-16 -21 10 -28q47 -11 86.5 -35.5t68 -58.5t44.5 -77t16 -92v-238q0 -13 -9 -22t-22 -9h-135q-13 0 -22 9t-9 22v238q0 15 -6.5 28.5t-17.5 23t-25 15t-29 5.5h-295v-3q-1 -1 -1 -7
q-1 -5 -1 -10v-12v-278q0 -13 -9 -22t-22 -9h-135q-13 0 -22 9t-9 22v1336q0 13 9 22t22 9h135q13 0 22 -9t9 -22v-798v-11.5t1 -10.5q0 -5 1 -7v-2h2q16 1 37 12.5t42 27t39.5 32t28.5 27.5zM440 -75q25 0 41.5 -17.5t16.5 -41.5v-101q0 -24 -11 -53.5t-27 -48.5l-21 -25
q-15 -15 -21 -15q-9 0 -4 28q2 8 3.5 14.5t3.5 13.5q2 12 0 20t-7 8h-74q-24 0 -41 17t-17 41v101q0 24 16.5 41.5t41.5 17.5h100z" />
    <glyph glyph-name="kgreenlandic" unicode="&#x138;" horiz-adv-x="898" 
d="M642 967q10 10 21 10q11 1 23 -7l101 -90q10 -12 10 -22q2 -12 -8 -22l-245 -276q-16 -21 10 -28q47 -11 86.5 -35.5t68 -58.5t44.5 -77t16 -92v-238q0 -13 -9 -22t-22 -9h-135q-13 0 -22 9t-9 22v238q0 15 -6.5 28.5t-17.5 23t-25 15t-29 5.5h-295v-3q-1 -1 -1 -7
q-1 -5 -1 -10v-12v-278q0 -13 -9 -22t-22 -9h-135q-13 0 -22 9t-9 22v1336q0 13 9 22t22 9h135q13 0 22 -9t9 -22v-798v-11.5t1 -10.5q0 -5 1 -7v-2h2q16 1 37 12.5t42 27t39.5 32t28.5 27.5z" />
    <glyph glyph-name="eth" unicode="&#xf0;" horiz-adv-x="1435" 
d="M1026 31q0 -13 -9 -22t-22 -9h-720q-57 0 -107.5 21.5t-87.5 59t-58.5 87.5t-21.5 107v362q0 58 21.5 108t59 87t87.5 58.5t107 21.5h522q13 0 22 9t9 22v175q-1 1 -2 1.5t-2 1.5l-9 7q-2 2 -4 3q-38 26 -61 24q-4 -1 -14 -7q-9 -6 -17 -16.5t-15.5 -22t-14 -23.5
t-11.5 -21l-24 -50q-4 -10 -14 -13q-9 -4 -20 1l-100 48q-10 4 -13 15q-3 9 1 19l24 50q17 35 38.5 68t48.5 58.5t61 40.5t76 15q35 0 72 -13v63q0 13 9 22t22 9h136q13 0 22 -9t9 -22v-198l1 -1q11 -9 22.5 -16.5t22.5 -14.5q20 -13 31 -11q2 1 3 2q4 2 8 6q5 5 12 15
q4 5 7.5 12t8.5 15q4 8 8.5 18t9.5 23l20 52q4 10 14 14q9 4 19 0l104 -40q10 -4 14 -13q4 -10 0 -20l-20 -52q-13 -35 -32 -70t-44.5 -62.5t-58.5 -45t-75 -17.5q-40 0 -75 16v-948zM275 715q-32 0 -55 -23t-23 -55v-362q0 -32 23 -55t55 -23h522q13 0 22 10q9 9 9 21v455
q0 13 -9 23q-9 9 -22 9h-522z" />
    <glyph glyph-name="dcaron" unicode="&#x10f;" horiz-adv-x="1436" 
d="M275 0q-58 0 -108 21.5t-87 59t-58.5 87.5t-21.5 107v362q0 58 21.5 108t59 87t87.5 58.5t107 21.5h522q13 0 22 9t9 22v424q0 13 9 22t22 9h136q13 0 22 -9t9 -22v-1336q0 -13 -9 -22t-22 -9h-720zM1278 1395q25 0 41 -17q17 -16 17 -41v-101q0 -12 -2.5 -25.5
t-8.5 -27.5q-10 -29 -27 -49l-21 -25q-13 -15 -21 -15q-9 0 -4 28q2 8 3.5 14.5t3.5 13.5q1 6 1.5 11t-1.5 9q-2 8 -7 8h-74q-22 0 -41 17q-17 19 -17 41v101q0 24 17 41t41 17h100zM275 715q-32 0 -55 -23t-23 -55v-362q0 -32 23 -55t55 -23h522q13 0 22 9t9 22v455
q0 13 -9 22.5t-22 9.5h-522z" />
    <glyph glyph-name="dcroat" unicode="&#x111;" horiz-adv-x="1246" 
d="M1026 31q0 -13 -9 -22t-22 -9h-720q-57 0 -107.5 21.5t-87.5 59t-58.5 87.5t-21.5 107v362q0 58 21.5 108t59 87t87.5 58.5t107 21.5h522q13 0 22 9t9 22v147h-454q-13 0 -22 9q-10 9 -10 22v135q0 13 10 22q9 9 22 9h454v80q0 13 9 22t22 9h136q13 0 22 -9t9 -22v-80h89
q13 0 22 -9t9 -22v-135q0 -13 -9 -22t-22 -9h-89v-1059zM275 715q-32 0 -55 -23t-23 -55v-362q0 -32 23 -55t55 -23h522q13 0 22 10q9 9 9 21v455q0 13 -9 23q-9 9 -22 9h-522z" />
    <glyph glyph-name="ntilde" unicode="&#xf1;" 
d="M463 1114q-2 2 -4.5 3t-4.5 3q-5 2 -5 0l-3 -3l-80 -107q-7 -10 -20 -13q-12 -2 -23 6l-109 81q-10 7 -12 20q-1 12 6 24l80 107q8 11 18 22t22 22q25 20 55 35t63 15q36 0 71.5 -17t63.5 -40q26 -19 30 -24q4 -4 12 -10q7 -7 14 -7q2 2 2 3l80 109q9 11 21 12
q12 2 23 -6l109 -80q10 -7 12 -20q2 -14 -6 -23l-79 -109q-27 -37 -69 -65.5t-90 -28.5q-37 0 -71.5 16.5t-63.5 39.5q-26 20 -30 25q-3 3 -6 5.5t-6 4.5zM828 641q0 32 -22 55q-23 22 -55 22h-476q-32 0 -55 -22.5t-23 -54.5v-610q0 -13 -9 -22t-22 -9h-135q-13 0 -22 9
t-9 22v610q0 57 21.5 107.5t59 87.5t87.5 58.5t107 21.5h476q57 0 107.5 -21.5t87.5 -59t58.5 -87.5t21.5 -107v-610q0 -13 -9 -22t-22 -9h-135q-13 0 -22 9q-10 9 -10 22v610z" />
    <glyph glyph-name="nacute" unicode="&#x144;" 
d="M426 1072q-12 6 -17 17q-4 12 0 24l131 318q4 12 17 17q11 6 24 0l125 -51q11 -6 17 -17q5 -10 0 -24l-131 -318q-7 -13 -17 -17t-24 0zM828 641q0 32 -22 55q-23 22 -55 22h-476q-32 0 -55 -22.5t-23 -54.5v-610q0 -13 -9 -22t-22 -9h-135q-13 0 -22 9t-9 22v610
q0 57 21.5 107.5t59 87.5t87.5 58.5t107 21.5h476q57 0 107.5 -21.5t87.5 -59t58.5 -87.5t21.5 -107v-610q0 -13 -9 -22t-22 -9h-135q-13 0 -22 9q-10 9 -10 22v610z" />
    <glyph glyph-name="uni0146" unicode="&#x146;" 
d="M828 641q0 32 -22 55q-23 22 -55 22h-476q-32 0 -55 -22.5t-23 -54.5v-610q0 -13 -9 -22t-22 -9h-135q-13 0 -22 9t-9 22v610q0 57 21.5 107.5t59 87.5t87.5 58.5t107 21.5h476q57 0 107.5 -21.5t87.5 -59t58.5 -87.5t21.5 -107v-610q0 -13 -9 -22t-22 -9h-135
q-13 0 -22 9q-10 9 -10 22v610zM593 -80q25 0 41.5 -17.5t16.5 -41.5v-101q0 -24 -11 -53.5t-27 -48.5l-21 -25q-15 -15 -21 -15q-9 0 -4 28q2 8 3.5 14.5t3.5 13.5q2 12 0 20t-7 8h-74q-24 0 -41 17t-17 41v101q0 24 16.5 41.5t41.5 17.5h100z" />
    <glyph glyph-name="ncaron" unicode="&#x148;" 
d="M520 1302q6 -12 12 -12q5 0 11 12l4 10q6 11 17 17q12 5 24 0l125 -51q13 -7 17 -17q5 -13 0 -24l-28 -68q-7 -25 -23.5 -53t-39 -52t-50 -39.5t-57.5 -15.5q-26 0 -49 10.5t-42 27.5t-34.5 38.5t-26.5 42.5q-7 13 -12 23t-7 18l-66 160q-5 13 1 24q5 12 17 16l125 51
q10 5 24 0q11 -5 17 -17zM828 641q0 32 -22 55q-23 22 -55 22h-476q-32 0 -55 -22.5t-23 -54.5v-610q0 -13 -9 -22t-22 -9h-135q-13 0 -22 9t-9 22v610q0 57 21.5 107.5t59 87.5t87.5 58.5t107 21.5h476q57 0 107.5 -21.5t87.5 -59t58.5 -87.5t21.5 -107v-610q0 -13 -9 -22
t-22 -9h-135q-13 0 -22 9q-10 9 -10 22v610z" />
    <glyph glyph-name="napostrophe" unicode="&#x149;" horiz-adv-x="1435" 
d="M1137 641q0 32 -22 55q-23 22 -55 22h-476q-32 0 -55 -22.5t-23 -54.5v-610q0 -13 -9 -22t-22 -9h-135q-13 0 -22 9t-9 22v610q0 57 21.5 107.5t59 87.5t87.5 58.5t107 21.5h476q57 0 107.5 -21.5t87.5 -59t58.5 -87.5t21.5 -107v-610q0 -13 -9 -22t-22 -9h-135
q-13 0 -22 9q-10 9 -10 22v610zM158 906q25 0 41 -17q17 -16 17 -41v-101q0 -12 -2.5 -25.5t-8.5 -27.5q-10 -29 -27 -49l-21 -25q-13 -15 -21 -15q-9 0 -4 28q2 8 3.5 14.5t3.5 13.5q1 6 1.5 11t-1.5 9q-2 8 -7 8h-74q-22 0 -41 17q-17 19 -17 41v101q0 24 17 41t41 17h100
z" />
    <glyph glyph-name="eng" unicode="&#x14b;" 
d="M860 0q-13 0 -22 9q-10 9 -10 22v610q0 33 -22 55t-55 22h-476q-32 0 -55 -22t-23 -55v-610q0 -13 -9 -22t-22 -9h-135q-13 0 -22 9t-9 22v610q0 58 21.5 108t59 87t87.5 58.5t107 21.5h476q58 0 108 -21.5t87 -59t58.5 -87.5t21.5 -107v-610q0 -11 -8 -21q-1 -2 -1 -3
t-1 -2q-11 -30 -25 -49l-19 -25q-13 -15 -19 -15q-9 0 -4 28q2 8 3 14.5t3 13.5q1 6 1.5 11t-0.5 9q-2 8 -7 8h-89z" />
    <glyph glyph-name="ograve" unicode="&#xf2;" 
d="M344 1336q-6 14 0 24q4 11 17 17l125 51q12 6 24 0q12 -5 16 -17l131 -318q5 -12 0 -24q-5 -11 -17 -17l-125 -51q-12 -4 -24 0q-11 5 -17 17zM750 916q57 0 107.5 -21.5t88 -59t59 -87.5t21.5 -107v-366q0 -58 -21.5 -108t-59 -87t-88 -58.5t-107.5 -21.5h-475
q-58 0 -108 21.5t-87 59t-58.5 87.5t-21.5 107v366q0 58 21.5 108t59 87t87.5 58.5t107 21.5h475zM828 641q0 33 -22.5 55t-55.5 22h-475q-32 0 -55 -22.5t-23 -54.5v-366q0 -32 23 -55t55 -23h475q32 0 55 23t23 55v366z" />
    <glyph glyph-name="oacute" unicode="&#xf3;" 
d="M406 1052q-12 6 -17 17q-4 12 0 24l131 318q4 12 17 17q11 6 24 0l125 -51q11 -6 17 -17q5 -10 0 -24l-131 -318q-7 -13 -17 -17t-24 0zM750 916q57 0 107.5 -21.5t88 -59t59 -87.5t21.5 -107v-366q0 -58 -21.5 -108t-59 -87t-88 -58.5t-107.5 -21.5h-475
q-58 0 -108 21.5t-87 59t-58.5 87.5t-21.5 107v366q0 58 21.5 108t59 87t87.5 58.5t107 21.5h475zM828 641q0 33 -22.5 55t-55.5 22h-475q-32 0 -55 -22.5t-23 -54.5v-366q0 -32 23 -55t55 -23h475q32 0 55 23t23 55v366z" />
    <glyph glyph-name="ocircumflex" unicode="&#xf4;" 
d="M525 1130q-6 12 -12 12t-12 -12l-41 -100q-7 -13 -17 -17t-24 0l-125 52q-12 5 -17 16q-4 12 0 24l66 159q6 19 16.5 38.5t24.5 38.5t30.5 35t32.5 27q29 19 66 19q32 0 58.5 -15t48 -38t37.5 -51t27 -55l65 -160q5 -13 0 -24q-4 -10 -17 -17l-125 -51q-12 -4 -24 0
q-11 6 -17 17zM750 916q57 0 107.5 -21.5t88 -59t59 -87.5t21.5 -107v-366q0 -58 -21.5 -108t-59 -87t-88 -58.5t-107.5 -21.5h-475q-58 0 -108 21.5t-87 59t-58.5 87.5t-21.5 107v366q0 58 21.5 108t59 87t87.5 58.5t107 21.5h475zM828 641q0 33 -22.5 55t-55.5 22h-475
q-32 0 -55 -22.5t-23 -54.5v-366q0 -32 23 -55t55 -23h475q32 0 55 23t23 55v366z" />
    <glyph glyph-name="otilde" unicode="&#xf5;" 
d="M469 1108q-2 2 -4.5 3t-4.5 3q-5 2 -5 0l-3 -3l-80 -107q-7 -10 -20 -13q-12 -2 -23 6l-109 81q-10 7 -12 20q-1 12 6 24l80 107q8 11 18 22t22 22q25 20 55 35t63 15q36 0 71.5 -17t63.5 -40q26 -19 30 -24q4 -4 12 -10q7 -7 14 -7q2 2 2 3l80 109q9 11 21 12
q12 2 23 -6l109 -80q10 -7 12 -20q2 -14 -6 -23l-79 -109q-27 -37 -69 -65.5t-90 -28.5q-37 0 -71.5 16.5t-63.5 39.5q-26 20 -30 25q-3 3 -6 5.5t-6 4.5zM750 916q57 0 107.5 -21.5t88 -59t59 -87.5t21.5 -107v-366q0 -58 -21.5 -108t-59 -87t-88 -58.5t-107.5 -21.5h-475
q-58 0 -108 21.5t-87 59t-58.5 87.5t-21.5 107v366q0 58 21.5 108t59 87t87.5 58.5t107 21.5h475zM828 641q0 33 -22.5 55t-55.5 22h-475q-32 0 -55 -22.5t-23 -54.5v-366q0 -32 23 -55t55 -23h475q32 0 55 23t23 55v366z" />
    <glyph glyph-name="odieresis" unicode="&#xf6;" 
d="M450 1189q20 0 36 -14q14 -16 14 -35v-86q0 -21 -15 -35t-35 -14h-85q-20 0 -34 15q-15 14 -15 34v86q0 20 14.5 34.5t34.5 14.5h85zM680 1189q20 0 36 -14q14 -16 14 -35v-86q0 -21 -15 -35t-35 -14h-85q-20 0 -34 15q-15 14 -15 34v86q0 20 14.5 34.5t34.5 14.5h85z
M750 916q57 0 107.5 -21.5t88 -59t59 -87.5t21.5 -107v-366q0 -58 -21.5 -108t-59 -87t-88 -58.5t-107.5 -21.5h-475q-58 0 -108 21.5t-87 59t-58.5 87.5t-21.5 107v366q0 58 21.5 108t59 87t87.5 58.5t107 21.5h475zM828 641q0 33 -22.5 55t-55.5 22h-475q-32 0 -55 -22.5
t-23 -54.5v-366q0 -32 23 -55t55 -23h475q32 0 55 23t23 55v366z" />
    <glyph glyph-name="omacron" unicode="&#x14d;" 
d="M242 1000q-13 0 -22 9t-9 22v135q0 13 9 22t22 9h542q13 0 22 -9t9 -22v-135q0 -13 -9 -22t-22 -9h-542zM750 916q57 0 107.5 -21.5t88 -59t59 -87.5t21.5 -107v-366q0 -58 -21.5 -108t-59 -87t-88 -58.5t-107.5 -21.5h-475q-58 0 -108 21.5t-87 59t-58.5 87.5t-21.5 107
v366q0 58 21.5 108t59 87t87.5 58.5t107 21.5h475zM828 641q0 33 -22.5 55t-55.5 22h-475q-32 0 -55 -22.5t-23 -54.5v-366q0 -32 23 -55t55 -23h475q32 0 55 23t23 55v366z" />
    <glyph glyph-name="obreve" unicode="&#x14f;" 
d="M546 1208q11 4 15 19t4 25v150q0 14 8.5 23t22.5 9h135q13 0 22 -9.5t9 -22.5v-182q0 -48 -20.5 -87.5t-54 -67.5t-76.5 -43.5t-88 -15.5t-88 15.5t-76.5 43.5t-53.5 67.5t-20 87.5v182q0 13 9 22.5t22 9.5h135q13 0 22 -9.5t9 -22.5v-151q0 -10 4 -24.5t15 -18.5
q8 -4 22 -4q15 0 23 4zM750 916q57 0 107.5 -21.5t88 -59t59 -87.5t21.5 -107v-366q0 -58 -21.5 -108t-59 -87t-88 -58.5t-107.5 -21.5h-475q-58 0 -108 21.5t-87 59t-58.5 87.5t-21.5 107v366q0 58 21.5 108t59 87t87.5 58.5t107 21.5h475zM828 641q0 33 -22.5 55t-55.5 22
h-475q-32 0 -55 -22.5t-23 -54.5v-366q0 -32 23 -55t55 -23h475q32 0 55 23t23 55v366z" />
    <glyph glyph-name="ohungarumlaut" unicode="&#x151;" 
d="M349 1228h100q24 0 41 -17t17 -41v-101q0 -22 -17 -41q-19 -17 -41 -17h-100q-24 0 -41 17t-17 41v101q0 25 17 41q16 17 41 17zM531 1170q0 24 17 41t41 17h100q24 0 41 -17t17 -41v-101q0 -24 -17 -41t-41 -17h-100q-24 0 -41 17t-17 41v101zM750 916q57 0 107.5 -21.5
t88 -59t59 -87.5t21.5 -107v-366q0 -58 -21.5 -108t-59 -87t-88 -58.5t-107.5 -21.5h-475q-58 0 -108 21.5t-87 59t-58.5 87.5t-21.5 107v366q0 58 21.5 108t59 87t87.5 58.5t107 21.5h475zM828 641q0 33 -22.5 55t-55.5 22h-475q-32 0 -55 -22.5t-23 -54.5v-366
q0 -32 23 -55t55 -23h475q32 0 55 23t23 55v366z" />
    <glyph glyph-name="divide" unicode="&#xf7;" horiz-adv-x="762" 
d="M281 709q-24 0 -41 17t-17 41v101q0 24 17 41t41 17h100q24 0 41 -17t17 -41v-101q0 -22 -17 -41q-19 -17 -41 -17h-100zM31 458q-13 0 -22 10q-9 9 -9 22v135q0 13 9 22t22 9h600q13 0 22 -9t9 -22v-135q0 -13 -9 -22q-9 -10 -22 -10h-600zM439 312v-101q0 -22 -17 -41
q-19 -17 -41 -17h-100q-24 0 -41 17t-17 41v101q0 24 17 41t41 17h100q24 0 41 -17t17 -41z" />
    <glyph glyph-name="oslash" unicode="&#xf8;" horiz-adv-x="1153" 
d="M891 1085q10 10 21 11q12 2 23 -6l105 -85q11 -9 12 -21q1 -11 -7 -23l-82 -102q-7 -10 -7 -24q0 -12 9 -23q61 -74 61 -173v-366q0 -57 -21.5 -107.5t-59 -87.5t-87.5 -58.5t-107 -21.5h-476q-1 -1 -1 -2l-5 -5q-3 -4 -6.5 -8t-7.5 -9l-58 -73q-9 -11 -21 -12
q-11 -1 -23 7l-106 84q-9 8 -11 21q-1 13 6 23l22 27q8 12 7 24q0 14 -9 24q-62 76 -62 174v366q0 57 21.5 107.5t59 87.5t87.5 58.5t107 21.5h477l7 7q3 4 6.5 8t8.5 9zM197 273q0 -10 3 -21q3 -9 12 -7t16 12l349 435q8 11 4 18q-3 7 -16 7h-290q-32 0 -55 -23t-23 -55
v-366zM828 639v10t-2 10q-3 8 -11 6q-9 -2 -16 -12l-347 -433q-8 -11 -5 -17q4 -7 17 -7h287q32 0 55 22q22 23 22 55v366z" />
    <glyph glyph-name="racute" unicode="&#x155;" horiz-adv-x="760" 
d="M283 1052q-12 6 -17 17q-4 12 0 24l131 318q4 12 17 17q11 6 24 0l125 -51q11 -6 17 -17q5 -10 0 -24l-131 -318q-7 -13 -17 -17t-24 0zM275 718q-32 0 -55 -22q-22 -23 -22 -55v-610q0 -13 -9 -22q-10 -9 -22 -9h-136q-13 0 -22 9t-9 22v610q0 57 21.5 107.5t59 87.5
t87.5 58.5t107 21.5h354q13 0 22 -9t9 -22v-136q0 -11 -9 -22q-9 -9 -22 -9h-354z" />
    <glyph glyph-name="uni0157" unicode="&#x157;" horiz-adv-x="760" 
d="M275 718q-32 0 -55 -22q-22 -23 -22 -55v-610q0 -13 -9 -22q-10 -9 -22 -9h-136q-13 0 -22 9t-9 22v610q0 57 21.5 107.5t59 87.5t87.5 58.5t107 21.5h354q13 0 22 -9t9 -22v-136q0 -11 -9 -22q-9 -9 -22 -9h-354zM158 -69q25 0 41.5 -17.5t16.5 -41.5v-101
q0 -24 -11 -53.5t-27 -48.5l-21 -25q-15 -15 -21 -15q-9 0 -4 28q2 8 3.5 14.5t3.5 13.5q2 12 0 20t-7 8h-74q-24 0 -41 17t-17 41v101q0 24 16.5 41.5t41.5 17.5h100z" />
    <glyph glyph-name="rcaron" unicode="&#x159;" horiz-adv-x="760" 
d="M379 1300q6 -12 12 -12q5 0 11 12l4 10q6 11 17 17q12 5 24 0l125 -51q13 -7 17 -17q5 -13 0 -24l-28 -68q-7 -25 -23.5 -53t-39 -52t-50 -39.5t-57.5 -15.5q-26 0 -49 10.5t-42 27.5t-34.5 38.5t-26.5 42.5q-7 13 -12 23t-7 18l-66 160q-5 13 1 24q5 12 17 16l125 51
q10 5 24 0q11 -5 17 -17zM275 718q-32 0 -55 -22q-22 -23 -22 -55v-610q0 -13 -9 -22q-10 -9 -22 -9h-136q-13 0 -22 9t-9 22v610q0 57 21.5 107.5t59 87.5t87.5 58.5t107 21.5h354q13 0 22 -9t9 -22v-136q0 -11 -9 -22q-9 -9 -22 -9h-354z" />
    <glyph glyph-name="uni0163" unicode="&#x163;" horiz-adv-x="900" 
d="M509 0q-55 3 -102 26t-81 60.5t-53.5 86t-19.5 102.5v412q0 13 -9 22q-10 9 -23 9h-190q-13 0 -22 10q-9 9 -9 21v136q0 13 9 22t22 9h190q13 0 23 9q9 9 9 22v429q0 12 9 22q9 9 22 9h135q13 0 22 -9q9 -10 9 -22v-429q0 -13 9 -22t22 -9h288q13 0 22 -9t9 -22v-136
q0 -12 -9 -21q-9 -10 -22 -10h-288q-13 0 -22 -9t-9 -22v-412q0 -30 19.5 -54t51.5 -24h238q13 0 22 -9t9 -22v-135q0 -13 -9 -22t-22 -9h-52v-104q0 -41 -12.5 -81t-37 -71.5t-59.5 -51t-80 -19.5h-157q-13 0 -22 10q-9 9 -9 21v136q0 13 9 22t22 9h112q14 0 23 4
q10 3 12 8q1 3 1 13v104z" />
    <glyph glyph-name="tcaron" unicode="&#x165;" horiz-adv-x="900" 
d="M800 749q0 -11 -9 -22q-9 -9 -22 -9h-288q-13 0 -22 -9t-9 -22v-412q0 -15 5.5 -29t15 -25t22.5 -17.5t28 -6.5h238q13 0 22 -9t9 -22v-135q0 -13 -9 -22t-22 -9h-238q-57 0 -106 22t-85 59.5t-56.5 87.5t-20.5 106v412q0 13 -9.5 22t-22.5 9h-190q-13 0 -22 9
q-9 11 -9 22v136q0 13 9 22t22 9h190q13 0 22.5 9t9.5 22v429q0 13 9 22t22 9h135q13 0 22 -9t9 -22v-429q0 -13 9 -22t22 -9h288q13 0 22 -9t9 -22v-136zM713 1398q25 0 41 -17q17 -16 17 -41v-101q0 -12 -2.5 -25.5t-8.5 -27.5q-10 -29 -27 -49l-21 -25q-13 -15 -21 -15
q-9 0 -4 28q2 8 3.5 14.5t3.5 13.5q1 6 1.5 11t-1.5 9q-2 8 -7 8h-74q-22 0 -41 17q-17 19 -17 41v101q0 24 17 41t41 17h100z" />
    <glyph glyph-name="tbar" unicode="&#x167;" horiz-adv-x="900" 
d="M253 687q0 13 -9 22q-10 9 -23 9h-190q-13 0 -22 10q-9 9 -9 21v136q0 13 9 22t22 9h190q13 0 23 9q9 9 9 22v429q0 12 9 22q9 9 22 9h135q13 0 22 -9q9 -10 9 -22v-429q0 -13 9 -22t22 -9h288q13 0 22 -9t9 -22v-136q0 -12 -9 -21q-9 -10 -22 -10h-288q-13 0 -22 -9
t-9 -22v-26h321q13 0 22 -9t9 -22v-135q0 -13 -9 -22t-22 -9h-321v-189q0 -30 19.5 -54t51.5 -24h238q13 0 22 -9t9 -22v-135q0 -13 -9 -22t-22 -9h-238q-57 0 -106 22t-85 59.5t-56.5 87.5t-20.5 106v189h-224q-12 0 -21 9q-10 9 -10 22v135q0 13 10 22q9 9 21 9h224v26z
" />
    <glyph glyph-name="ugrave" unicode="&#xf9;" 
d="M351 1356q-6 14 0 24q4 11 17 17l125 51q12 6 24 0q12 -5 16 -17l131 -318q5 -12 0 -24q-5 -11 -17 -17l-125 -51q-12 -4 -24 0q-11 5 -17 17zM1026 275q0 -57 -21.5 -107.5t-59 -87.5t-87.5 -58.5t-107 -21.5h-476q-57 0 -107.5 21.5t-87.5 59t-58.5 87.5t-21.5 107v610
q0 13 9 22t22 9h135q13 0 22 -9q10 -9 10 -22v-610q0 -32 22.5 -55t54.5 -23h476q32 0 55 23t23 55v610q0 13 9 22t22 9h135q13 0 22 -9t9 -22v-610z" />
    <glyph glyph-name="uacute" unicode="&#xfa;" 
d="M416 1056q-12 6 -17 17q-4 12 0 24l131 318q4 12 17 17q11 6 24 0l125 -51q11 -6 17 -17q5 -10 0 -24l-131 -318q-7 -13 -17 -17t-24 0zM1026 275q0 -57 -21.5 -107.5t-59 -87.5t-87.5 -58.5t-107 -21.5h-476q-57 0 -107.5 21.5t-87.5 59t-58.5 87.5t-21.5 107v610
q0 13 9 22t22 9h135q13 0 22 -9q10 -9 10 -22v-610q0 -32 22.5 -55t54.5 -23h476q32 0 55 23t23 55v610q0 13 9 22t22 9h135q13 0 22 -9t9 -22v-610z" />
    <glyph glyph-name="ucircumflex" unicode="&#xfb;" 
d="M525 1150q-6 12 -12 12t-12 -12l-41 -100q-7 -13 -17 -17t-24 0l-125 52q-12 5 -17 16q-4 12 0 24l66 159q6 19 16.5 38.5t24.5 38.5t30.5 35t32.5 27q29 19 66 19q32 0 58.5 -15t48 -38t37.5 -51t27 -55l65 -160q5 -13 0 -24q-4 -10 -17 -17l-125 -51q-12 -4 -24 0
q-11 6 -17 17zM1026 275q0 -57 -21.5 -107.5t-59 -87.5t-87.5 -58.5t-107 -21.5h-476q-57 0 -107.5 21.5t-87.5 59t-58.5 87.5t-21.5 107v610q0 13 9 22t22 9h135q13 0 22 -9q10 -9 10 -22v-610q0 -32 22.5 -55t54.5 -23h476q32 0 55 23t23 55v610q0 13 9 22t22 9h135
q13 0 22 -9t9 -22v-610z" />
    <glyph glyph-name="udieresis" unicode="&#xfc;" 
d="M456 1188q20 0 36 -14q14 -16 14 -35v-86q0 -21 -15 -35t-35 -14h-85q-20 0 -34 15q-15 14 -15 34v86q0 20 14.5 34.5t34.5 14.5h85zM686 1188q20 0 36 -14q14 -16 14 -35v-86q0 -21 -15 -35t-35 -14h-85q-20 0 -34 15q-15 14 -15 34v86q0 20 14.5 34.5t34.5 14.5h85z
M1026 275q0 -57 -21.5 -107.5t-59 -87.5t-87.5 -58.5t-107 -21.5h-476q-57 0 -107.5 21.5t-87.5 59t-58.5 87.5t-21.5 107v610q0 13 9 22t22 9h135q13 0 22 -9q10 -9 10 -22v-610q0 -32 22.5 -55t54.5 -23h476q32 0 55 23t23 55v610q0 13 9 22t22 9h135q13 0 22 -9t9 -22
v-610z" />
    <glyph glyph-name="utilde" unicode="&#x169;" 
d="M443 1118q-2 2 -4.5 3t-4.5 3q-5 2 -5 0l-3 -3l-80 -107q-7 -10 -20 -13q-12 -2 -23 6l-109 81q-10 7 -12 20q-1 12 6 24l80 107q8 11 18 22t22 22q25 20 55 35t63 15q36 0 71.5 -17t63.5 -40q26 -19 30 -24q4 -4 12 -10q7 -7 14 -7q2 2 2 3l80 109q9 11 21 12
q12 2 23 -6l109 -80q10 -7 12 -20q2 -14 -6 -23l-79 -109q-27 -37 -69 -65.5t-90 -28.5q-37 0 -71.5 16.5t-63.5 39.5q-26 20 -30 25q-3 3 -6 5.5t-6 4.5zM1026 275q0 -57 -21.5 -107.5t-59 -87.5t-87.5 -58.5t-107 -21.5h-476q-57 0 -107.5 21.5t-87.5 59t-58.5 87.5
t-21.5 107v610q0 13 9 22t22 9h135q13 0 22 -9q10 -9 10 -22v-610q0 -32 22.5 -55t54.5 -23h476q32 0 55 23t23 55v610q0 13 9 22t22 9h135q13 0 22 -9t9 -22v-610z" />
    <glyph glyph-name="umacron" unicode="&#x16b;" 
d="M242 1030q-13 0 -22 9t-9 22v135q0 13 9 22t22 9h542q13 0 22 -9t9 -22v-135q0 -13 -9 -22t-22 -9h-542zM1026 275q0 -57 -21.5 -107.5t-59 -87.5t-87.5 -58.5t-107 -21.5h-476q-57 0 -107.5 21.5t-87.5 59t-58.5 87.5t-21.5 107v610q0 13 9 22t22 9h135q13 0 22 -9
q10 -9 10 -22v-610q0 -32 22.5 -55t54.5 -23h476q32 0 55 23t23 55v610q0 13 9 22t22 9h135q13 0 22 -9t9 -22v-610z" />
    <glyph glyph-name="ubreve" unicode="&#x16d;" 
d="M546 1202q11 4 15 19t4 25v150q0 14 8.5 23t22.5 9h135q13 0 22 -9.5t9 -22.5v-182q0 -48 -20.5 -87.5t-54 -67.5t-76.5 -43.5t-88 -15.5t-88 15.5t-76.5 43.5t-53.5 67.5t-20 87.5v182q0 13 9 22.5t22 9.5h135q13 0 22 -9.5t9 -22.5v-151q0 -10 4 -24.5t15 -18.5
q8 -4 22 -4q15 0 23 4zM1026 275q0 -57 -21.5 -107.5t-59 -87.5t-87.5 -58.5t-107 -21.5h-476q-57 0 -107.5 21.5t-87.5 59t-58.5 87.5t-21.5 107v610q0 13 9 22t22 9h135q13 0 22 -9q10 -9 10 -22v-610q0 -32 22.5 -55t54.5 -23h476q32 0 55 23t23 55v610q0 13 9 22t22 9
h135q13 0 22 -9t9 -22v-610z" />
    <glyph glyph-name="uring" unicode="&#x16f;" 
d="M762 1214q0 -48 -20.5 -87.5t-54 -67.5t-76.5 -43.5t-88 -15.5t-88 15.5t-76.5 43.5t-54 67.5t-20.5 87.5t20.5 87.5t54 67.5t76.5 43.5t88 15.5t88 -15.5t76.5 -43.5t54 -67.5t20.5 -87.5zM492 1214q0 -7 9 -13q9 -3 22 -3t22 3q9 6 9 13q0 11 -11.5 13.5t-19.5 2.5
t-19.5 -2.5t-11.5 -13.5zM1026 275q0 -57 -21.5 -107.5t-59 -87.5t-87.5 -58.5t-107 -21.5h-476q-57 0 -107.5 21.5t-87.5 59t-58.5 87.5t-21.5 107v610q0 13 9 22t22 9h135q13 0 22 -9q10 -9 10 -22v-610q0 -32 22.5 -55t54.5 -23h476q32 0 55 23t23 55v610q0 13 9 22t22 9
h135q13 0 22 -9t9 -22v-610z" />
    <glyph glyph-name="uhungarumlaut" unicode="&#x171;" 
d="M341 1218h100q24 0 41 -17t17 -41v-101q0 -22 -17 -41q-19 -17 -41 -17h-100q-24 0 -41 17t-17 41v101q0 25 17 41q16 17 41 17zM523 1160q0 24 17 41t41 17h100q24 0 41 -17t17 -41v-101q0 -24 -17 -41t-41 -17h-100q-24 0 -41 17t-17 41v101zM1026 275
q0 -57 -21.5 -107.5t-59 -87.5t-87.5 -58.5t-107 -21.5h-476q-57 0 -107.5 21.5t-87.5 59t-58.5 87.5t-21.5 107v610q0 13 9 22t22 9h135q13 0 22 -9q10 -9 10 -22v-610q0 -32 22.5 -55t54.5 -23h476q32 0 55 23t23 55v610q0 13 9 22t22 9h135q13 0 22 -9t9 -22v-610z" />
    <glyph glyph-name="uogonek" unicode="&#x173;" 
d="M275 0q-57 0 -107.5 21.5t-87.5 59t-58.5 87.5t-21.5 107v610q0 13 9 22t22 9h135q13 0 23 -9q9 -9 9 -22v-610q0 -32 22.5 -55t54.5 -23h476q32 0 55 23t23 55v610q0 13 9 22t22 9h135q13 0 22 -9t9 -22v-610q0 -58 -21.5 -108t-59 -87t-87.5 -58.5t-107 -21.5h-121
v-104q0 -10 1 -13q2 -5 12 -8q9 -4 23 -4h111q13 0 23 -9q9 -9 9 -22v-136q0 -13 -9.5 -22t-22.5 -9h-157q-45 0 -80 19.5t-59 51.5t-36.5 71.5t-12.5 80.5v104h-157z" />
    <glyph glyph-name="wcircumflex" unicode="&#x175;" horiz-adv-x="1659" 
d="M792 1150q-6 12 -12 12t-12 -12l-41 -100q-7 -13 -17 -17t-24 0l-125 52q-12 5 -17 16q-4 12 0 24l66 159q6 19 16.5 38.5t24.5 38.5t30.5 35t32.5 27q29 19 66 19q32 0 58.5 -15t48 -38t37.5 -51t27 -55l65 -160q5 -13 0 -24q-4 -10 -17 -17l-125 -51q-12 -4 -24 0
q-11 6 -17 17zM533 63q-25 -51 -75 -61q-5 -1 -10 -1.5t-10 -0.5q-32 0 -56.5 17t-38.5 46l-338 757q-4 13 0 25q5 12 16 16l124 55q13 5 24 1q11 -5 17 -17l95 -218l144 -315q8 -12 13 -12q6 0 12 12l141 315l95 218q8 15 21 18t28 3h102q11 0 21 -5t15 -16l95 -218
l144 -315q8 -12 13 -12q6 0 12 12l141 315l95 218q6 13 18 17q9 4 23 -1l124 -55q12 -5 17 -16q4 -10 -1 -25l-334 -757q-25 -51 -75 -61q-5 -1 -10 -1.5t-10 -0.5q-32 0 -56.5 17t-38.5 46l-250 559z" />
    <glyph glyph-name="yacute" unicode="&#xfd;" horiz-adv-x="970" 
d="M343 1056q-12 6 -17 17q-4 12 0 24l131 318q4 12 17 17q11 6 24 0l125 -51q11 -6 17 -17q5 -10 0 -24l-131 -318q-7 -13 -17 -17t-24 0zM870 -180q0 -57 -21.5 -107.5t-59 -87.5t-87.5 -58.5t-107 -21.5h-564q-13 0 -22 9t-9 22v135q0 13 9 22t22 9h564q32 0 55 23t23 55
v149q0 11 -9 22q-9 9 -22 9h-367q-57 0 -107.5 21.5t-87.5 59t-58.5 87.5t-21.5 107v606q0 13 9 22t22 9h135q13 0 22 -9t9 -22v-606q0 -32 23 -55t55 -23h367q13 0 22 9t9 22v653q0 13 9 22t22 9h135q13 0 22 -9t9 -22v-1061z" />
    <glyph glyph-name="ycircumflex" unicode="&#x177;" horiz-adv-x="970" 
d="M457 1129q-6 12 -12 12t-12 -12l-41 -100q-7 -13 -17 -17t-24 0l-125 52q-12 5 -17 16q-4 12 0 24l66 159q6 19 16.5 38.5t24.5 38.5t30.5 35t32.5 27q29 19 66 19q32 0 58.5 -15t48 -38t37.5 -51t27 -55l65 -160q5 -13 0 -24q-4 -10 -17 -17l-125 -51q-12 -4 -24 0
q-11 6 -17 17zM870 -180q0 -57 -21.5 -107.5t-59 -87.5t-87.5 -58.5t-107 -21.5h-564q-13 0 -22 9t-9 22v135q0 13 9 22t22 9h564q32 0 55 23t23 55v149q0 11 -9 22q-9 9 -22 9h-367q-57 0 -107.5 21.5t-87.5 59t-58.5 87.5t-21.5 107v606q0 13 9 22t22 9h135q13 0 22 -9
t9 -22v-606q0 -32 23 -55t55 -23h367q13 0 22 9t9 22v653q0 13 9 22t22 9h135q13 0 22 -9t9 -22v-1061z" />
    <glyph glyph-name="thorn" unicode="&#xfe;" horiz-adv-x="1127" 
d="M751 916q58 0 108 -21.5t87.5 -59t59 -87.5t21.5 -107v-366q0 -58 -21.5 -108t-59 -87t-88 -58.5t-107.5 -21.5h-522q-13 0 -22 -9q-9 -11 -9 -22v-385q0 -13 -9 -22t-22 -9h-136q-12 0 -21 9q-10 9 -10 22v1783q0 13 9 22t22 9h136q12 0 22 -9q9 -9 9 -22v-451h553z
M198 228q0 -12 9 -21q9 -10 22 -10h522q32 0 55 23t23 55v366q0 33 -23 55t-55 22h-522q-13 0 -22 -9t-9 -22v-459z" />
    <glyph glyph-name="ydieresis" unicode="&#xff;" horiz-adv-x="970" 
d="M362 1189q20 0 36 -14q14 -16 14 -35v-86q0 -21 -15 -35t-35 -14h-85q-20 0 -34 15q-15 14 -15 34v86q0 20 14.5 34.5t34.5 14.5h85zM592 1189q20 0 36 -14q14 -16 14 -35v-86q0 -21 -15 -35t-35 -14h-85q-20 0 -34 15q-15 14 -15 34v86q0 20 14.5 34.5t34.5 14.5h85z
M870 -180q0 -57 -21.5 -107.5t-59 -87.5t-87.5 -58.5t-107 -21.5h-564q-13 0 -22 9t-9 22v135q0 13 9 22t22 9h564q32 0 55 23t23 55v149q0 11 -9 22q-9 9 -22 9h-367q-57 0 -107.5 21.5t-87.5 59t-58.5 87.5t-21.5 107v606q0 13 9 22t22 9h135q13 0 22 -9t9 -22v-606
q0 -32 23 -55t55 -23h367q13 0 22 9t9 22v653q0 13 9 22t22 9h135q13 0 22 -9t9 -22v-1061z" />
    <glyph glyph-name="Scaron" unicode="&#x160;" horiz-adv-x="1249" 
d="M581 1818q6 -12 12 -12q5 0 11 12l4 10q6 11 17 17q12 5 24 0l125 -51q13 -7 17 -17q5 -13 0 -24l-28 -68q-7 -25 -23.5 -53t-39 -52t-50 -39.5t-57.5 -15.5q-26 0 -49 10.5t-42 27.5t-34.5 38.5t-26.5 42.5q-7 13 -12 23t-7 18l-66 160q-5 13 1 24q5 12 17 16l125 51
q10 5 24 0q11 -5 17 -17zM1148 276q0 -58 -21.5 -108t-59 -87.5t-87.5 -59t-107 -21.5h-842q-13 0 -22 9t-9 22v136q0 13 9 22t22 9h842q32 0 55 23t23 55v351q0 32 -23 55t-55 23h-598q-58 0 -108 22t-87 59.5t-58.5 87.5t-21.5 107v177q0 58 21.5 108t59 87.5t87.5 59
t107 21.5h842q13 0 22 -9t9 -22v-136q0 -13 -9 -22t-22 -9h-842q-33 0 -55 -22.5t-22 -55.5v-177q0 -32 22 -55t55 -23h598q58 0 108 -21.5t87 -59t58.5 -88t21.5 -107.5v-351z" />
    <glyph glyph-name="Sacute" unicode="&#x15a;" horiz-adv-x="1249" 
d="M487 1558q-12 6 -17 17q-4 12 0 24l131 318q4 12 17 17q11 6 24 0l125 -51q11 -6 17 -17q5 -10 0 -24l-131 -318q-7 -13 -17 -17t-24 0zM1148 276q0 -58 -21.5 -108t-59 -87.5t-87.5 -59t-107 -21.5h-842q-13 0 -22 9t-9 22v136q0 13 9 22t22 9h842q32 0 55 23t23 55v351
q0 32 -23 55t-55 23h-598q-58 0 -108 22t-87 59.5t-58.5 87.5t-21.5 107v177q0 58 21.5 108t59 87.5t87.5 59t107 21.5h842q13 0 22 -9t9 -22v-136q0 -13 -9 -22t-22 -9h-842q-33 0 -55 -22.5t-22 -55.5v-177q0 -32 22 -55t55 -23h598q58 0 108 -21.5t87 -59t58.5 -88
t21.5 -107.5v-351z" />
    <glyph glyph-name="Scircumflex" unicode="&#x15c;" horiz-adv-x="1249" 
d="M616 1626q-6 12 -12 12t-12 -12l-41 -100q-7 -13 -17 -17t-24 0l-125 52q-12 5 -17 16q-4 12 0 24l66 159q6 19 16.5 38.5t24.5 38.5t30.5 35t32.5 27q29 19 66 19q32 0 58.5 -15t48 -38t37.5 -51t27 -55l65 -160q5 -13 0 -24q-4 -10 -17 -17l-125 -51q-12 -4 -24 0
q-11 6 -17 17zM1148 276q0 -58 -21.5 -108t-59 -87.5t-87.5 -59t-107 -21.5h-842q-13 0 -22 9t-9 22v136q0 13 9 22t22 9h842q32 0 55 23t23 55v351q0 32 -23 55t-55 23h-598q-58 0 -108 22t-87 59.5t-58.5 87.5t-21.5 107v177q0 58 21.5 108t59 87.5t87.5 59t107 21.5h842
q13 0 22 -9t9 -22v-136q0 -13 -9 -22t-22 -9h-842q-33 0 -55 -22.5t-22 -55.5v-177q0 -32 22 -55t55 -23h598q58 0 108 -21.5t87 -59t58.5 -88t21.5 -107.5v-351z" />
    <glyph glyph-name="Scedilla" unicode="&#x15e;" horiz-adv-x="1249" 
d="M31 0q-13 0 -22 9t-9 22v136q0 13 9 22t22 9h842q32 0 55 23t23 55v351q0 32 -23 55t-55 23h-598q-58 0 -108 22t-87 59.5t-58.5 87.5t-21.5 107v177q0 58 21.5 108t59 87.5t87.5 59t107 21.5h842q13 0 22 -9t9 -22v-136q0 -13 -9 -22t-22 -9h-842q-32 0 -54.5 -23
t-22.5 -55v-177q0 -32 22.5 -55t54.5 -23h598q58 0 108 -21.5t87 -59t58.5 -88t21.5 -107.5v-351q0 -57 -21.5 -107t-59 -87.5t-87.5 -59.5t-107 -22h-189v-104q0 -41 -12.5 -81t-37 -71.5t-59.5 -51t-80 -19.5h-157q-13 0 -22 10q-9 9 -9 21v136q0 13 9 22t22 9h112
q14 0 23 4q10 3 12 8q1 3 1 13v104h-455z" />
    <glyph glyph-name="scaron" unicode="&#x161;" horiz-adv-x="1127" 
d="M520 1302q6 -12 12 -12q5 0 11 12l4 10q6 11 17 17q12 5 24 0l125 -51q13 -7 17 -17q5 -13 0 -24l-28 -68q-7 -25 -23.5 -53t-39 -52t-50 -39.5t-57.5 -15.5q-26 0 -49 10.5t-42 27.5t-34.5 38.5t-26.5 42.5q-7 13 -12 23t-7 18l-66 160q-5 13 1 24q5 12 17 16l125 51
q10 5 24 0q11 -5 17 -17zM751 197q32 0 55 23t23 55v28q0 32 -23 55t-55 23h-475q-56 0 -106 20.5t-88 56.5t-60 85t-22 105q0 57 22.5 106t60 85t88 56.5t105.5 20.5h720q12 0 22 -9q9 -9 9 -22v-136q0 -11 -9 -22q-10 -9 -22 -9h-720q-30 0 -54 -19t-24 -51q0 -15 6.5 -28
t17.5 -22.5t25 -14.5t29 -5h475q57 0 107.5 -21.5t88 -59t59 -87.5t21.5 -107v-28q0 -57 -22 -107.5t-59.5 -87.5t-87.5 -58.5t-107 -21.5h-720q-11 0 -22 9q-9 9 -9 22v135q0 13 9 22q11 9 22 9h720z" />
    <glyph glyph-name="sacute" unicode="&#x15b;" horiz-adv-x="1127" 
d="M426 1082q-12 6 -17 17q-4 12 0 24l131 318q4 12 17 17q11 6 24 0l125 -51q11 -6 17 -17q5 -10 0 -24l-131 -318q-7 -13 -17 -17t-24 0zM751 197q32 0 55 23t23 55v28q0 32 -23 55t-55 23h-475q-56 0 -106 20.5t-88 56.5t-60 85t-22 105q0 57 22.5 106t60 85t88 56.5
t105.5 20.5h720q12 0 22 -9q9 -9 9 -22v-136q0 -11 -9 -22q-10 -9 -22 -9h-720q-30 0 -54 -19t-24 -51q0 -15 6.5 -28t17.5 -22.5t25 -14.5t29 -5h475q57 0 107.5 -21.5t88 -59t59 -87.5t21.5 -107v-28q0 -57 -22 -107.5t-59.5 -87.5t-87.5 -58.5t-107 -21.5h-720
q-11 0 -22 9q-9 9 -9 22v135q0 13 9 22q11 9 22 9h720z" />
    <glyph glyph-name="scircumflex" unicode="&#x15d;" horiz-adv-x="1127" 
d="M555 1130q-6 12 -12 12t-12 -12l-41 -100q-7 -13 -17 -17t-24 0l-125 52q-12 5 -17 16q-4 12 0 24l66 159q6 19 16.5 38.5t24.5 38.5t30.5 35t32.5 27q29 19 66 19q32 0 58.5 -15t48 -38t37.5 -51t27 -55l65 -160q5 -13 0 -24q-4 -10 -17 -17l-125 -51q-12 -4 -24 0
q-11 6 -17 17zM751 197q32 0 55 23t23 55v28q0 32 -23 55t-55 23h-475q-56 0 -106 20.5t-88 56.5t-60 85t-22 105q0 57 22.5 106t60 85t88 56.5t105.5 20.5h720q12 0 22 -9q9 -9 9 -22v-136q0 -11 -9 -22q-10 -9 -22 -9h-720q-30 0 -54 -19t-24 -51q0 -15 6.5 -28
t17.5 -22.5t25 -14.5t29 -5h475q57 0 107.5 -21.5t88 -59t59 -87.5t21.5 -107v-28q0 -57 -22 -107.5t-59.5 -87.5t-87.5 -58.5t-107 -21.5h-720q-11 0 -22 9q-9 9 -9 22v135q0 13 9 22q11 9 22 9h720z" />
    <glyph glyph-name="scedilla" unicode="&#x15f;" horiz-adv-x="1127" 
d="M31 0q-12 0 -21 9q-10 9 -10 22v135q0 13 10 22q9 9 21 9h720q32 0 55 23t23 55v28q0 32 -23 55t-55 23h-475q-55 0 -105.5 21t-88 57t-60 84.5t-22.5 104.5q0 57 22.5 106t60 85t88 56.5t105.5 20.5h720q12 0 22 -9q9 -9 9 -22v-136q0 -12 -9.5 -21.5t-21.5 -9.5h-720
q-30 0 -54 -19t-24 -51q0 -15 6.5 -28t17.5 -22.5t25 -14.5t29 -5h475q58 0 108 -21.5t87.5 -59t59 -87.5t21.5 -107v-28q0 -58 -21.5 -108t-59 -87t-88 -58.5t-107.5 -21.5h-127v-104q0 -41 -12.5 -81t-37 -71.5t-59.5 -51t-80 -19.5h-157q-13 0 -22 10q-9 9 -9 21v136
q0 13 9 22t22 9h112q14 0 23 4q10 3 12 8q1 3 1 13v104h-395z" />
    <glyph glyph-name="Zcaron" unicode="&#x17d;" horiz-adv-x="1249" 
d="M581 1818q6 -12 12 -12q5 0 11 12l4 10q6 11 17 17q12 5 24 0l125 -51q13 -7 17 -17q5 -13 0 -24l-28 -68q-7 -25 -23.5 -53t-39 -52t-50 -39.5t-57.5 -15.5q-26 0 -49 10.5t-42 27.5t-34.5 38.5t-26.5 42.5q-7 13 -12 23t-7 18l-66 160q-5 13 1 24q5 12 17 16l125 51
q10 5 24 0q11 -5 17 -17zM1148 993q0 -27 -8 -53.5t-23 -49t-35.5 -40.5t-44.5 -30l-811 -362q-28 -13 -28 -44v-185q0 -13 9 -22t22 -9h888q13 0 22 -9t9 -22v-136q0 -13 -9 -22t-22 -9h-960q-33 0 -61.5 12.5t-49.5 33.5t-33.5 49.5t-12.5 61.5v294q0 57 31 103t81 70
l810 362q12 6 20.5 18t8.5 26v175q0 13 -9 22t-22 9h-889q-13 0 -22 9t-9 22v136q0 13 9 22t22 9h960q33 0 61.5 -12t50 -33.5t33.5 -50t12 -61.5v-284z" />
    <glyph glyph-name="Zacute" unicode="&#x179;" horiz-adv-x="1249" 
d="M487 1558q-12 6 -17 17q-4 12 0 24l131 318q4 12 17 17q11 6 24 0l125 -51q11 -6 17 -17q5 -10 0 -24l-131 -318q-7 -13 -17 -17t-24 0zM1148 993q0 -27 -8 -53.5t-23 -49t-35.5 -40.5t-44.5 -30l-811 -362q-28 -13 -28 -44v-185q0 -13 9 -22t22 -9h888q13 0 22 -9t9 -22
v-136q0 -13 -9 -22t-22 -9h-960q-33 0 -61.5 12.5t-49.5 33.5t-33.5 49.5t-12.5 61.5v294q0 57 31 103t81 70l810 362q12 6 20.5 18t8.5 26v175q0 13 -9 22t-22 9h-889q-13 0 -22 9t-9 22v136q0 13 9 22t22 9h960q33 0 61.5 -12t50 -33.5t33.5 -50t12 -61.5v-284z" />
    <glyph glyph-name="Zdotaccent" unicode="&#x17b;" horiz-adv-x="1249" 
d="M544 1507q-24 0 -41 17t-17 41v101q0 24 17 41t41 17h100q24 0 41 -17t17 -41v-101q0 -24 -17 -41t-41 -17h-100zM1148 993q0 -27 -8 -53.5t-23 -49t-35.5 -40.5t-44.5 -30l-811 -362q-28 -13 -28 -44v-185q0 -13 9 -22t22 -9h888q13 0 22 -9t9 -22v-136q0 -13 -9 -22
t-22 -9h-960q-33 0 -61.5 12.5t-49.5 33.5t-33.5 49.5t-12.5 61.5v294q0 57 31 103t81 70l810 362q12 6 20.5 18t8.5 26v175q0 13 -9 22t-22 9h-889q-13 0 -22 9t-9 22v136q0 13 9 22t22 9h960q33 0 61.5 -12t50 -33.5t33.5 -50t12 -61.5v-284z" />
    <glyph glyph-name="zcaron" unicode="&#x17e;" horiz-adv-x="1155" 
d="M544 1312q6 -12 12 -12q5 0 11 12l4 10q6 11 17 17q12 5 24 0l125 -51q13 -7 17 -17q5 -13 0 -24l-28 -68q-7 -25 -23.5 -53t-39 -52t-50 -39.5t-57.5 -15.5q-26 0 -49 10.5t-42 27.5t-34.5 38.5t-26.5 42.5q-7 13 -12 23t-7 18l-66 160q-5 13 1 24q5 12 17 16l125 51
q10 5 24 0q11 -5 17 -17zM1024 197q13 0 22 -9t9 -22v-135q0 -13 -9 -22t-22 -9h-867q-33 0 -61.5 12t-50 33.5t-33.5 50t-12 61.5v136q0 29 9.5 56t27 49.5t41 39t50.5 24.5l699 198q9 3 19.5 10.5t10.5 18.5t-11 16t-20 5h-795q-13 0 -22 9t-9 22v136q0 12 9 22q9 9 22 9
h867q33 0 61.5 -12.5t49.5 -33.5t33.5 -49.5t12.5 -61.5v-99q0 -29 -9.5 -56t-27 -49t-41 -38.5t-50.5 -25.5l-699 -198q-13 -4 -22 -15q-8 -11 -8 -25v-17q0 -13 9 -22t22 -9h795z" />
    <glyph glyph-name="zacute" unicode="&#x17a;" horiz-adv-x="1155" 
d="M440 1082q-12 6 -17 17q-4 12 0 24l131 318q4 12 17 17q11 6 24 0l125 -51q11 -6 17 -17q5 -10 0 -24l-131 -318q-7 -13 -17 -17t-24 0zM1024 197q13 0 22 -9t9 -22v-135q0 -13 -9 -22t-22 -9h-867q-33 0 -61.5 12t-50 33.5t-33.5 50t-12 61.5v136q0 29 9.5 56t27 49.5
t41 39t50.5 24.5l699 198q9 3 19.5 10.5t10.5 18.5t-11 16t-20 5h-795q-13 0 -22 9t-9 22v136q0 12 9 22q9 9 22 9h867q33 0 61.5 -12.5t49.5 -33.5t33.5 -49.5t12.5 -61.5v-99q0 -29 -9.5 -56t-27 -49t-41 -38.5t-50.5 -25.5l-699 -198q-13 -4 -22 -15q-8 -11 -8 -25v-17
q0 -13 9 -22t22 -9h795z" />
    <glyph glyph-name="zdotaccent" unicode="&#x17c;" horiz-adv-x="1155" 
d="M497 1001q-24 0 -41 17t-17 41v101q0 24 17 41t41 17h100q24 0 41 -17t17 -41v-101q0 -24 -17 -41t-41 -17h-100zM1024 197q13 0 22 -9t9 -22v-135q0 -13 -9 -22t-22 -9h-867q-33 0 -61.5 12t-50 33.5t-33.5 50t-12 61.5v136q0 29 9.5 56t27 49.5t41 39t50.5 24.5
l699 198q9 3 19.5 10.5t10.5 18.5t-11 16t-20 5h-795q-13 0 -22 9t-9 22v136q0 12 9 22q9 9 22 9h867q33 0 61.5 -12.5t49.5 -33.5t33.5 -49.5t12.5 -61.5v-99q0 -29 -9.5 -56t-27 -49t-41 -38.5t-50.5 -25.5l-699 -198q-13 -4 -22 -15q-8 -11 -8 -25v-17q0 -13 9 -22t22 -9
h795z" />
    <glyph glyph-name="dotlessi" unicode="&#x131;" horiz-adv-x="298" 
d="M31 0q-12 0 -21 9q-10 9 -10 22v846q0 12 9.5 21.5t21.5 9.5h136q13 0 22 -9q9 -10 9 -22v-846q0 -13 -9 -22t-22 -9h-136z" />
    <glyph glyph-name="uni0237" unicode="&#x237;" horiz-adv-x="638" 
d="M32 -455q-13 0 -22 9q-10 9 -10 22v135q0 13 10 22q9 9 22 9h237q32 0 52 24t20 54v1057q0 13 9 22t22 9h135q13 0 22 -9t9 -22v-1057q0 -57 -21 -107t-57.5 -87.5t-85.5 -59t-105 -21.5h-237z" />
    <glyph glyph-name="uni0306" unicode="&#x306;" horiz-adv-x="577" 
d="M261 1228q11 4 15 19t4 25v150q0 14 8.5 23t22.5 9h135q13 0 22 -9.5t9 -22.5v-182q0 -48 -20.5 -87.5t-54 -67.5t-76.5 -43.5t-88 -15.5t-88 15.5t-76.5 43.5t-53.5 67.5t-20 87.5v182q0 13 9 22.5t22 9.5h135q13 0 22 -9.5t9 -22.5v-151q0 -10 4 -24.5t15 -18.5
q8 -4 22 -4q15 0 23 4z" />
    <glyph glyph-name="gravecomb" unicode="&#x300;" horiz-adv-x="423" 
d="M5 1366q-6 14 0 24q4 11 17 17l125 51q12 6 24 0q12 -5 16 -17l131 -318q5 -12 0 -24q-5 -11 -17 -17l-125 -51q-12 -4 -24 0q-11 5 -17 17z" />
    <glyph glyph-name="acutecomb" unicode="&#x301;" horiz-adv-x="423" 
d="M22 1082q-12 6 -17 17q-4 12 0 24l131 318q4 12 17 17q11 6 24 0l125 -51q11 -6 17 -17q5 -10 0 -24l-131 -318q-7 -13 -17 -17t-24 0z" />
    <glyph glyph-name="uni030B" unicode="&#x30b;" horiz-adv-x="556" 
d="M158 1348q24 0 41 -17t17 -41v-101q0 -22 -17 -41q-19 -17 -41 -17h-100q-24 0 -41 17t-17 41v101q0 25 17 41q16 17 41 17h100zM240 1290q0 24 17 41t41 17h100q24 0 41 -17t17 -41v-101q0 -24 -17 -41t-41 -17h-100q-24 0 -41 17t-17 41v101z" />
    <glyph glyph-name="uni0302" unicode="&#x302;" horiz-adv-x="582" 
d="M253 1150q-6 12 -12 12t-12 -12l-41 -100q-7 -13 -17 -17t-24 0l-125 52q-12 5 -17 16q-4 12 0 24l66 159q6 19 16.5 38.5t24.5 38.5t30.5 35t32.5 27q29 19 66 19q32 0 58.5 -15t48 -38t37.5 -51t27 -55l65 -160q5 -13 0 -24q-4 -10 -17 -17l-125 -51q-12 -4 -24 0
q-11 6 -17 17z" />
    <glyph glyph-name="tildecomb" unicode="&#x303;" horiz-adv-x="786" 
d="M263 1144q-2 2 -4.5 3t-4.5 3q-5 2 -5 0l-3 -3l-80 -107q-7 -10 -20 -13q-12 -2 -23 6l-109 81q-10 7 -12 20q-1 12 6 24l80 107q8 11 18 22t22 22q25 20 55 35t63 15q36 0 71.5 -17t63.5 -40q26 -19 30 -24q4 -4 12 -10q7 -7 14 -7q2 2 2 3l80 109q9 11 21 12
q12 2 23 -6l109 -80q10 -7 12 -20q2 -14 -6 -23l-79 -109q-27 -37 -69 -65.5t-90 -28.5q-37 0 -71.5 16.5t-63.5 39.5q-26 20 -30 25q-3 3 -6 5.5t-6 4.5z" />
    <glyph glyph-name="uni0304" unicode="&#x304;" horiz-adv-x="0" 
d="M-693 1030q-13 0 -22 9t-9 22v135q0 13 9 22t22 9h542q13 0 22 -9t9 -22v-135q0 -13 -9 -22t-22 -9h-542z" />
    <glyph glyph-name="uni0307" unicode="&#x307;" horiz-adv-x="316" 
d="M58 1031q-24 0 -41 17t-17 41v101q0 24 17 41t41 17h100q24 0 41 -17t17 -41v-101q0 -24 -17 -41t-41 -17h-100z" />
    <glyph glyph-name="uni0308" unicode="&#x308;" horiz-adv-x="514" 
d="M134 1209q20 0 36 -14q14 -16 14 -35v-86q0 -21 -15 -35t-35 -14h-85q-20 0 -34 15q-15 14 -15 34v86q0 20 14.5 34.5t34.5 14.5h85zM364 1209q20 0 36 -14q14 -16 14 -35v-86q0 -21 -15 -35t-35 -14h-85q-20 0 -34 15q-15 14 -15 34v86q0 20 14.5 34.5t34.5 14.5h85z
" />
    <glyph glyph-name="uni030A" unicode="&#x30a;" horiz-adv-x="578" 
d="M478 1240q0 -48 -20.5 -87.5t-54 -67.5t-76.5 -43.5t-88 -15.5t-88 15.5t-76.5 43.5t-54 67.5t-20.5 87.5t20.5 87.5t54 67.5t76.5 43.5t88 15.5t88 -15.5t76.5 -43.5t54 -67.5t20.5 -87.5zM208 1240q0 -7 9 -13q9 -3 22 -3t22 3q9 6 9 13q0 11 -11.5 13.5t-19.5 2.5
t-19.5 -2.5t-11.5 -13.5z" />
    <glyph glyph-name="uni030C" unicode="&#x30c;" horiz-adv-x="544" 
d="M229 1342q6 -12 12 -12q5 0 11 12l4 10q6 11 17 17q12 5 24 0l125 -51q13 -7 17 -17q5 -13 0 -24l-28 -68q-7 -25 -23.5 -53t-39 -52t-50 -39.5t-57.5 -15.5q-26 0 -49 10.5t-42 27.5t-34.5 38.5t-26.5 42.5q-7 13 -12 23t-7 18l-66 160q-5 13 1 24q5 12 17 16l125 51
q10 5 24 0q11 -5 17 -17z" />
    <glyph glyph-name="uni0328" unicode="&#x328;" horiz-adv-x="477" 
d="M198 -104q0 -9 1 -13q2 -5 12 -9q9 -3 23 -3h111q13 0 22 -9q10 -9 10 -22v-136q0 -13 -9.5 -22t-22.5 -9h-157q-44 0 -79 19.5t-59 51.5t-37 71.5t-13 80.5v191q0 13 9 22t22 9h136q13 0 22 -9t9 -22v-191z" />
    <glyph glyph-name="uni0327" unicode="&#x327;" horiz-adv-x="477" 
d="M377 -104q0 -41 -13 -81t-37 -71.5t-59 -51t-80 -19.5h-157q-13 0 -22 9q-9 10 -9 22v136q0 13 9 22t22 9h112q13 0 23 3q11 4 12 9q1 4 1 13v191q0 13 9 22t22 9h135q13 0 22 -9q10 -9 10 -22v-191z" />
    <glyph glyph-name="endash" unicode="&#x2013;" horiz-adv-x="743" 
d="M25 380q-11 0 -18 10t-7 21v136q0 11 7 21t18 10h593q13 0 19 -10t6 -21v-136q0 -11 -6 -21t-19 -10h-593z" />
    <glyph glyph-name="emdash" unicode="&#x2014;" horiz-adv-x="1386" 
d="M50 380q-7 0 -15.5 1.5t-16 5.5t-13 9.5t-5.5 14.5v136q0 9 5.5 14.5t13 9.5t16 5.5t15.5 1.5h1187q7 0 15.5 -1.5t16 -5.5t12.5 -9.5t5 -14.5v-136q0 -9 -5 -14.5t-12.5 -9.5t-16 -5.5t-15.5 -1.5h-1187z" />
    <glyph glyph-name="quoteleft" unicode="&#x2018;" horiz-adv-x="316" 
d="M58 1144q-22 0 -41 17q-17 19 -17 41v101q0 12 3 26t8 28t12 26.5t15 21.5l21 25q15 15 21 15q9 0 4 -27q-2 -8 -3 -15t-3 -13q-3 -11 -1 -20t7 -9h74q25 0 41 -17q17 -16 17 -41v-101q0 -24 -17 -41t-41 -17h-100z" />
    <glyph glyph-name="quoteright" unicode="&#x2019;" horiz-adv-x="316" 
d="M158 1445q25 0 41 -17q17 -16 17 -41v-101q0 -12 -2.5 -25.5t-8.5 -27.5q-10 -29 -27 -49l-21 -25q-13 -15 -21 -15q-9 0 -4 28q2 8 3.5 14.5t3.5 13.5q1 6 1.5 11t-1.5 9q-2 8 -7 8h-74q-22 0 -41 17q-17 19 -17 41v101q0 24 17 41t41 17h100z" />
    <glyph glyph-name="quotesinglbase" unicode="&#x201a;" horiz-adv-x="316" 
d="M158 151q25 0 41.5 -17.5t16.5 -41.5v-101q0 -24 -11 -53.5t-27 -48.5l-21 -25q-15 -15 -21 -15q-9 0 -4 28q2 8 3.5 14.5t3.5 13.5q2 12 0 20t-7 8h-74q-24 0 -41 17t-17 41v101q0 24 16.5 41.5t41.5 17.5h100z" />
    <glyph glyph-name="quotedblleft" unicode="&#x201c;" horiz-adv-x="541" 
d="M225 1202v101q0 24 10.5 54t27.5 48l21 25q14 15 21 15q9 0 4 -27q-1 -4 -1.5 -8t-2.5 -8l-3 -12q-1 -6 -1.5 -11t1.5 -9q2 -9 7 -9h74q24 0 41 -17t17 -41v-101q0 -22 -17 -41q-19 -17 -41 -17h-100q-24 0 -41 17t-17 41zM58 1144q-22 0 -41 17q-17 19 -17 41v101
q0 12 3 26t8 28t12 26.5t15 21.5l21 25q15 15 21 15q9 0 4 -27q0 -2 -1 -2v-6q-1 0 -1 -2q-2 -5 -2.5 -9.5t-1.5 -8.5q-3 -11 -1 -20t7 -9h74q24 0 41 -17t17 -41v-101q0 -24 -17 -41t-41 -17h-100z" />
    <glyph glyph-name="quotedblright" unicode="&#x201d;" horiz-adv-x="541" 
d="M216 1387v-101q0 -24 -11 -53.5t-27 -48.5l-21 -25q-13 -15 -21 -15q-9 0 -4 28q2 10 4 15q1 4 1.5 7t0.5 6q3 11 1 20q-2 8 -7 8h-74q-22 0 -41 17q-17 19 -17 41v101q0 24 17 41t41 17h100q24 0 41 -17t17 -41zM383 1445q24 0 41 -17t17 -41v-101q0 -24 -11 -53.5
t-27 -48.5l-21 -25q-15 -15 -21 -15q-9 0 -4 28q0 3 2 9q1 5 2 9.5t2 9.5q3 11 1 20q-2 8 -7 8h-74q-24 0 -41 17t-17 41v101q0 25 17 41q16 17 41 17h100z" />
    <glyph glyph-name="quotedblbase" unicode="&#x201e;" horiz-adv-x="541" 
d="M216 92v-101q0 -24 -11 -53.5t-27 -48.5l-21 -25q-15 -15 -21 -15q-9 0 -4 28q0 1 0.5 1.5t0.5 2.5l2 7q0 1 0.5 2t0.5 2l2 13q3 11 1 20q-2 8 -7 8h-74q-24 0 -41 17t-17 41v101q0 24 16.5 41.5t41.5 17.5h100q25 0 41.5 -17.5t16.5 -41.5zM383 151q25 0 41.5 -17.5
t16.5 -41.5v-101q0 -24 -11 -53.5t-27 -48.5l-21 -25q-15 -15 -21 -15q-9 0 -4 28q0 1 1 2v5q1 0 1 2l2 10t2 9q3 11 1 20q-2 8 -7 8h-74q-24 0 -41 17t-17 41v101q0 24 16.5 41.5t41.5 17.5h100z" />
    <glyph glyph-name="dagger" unicode="&#x2020;" horiz-adv-x="761" 
d="M398 1715q13 0 22 -10q9 -9 9 -22v-996q0 -13 9 -22t22 -9h170q13 0 22 -9t9 -22v-135q0 -13 -9 -22q-9 -10 -22 -10h-170q-13 0 -22 -9t-9 -22v-759q0 -13 -9 -22t-22 -9h-135q-13 0 -22 9t-9 22v759q0 13 -10 22q-9 9 -22 9h-169q-13 0 -22 10q-9 9 -9 22v135
q0 13 9 22t22 9h169q13 0 23 9q9 9 9 22v996q0 13 9 22q9 10 22 10h135z" />
    <glyph glyph-name="daggerdbl" unicode="&#x2021;" horiz-adv-x="761" 
d="M429 620v-35q0 -13 9 -22t22 -9h170q13 0 22 -9t9 -22v-135q0 -13 -9 -22t-22 -9h-170q-13 0 -22 -10q-9 -9 -9 -22v-657q0 -13 -9 -22t-22 -9h-135q-13 0 -22 9t-9 22v657q0 13 -10 22q-9 10 -22 10h-169q-13 0 -22 9t-9 22v135q0 13 9 22t22 9h169q13 0 22 9
q10 9 10 22v35q0 13 -10 22q-9 10 -22 10h-169q-13 0 -22 9t-9 22v135q0 13 9 22t22 9h169q13 0 22 9q10 9 10 22v803q0 13 9 22q9 10 22 10h135q13 0 22 -10q9 -9 9 -22v-803q0 -13 9 -22t22 -9h170q13 0 22 -9t9 -22v-135q0 -13 -9 -22t-22 -9h-170q-13 0 -22 -10
q-9 -9 -9 -22z" />
    <glyph glyph-name="bullet" unicode="&#x2022;" horiz-adv-x="530" 
d="M314 933q24 0 45.5 -9t37 -24.5t24.5 -37t9 -45.5v-200q0 -24 -9 -45.5t-24.5 -37t-37 -24.5t-45.5 -9h-198q-24 0 -45.5 9t-37 24.5t-24.5 37t-9 45.5v200q0 24 9 45.5t24.5 37t37 24.5t45.5 9h198z" />
    <glyph glyph-name="ellipsis" unicode="&#x2026;" horiz-adv-x="1682" 
d="M158 217q24 0 41 -17t17 -41v-101q0 -24 -17 -41t-41 -17h-100q-24 0 -41 17t-17 41v101q0 24 17 41t41 17h100zM1524 217q24 0 41 -17t17 -41v-101q0 -24 -17 -41t-41 -17h-100q-24 0 -41 17t-17 41v101q0 24 17 41t41 17h100zM841 217q24 0 41 -17t17 -41v-101
q0 -24 -17 -41t-41 -17h-100q-24 0 -41 17t-17 41v101q0 24 17 41t41 17h100z" />
    <glyph glyph-name="guilsinglleft" unicode="&#x2039;" horiz-adv-x="679" 
d="M568 778q7 -10 5 -23q-3 -12 -14 -20l-257 -165q-10 -7 -10 -16q0 -10 11 -17l260 -165q12 -8 13 -20q3 -13 -4 -23l-72 -115q-8 -12 -20 -13q-13 -3 -23 4l-408 258q-47 33 -49 90q2 58 49 89l403 259q11 7 24 5q11 -3 19 -14z" />
    <glyph glyph-name="guilsinglright" unicode="&#x203a;" horiz-adv-x="679" 
d="M530 643q47 -33 49 -90q-2 -58 -49 -89l-403 -259q-11 -7 -24 -5q-11 3 -19 14l-74 114q-5 11 -4 23q3 12 14 20l257 165q10 7 10 17q0 9 -11 16l-260 165q-12 8 -13 20q-3 13 4 23l72 115q8 12 20 13q13 3 23 -4z" />
    <glyph glyph-name="fraction" unicode="&#x2044;" horiz-adv-x="1045" 
d="M22 -333q-12 5 -17 16q-5 12 -1 24l751 2007q5 12 17 17t23 1l127 -47q11 -4 18 -16q5 -12 0 -24l-751 -2007q-4 -13 -16 -18t-24 -1z" />
    <glyph glyph-name="fraction" unicode="&#x2215;" horiz-adv-x="1045" 
d="M22 -333q-12 5 -17 16q-5 12 -1 24l751 2007q5 12 17 17t23 1l127 -47q11 -4 18 -16q5 -12 0 -24l-751 -2007q-4 -13 -16 -18t-24 -1z" />
    <glyph glyph-name="franc" unicode="&#x20a3;" horiz-adv-x="1506" 
d="M265 1151q0 59 22.5 110.5t60.5 89.5t89.5 60t109.5 22h828q13 0 22 -9t9 -22v-140q0 -13 -9 -22t-22 -9h-828q-34 0 -56.5 -23.5t-22.5 -56.5v-202q0 -13 9 -22q9 -10 22 -10h679q13 0 22 -9t9 -22v-140q0 -13 -9 -22t-22 -9h-679q-13 0 -22 -9t-9 -22v-227h305
q13 0 22 -9t9 -22v-135q0 -13 -9 -22t-22 -9h-305v-229q0 -13 -9 -22q-10 -9 -22 -9h-141q-13 0 -22 9t-9 22v229h-234q-13 0 -22 9t-9 22v135q0 13 9 22t22 9h234v694z" />
    <glyph glyph-name="lira" unicode="&#x20a4;" horiz-adv-x="1335" 
d="M419 758q0 -13 9 -22t22 -9h168q13 0 22 -9t9 -22v-135q0 -13 -9 -22t-22 -9h-168q-13 0 -22 -9q-9 -10 -9 -23v-269q0 -13 9 -22t22 -9h754q13 0 22 -9t9 -22v-136q0 -13 -9 -22t-22 -9h-952q-13 0 -22 9t-9 22v467q0 13 -9 23q-9 9 -22 9h-159q-13 0 -22 9t-9 22v135
q0 13 9 22t22 9h159q13 0 22 9t9 22v90h-190q-13 0 -22 10q-9 9 -9 22v135q0 13 9 22t22 9h190v109q0 57 22 107.5t59.5 88t87.5 59t107 21.5h327q13 0 22 -9q9 -10 9 -23v-135q0 -13 -9 -22t-22 -9h-327q-32 0 -55 -23t-23 -55v-109h199q12 0 22 -9q9 -9 9 -22v-135
q0 -13 -9 -22.5t-22 -9.5h-199v-90z" />
    <glyph glyph-name="peseta" unicode="&#x20a7;" horiz-adv-x="2864" 
d="M1034 669q0 -52 -18 -102t-51 -89t-78.5 -62.5t-100.5 -23.5h-580q-13 0 -20.5 -9.5t-7.5 -21.5v-330q0 -12 -8 -22q-9 -9 -20 -9h-122q-13 0 -20.5 9.5t-7.5 21.5v1372q0 7 0.5 12t1.5 10q2 9 3 9h781q56 0 102 -23.5t78.5 -62.5t50 -88.5t17.5 -102.5v-241h101
q13 0 22 9t9 22v429q0 12 9 22q9 9 22 9h135q13 0 23 -9q9 -10 9 -22v-429q0 -13 9 -22t22 -9h288q13 0 22 -9t9 -22v-136q0 -12 -9 -21q-9 -10 -22 -10h-288q-13 0 -22 -9t-9 -22v-412q0 -30 19.5 -54t51.5 -24h237q13 0 23 -9q9 -9 9 -22v-135q0 -13 -9 -22q-10 -9 -23 -9
h-237q-57 0 -106 22t-85.5 60t-57 88t-20.5 105v412q0 13 -9 22t-22 9h-101v-49zM206 1236q-12 0 -20 -9q-8 -11 -8 -23v-582q0 -12 7.5 -21.5t20.5 -9.5h580q32 0 51 24t19 54v488q0 30 -19 54.5t-51 24.5h-580zM2488 197q32 0 55 23t23 55v28q0 32 -23 55t-55 23h-475
q-55 0 -105.5 21t-88 57t-60 84.5t-22.5 104.5q0 57 22.5 106t60 85t88 56.5t105.5 20.5h719q13 0 23 -9q9 -9 9 -22v-136q0 -13 -9.5 -22t-22.5 -9h-719q-30 0 -54 -19t-24 -51q0 -15 6.5 -28t17.5 -22.5t25 -14.5t29 -5h475q58 0 108 -21.5t87.5 -59t59 -87.5t21.5 -107
v-28q0 -58 -21.5 -108t-59 -87t-88 -58.5t-107.5 -21.5h-720q-13 0 -22 9t-9 22v135q0 13 9 22t22 9h720z" />
    <glyph glyph-name="Euro" unicode="&#x20ac;" horiz-adv-x="1427" 
d="M376 273q0 -32 22.5 -54.5t54.5 -22.5h842q12 0 22 -10t10 -22v-135q0 -13 -9.5 -22t-22.5 -9h-842q-57 0 -107.5 21.5t-87.5 59t-58.5 87.5t-21.5 107v113q0 13 -9 22t-22 9h-116q-13 0 -22 9q-9 11 -9 23v135q0 13 9 22t22 9h116q13 0 22 9t9 22v33q0 13 -9 22t-22 9
h-116q-13 0 -22 9q-9 11 -9 22v136q0 13 9 22t22 9h116q13 0 22 9t9 22v216q0 57 21.5 107.5t59 88t87.5 59t107 21.5h830q13 0 22 -10q9 -9 9 -22v-135q0 -13 -9 -22t-22 -9h-830q-16 0 -30 -6.5t-24.5 -17t-16.5 -24.5t-6 -30v-216q0 -13 9 -22t22 -9h211q13 0 22 -9
t9 -22v-136q0 -11 -9 -22q-9 -9 -22 -9h-211q-13 0 -22 -9t-9 -22v-33q0 -13 9 -22t22 -9h211q13 0 22 -9t9 -22v-135q0 -12 -9 -23q-9 -9 -22 -9h-211q-13 0 -22 -9t-9 -22v-113z" />
    <glyph glyph-name="uni2116" unicode="&#x2116;" horiz-adv-x="2064" 
d="M217 1133q-8 8 -13 8q-7 0 -7 -14v-1096q0 -13 -9 -22t-22 -9h-135q-13 0 -22 9t-9 22v1398q0 45 29 74.5t74 29.5q46 0 80 -40l944 -1186q8 -8 13 -8q6 0 6 15v1089q0 13 9 22t22 9h135q13 0 23 -9q9 -9 9 -22v-1392q0 -21 -8 -40t-21.5 -33.5t-32.5 -22.5t-40 -8
q-48 0 -82 40zM1704 1474q57 0 105 -22.5t82.5 -60.5t54 -87.5t19.5 -104.5v-149q0 -55 -19.5 -105t-54.5 -88t-83 -60t-104 -22q-57 0 -104.5 22.5t-82 60.5t-54 88t-19.5 104v149q0 55 19.5 105t54.5 87.5t82.5 60t103.5 22.5zM1768 1199q0 14 -4.5 27.5t-12.5 25
t-20 18.5t-27 7t-26.5 -7.5t-20 -18.5t-12.5 -25t-4 -27v-149q0 -13 4.5 -26.5t12.5 -25t19.5 -18.5t26.5 -7t27 7t20 18t12.5 25t4.5 27v149zM1481 508q-13 0 -22 10q-9 9 -9 22v135q0 13 9 22t22 9h450q13 0 22 -9t9 -22v-135q0 -13 -9 -22q-9 -10 -22 -10h-450z" />
    <glyph glyph-name="trademark" unicode="&#x2122;" horiz-adv-x="1350" 
d="M1058 1425q40 69 115 54q36 -9 56.5 -36.5t20.5 -64.5v-632q0 -13 -9 -22t-22 -9h-136q-13 0 -22 9t-9 22v211q0 26 -14 3l-65 -124q-34 -57 -93 -57q-58 0 -93 57l-65 124q-14 23 -14 -3v-211q0 -13 -9 -22t-22 -9h-136q-13 0 -22 9t-9 22v468q0 13 -9 22t-22 9h-49
q-13 0 -22 -9t-9 -22v-468q0 -13 -9 -22t-22 -9h-135q-13 0 -22 9q-10 9 -10 22v468q0 13 -9 22t-22 9h-139q-13 0 -22 9t-9 22v136q0 12 9 22q9 9 22 9h469q14 0 28 6.5t25 14.5q15 11 34 15q75 15 115 -54l164 -312q6 -12 14 -12t14 12z" />
    <glyph glyph-name="minus" unicode="&#x2212;" horiz-adv-x="762" 
d="M31 458q-13 0 -22 10q-9 9 -9 22v135q0 13 9 22t22 9h600q13 0 22 -9t9 -22v-135q0 -13 -9 -22q-9 -10 -22 -10h-600z" />
    <glyph glyph-name="approxequal" unicode="&#x2248;" horiz-adv-x="1113" 
d="M731 877v1q2 0 3 1q2 1 4 3t6 5q18 18 32.5 47.5t22.5 53.5l25 63q5 12 17 17t23 1l126 -49q13 -4 18 -16q4 -12 0 -25l-24 -63q-16 -42 -39 -84.5t-54.5 -76.5t-71.5 -55t-91 -21q-50 0 -97 21.5t-86 50.5q-42 32 -81 63q-22 18 -44 35t-45 34q-47 32 -75 29
q-4 0 -17 -8q-10 -7 -20.5 -20t-19.5 -27t-17 -28.5t-13 -25.5l-29 -61q-6 -11 -18 -16q-11 -4 -24 1l-122 59q-11 6 -16 18q-4 10 2 23l29 61q21 43 47 83t59.5 70.5t75 49t92.5 18.5q34 0 65.5 -8t61.5 -25q84 -47 153 -109q24 -20 50.5 -39.5t52.5 -36.5q24 -16 38 -14h1
zM731 446v1q2 0 3 1q5 2 13.5 12t11.5 15q13 20 22.5 39.5t17.5 42.5l25 64q5 12 17 17q11 5 23 0l126 -49q13 -4 18 -16t0 -24l-24 -63q-16 -43 -39 -85.5t-54.5 -76.5t-71.5 -55t-91 -21q-38 0 -73.5 12.5t-68.5 32t-63.5 44t-58.5 47.5q-22 18 -44 35t-45 33
q-47 32 -75 29q-11 0 -24.5 -14t-26 -32t-22.5 -36t-14 -27l-29 -61q-6 -11 -18 -16q-11 -4 -24 1l-122 59q-11 6 -16 18q-4 11 2 24l29 61q21 44 47.5 83.5t60 70.5t75 49t93.5 18q67 0 125 -33q42 -23 80 -50.5t73 -58.5q25 -21 50.5 -40.5t52.5 -36.5q24 -16 38 -14h1z
" />
    <glyph glyph-name="lessequal" unicode="&#x2264;" horiz-adv-x="679" 
d="M568 1075q7 -11 5 -24q-3 -11 -14 -19l-257 -165q-10 -7 -10 -16q0 -10 11 -18l260 -165q11 -8 14 -19q2 -13 -5 -24l-72 -114q-8 -12 -20 -13q-12 -3 -23 3l-408 259q-47 31 -49 89q2 57 49 90l403 259q11 7 24 4q12 -3 19 -13zM31 200q-13 0 -22 9t-9 22v135q0 13 9 23
q9 9 22 9h600q12 0 22 -9q9 -10 9 -23v-135q0 -13 -9 -22q-10 -9 -22 -9h-600z" />
    <glyph glyph-name="greaterequal" unicode="&#x2265;" horiz-adv-x="762" 
d="M167 1189q7 10 19 13q13 3 24 -4l403 -259q47 -33 49 -90q-2 -58 -49 -89l-408 -259q-11 -6 -23 -3q-12 1 -20 13l-72 114q-7 11 -4 24q1 11 13 19l260 165q11 8 11 18q0 9 -10 16l-257 165q-12 8 -13 19q-3 13 4 24zM31 200q-12 0 -21 9q-10 9 -10 22v135q0 13 9 22.5
t22 9.5h600q13 0 22 -9q9 -10 9 -23v-135q0 -13 -9 -22t-22 -9h-600z" />
    </font>
</defs>
</svg>
